<?xml version="1.0" standalone="no"?>
<!DOCTYPE svg PUBLIC "-//W3C//DTD SVG 1.1//EN" "http://www.w3.org/Graphics/SVG/1.1/DTD/svg11.dtd" >
<svg xmlns="http://www.w3.org/2000/svg" xmlns:xlink="http://www.w3.org/1999/xlink" version="1.1">
<metadata>
Created by FontForge 20161013 at Sun Mar 20 17:13:29 2011
 By ,,,
Copyright (c) 2011 by Jos Buivenga. All rights reserved.
</metadata>
<defs>
<font id="MuseoSansRounded-900" horiz-adv-x="600" >
  <font-face 
    font-family="Museo Sans Rounded 900"
    font-weight="700"
    font-stretch="normal"
    units-per-em="1000"
    panose-1="2 0 0 0 0 0 0 0 0 0"
    ascent="750"
    descent="-250"
    x-height="515"
    cap-height="715"
    bbox="-109.116 -230 1225 918"
    underline-thickness="50"
    underline-position="-200"
    unicode-range="U+0020-FB04"
  />
<missing-glyph horiz-adv-x="604" 
d="M52 55v590q0 55 55 55h390q55 0 55 -55v-590q0 -55 -55 -55h-390q-55 0 -55 55zM302 395l170 255h-340zM332 350l170 -255v510zM102 95l170 255l-170 255v-510zM132 50h340l-170 255z" />
    <glyph glyph-name="f_f" unicode="ff" horiz-adv-x="728" 
d="M86 55v325h-13q-55 0 -55 55v25q0 55 55 55h13v16q0 57 25 97.5t63.5 58.5t69.5 25t58 7h17q55 0 55 -55v-37q0 -50 -55 -55q-60 -5 -60 -50v-7h191v16q0 57 25 97.5t63.5 58.5t69.5 25t58 7h17q55 0 55 -55v-37q0 -50 -55 -55q-60 -5 -60 -50v-7h40q55 0 55 -55v-25
q0 -55 -47 -55h-48v-325q0 -55 -55 -55h-63q-55 0 -55 55v325h-191v-325q0 -55 -55 -55h-63q-55 0 -55 55z" />
    <glyph glyph-name="fi" unicode="fi" horiz-adv-x="639" 
d="M86 55v325h-13q-55 0 -55 55v25q0 55 55 55h13v16q0 57 25 97.5t63.5 58.5t69.5 25t58 7h17q55 0 55 -55v-37q0 -50 -55 -55q-60 -5 -60 -50v-7h274q55 0 55 -55v-405q0 -55 -55 -55h-63q-55 0 -55 55v325h-156v-325q0 -55 -55 -55h-63q-55 0 -55 55zM472 580
q-55 0 -55 55v25q0 55 55 55h59q55 0 55 -55v-25q0 -55 -55 -55h-59z" />
    <glyph glyph-name="fl" unicode="fl" horiz-adv-x="671" 
d="M86 55v316h-13q-55 0 -55 55v25q0 55 55 55h13v25q0 57 25 97.5t63.5 58.5t69.5 25t58 7h17q55 0 55 -55v-37q0 -50 -55 -55q-60 -5 -60 -50v-16h40q55 0 55 -55v-25q0 -55 -55 -55h-40v-316q0 -55 -55 -55h-63q-55 0 -55 55zM413 190v470q0 55 55 55h63q55 0 55 -55
v-462q0 -47 29 -51q40 -5 40 -47v-49q0 -56 -56 -56q-39 0 -67.5 6.5t-58 25.5t-45 60t-15.5 103z" />
    <glyph glyph-name="f_f_i" unicode="ffi" horiz-adv-x="1003" 
d="M86 55l-5 325h-8q-55 0 -55 55v25q0 55 55 55h8l5 16q0 57 25 97.5t63.5 58.5t69.5 25t58 7h17q55 0 55 -55v-37q0 -50 -55 -55q-60 -5 -60 -50v-7h191v16q0 57 25 97.5t63.5 58.5t69.5 25t58 7h17q55 0 55 -55v-37q0 -50 -55 -55q-60 -5 -60 -50v-7h274q55 0 55 -55
v-405q0 -55 -55 -55h-63q-55 0 -55 55v325h-156v-325q0 -55 -55 -55h-63q-55 0 -55 55v325h-191v-325q0 -55 -55 -55h-63q-55 0 -55 55zM781 635v25q0 55 55 55h59q55 0 55 -55v-25q0 -55 -55 -55h-59q-55 0 -55 55z" />
    <glyph glyph-name="f_f_l" unicode="ffl" horiz-adv-x="1035" 
d="M86 55l-5 325h-8q-55 0 -55 55v25q0 55 55 55h8l5 16q0 57 25 97.5t63.5 58.5t69.5 25t58 7h17q55 0 55 -55v-37q0 -50 -55 -55q-60 -5 -60 -50v-7h191v16q0 57 25 97.5t63.5 58.5t69.5 25t58 7h17q55 0 55 -55v-37q0 -50 -55 -55q-60 -5 -60 -50v-7h40q55 0 55 -55v-25
q0 -55 -47 -55h-48v-325q0 -55 -55 -55h-63q-55 0 -55 55v325h-191v-325q0 -55 -55 -55h-63q-55 0 -55 55zM777 190v470q0 55 55 55h63q55 0 55 -55v-462q0 -47 29 -51q40 -5 40 -47v-49q0 -56 -56 -56q-39 0 -67.5 6.5t-58 25.5t-45 60t-15.5 103z" />
    <glyph glyph-name="f_j" unicode="fj" horiz-adv-x="642" 
d="M86 55v325h-13q-55 0 -55 55v25q0 55 55 55h13v16q0 57 25 97.5t63.5 58.5t69.5 25t58 7h17q55 0 55 -55v-37q0 -50 -55 -55q-60 -5 -60 -50v-7h276q55 0 55 -55v-469q0 -58 -25.5 -100.5t-63.5 -62t-69.5 -28t-56.5 -8.5h-18q-55 0 -55 55v38q0 49 55 55q60 6 60 64v376
h-158v-325q0 -55 -55 -55h-63q-55 0 -55 55zM474 580q-55 0 -55 55v25q0 55 55 55h59q55 0 55 -55v-25q0 -55 -55 -55h-59z" />
    <glyph glyph-name=".notdef" horiz-adv-x="604" 
d="M52 55v590q0 55 55 55h390q55 0 55 -55v-590q0 -55 -55 -55h-390q-55 0 -55 55zM302 395l170 255h-340zM332 350l170 -255v510zM102 95l170 255l-170 255v-510zM132 50h340l-170 255z" />
    <glyph glyph-name=".null" horiz-adv-x="0" 
 />
    <glyph glyph-name="nonmarkingreturn" horiz-adv-x="333" 
 />
    <glyph glyph-name="space" unicode=" " horiz-adv-x="250" 
 />
    <glyph glyph-name="exclam" unicode="!" horiz-adv-x="286" 
d="M123 221q-54 0 -56 54l-12 384q-2 56 54 56h68q56 0 54 -56l-12 -384q-2 -54 -56 -54h-40zM64 55v40q0 55 55 55h48q55 0 55 -55v-40q0 -55 -55 -55h-48q-55 0 -55 55z" />
    <glyph glyph-name="quotedbl" unicode="&#x22;" horiz-adv-x="393" 
d="M286 490q-55 0 -55 55v130q0 55 55 55h12q55 0 55 -55v-130q0 -55 -55 -55h-12zM95 490q-55 0 -55 55v130q0 55 55 55h12q55 0 55 -55v-130q0 -55 -55 -55h-12z" />
    <glyph glyph-name="numbersign" unicode="#" horiz-adv-x="687" 
d="M104 59l21 121h-41q-28 0 -41.5 15.5t-8.5 43.5l2 11q8 50 59 50h50l17 95h-39q-28 0 -41.5 15.5t-8.5 43.5l2 11q8 50 58 50h49l26 150q9 50 60 50h23q28 0 41.5 -15.5t8.5 -43.5l-25 -141h108l26 150q9 50 60 50h23q28 0 41.5 -15.5t8.5 -43.5l-25 -141h45
q28 0 41.5 -15.5t8.5 -43.5l-2 -11q-8 -50 -59 -50h-54l-17 -95h43q28 0 41.5 -15.5t8.5 -43.5l-2 -11q-8 -50 -59 -50h-52l-22 -130q-9 -50 -60 -50h-23q-28 0 -41.5 15.5t-8.5 43.5l21 121h-108l-22 -130q-9 -50 -60 -50h-23q-28 0 -41.5 15.5t-8.5 43.5zM279 300h108
l17 95h-108z" />
    <glyph glyph-name="dollar" unicode="$" horiz-adv-x="570" 
d="M65 57q-43 29 -10 76l30 44q29 42 77 13q66 -41 126 -41q31 0 53 13.5t22 43.5q0 21 -33.5 40.5t-81.5 39t-95.5 45.5t-81 71.5t-33.5 105.5q0 82 53 139.5t138 73.5v39q0 55 52 55h6q51 0 51 -45v-46q81 -9 143 -48q42 -25 17 -75l-24 -47q-24 -47 -75 -19
q-54 31 -110 31q-31 0 -53.5 -14t-22.5 -42q0 -17 18 -31.5t46.5 -26.5t63.5 -25.5t69.5 -32.5t63 -42.5t46.5 -60t18 -81.5q0 -82 -53.5 -142.5t-146.5 -75.5v-36q0 -55 -51 -55h-6q-52 0 -52 45v46q-91 13 -164 65z" />
    <glyph glyph-name="percent" unicode="%" horiz-adv-x="851" 
d="M212 382q-76 0 -128.5 50t-52.5 122q0 71 53 122t128 51t128 -51t53 -122q0 -72 -53 -122t-128 -50zM123 67l475 615q24 33 67 33h25q35 0 45 -19.5t-12 -47.5l-475 -615q-24 -33 -67 -33h-25q-35 0 -45 19.5t12 47.5zM212 502q23 0 39 15.5t16 37.5q0 21 -16.5 36.5
t-38.5 15.5t-38.5 -15.5t-16.5 -36.5q0 -22 16 -37.5t39 -15.5zM458 160q0 71 53 122t128 51t128 -51t53 -122q0 -72 -53 -122t-128 -50q-76 0 -128.5 50t-52.5 122zM584 161q0 -22 16 -37.5t39 -15.5t39 15.5t16 37.5q0 21 -16.5 36.5t-38.5 15.5t-38.5 -15.5t-16.5 -36.5z
" />
    <glyph glyph-name="ampersand" unicode="&#x26;" horiz-adv-x="664" 
d="M30 207q0 55 31.5 102.5t82.5 68.5v2q-3 2 -9 5t-20.5 16t-25.5 29t-20 44t-9 60q0 97 68.5 145t167.5 48h36q55 0 55 -55v-35q0 -55 -55 -55h-21q-37 0 -55.5 -22t-18.5 -52q0 -29 19.5 -49t53.5 -20h87v33q0 55 55 55h62q55 0 55 -44v-44h34q55 0 55 -55v-40
q0 -55 -55 -55h-34v-69q0 -100 -73 -166t-200 -66q-120 0 -193 62.5t-73 156.5zM209 218q0 -29 25 -50t62 -21q48 0 74.5 23t26.5 60v59h-98q-90 0 -90 -71z" />
    <glyph glyph-name="quotesingle" unicode="'" horiz-adv-x="205" 
d="M95 490q-55 0 -55 55v130q0 55 55 55h15q55 0 55 -55v-130q0 -55 -55 -55h-15z" />
    <glyph glyph-name="parenleft" unicode="(" horiz-adv-x="301" 
d="M137 -62q-105 185 -105 409q0 192 101 366q21 37 66 37h25q32 0 42.5 -18t-3.5 -47q-78 -164 -78 -338q0 -192 82 -377q13 -29 2 -47t-42 -18h-28q-44 0 -62 33z" />
    <glyph glyph-name="parenright" unicode=")" horiz-adv-x="301" 
d="M35 -27q80 186 80 374q0 174 -78 338q-14 29 -4.5 47t40.5 18h28q45 0 66 -37q101 -174 101 -366q0 -222 -102 -405q-21 -37 -65 -37h-27q-32 0 -42.5 18.5t3.5 49.5z" />
    <glyph glyph-name="asterisk" unicode="*" horiz-adv-x="463" 
d="M128 343l-28 20q-46 34 -9 76l37 41v2l-53 11q-58 13 -39 67l10 33q19 54 69 33l51 -23l-5 54q-6 58 52 58h36q58 0 52 -56l-6 -56l50 22q54 24 71 -31l11 -33q17 -55 -37 -66l-56 -12v-2l37 -40q39 -42 -8 -77l-28 -21q-46 -34 -75 15l-28 48h-2l-26 -46
q-29 -51 -76 -17z" />
    <glyph glyph-name="plus" unicode="+" horiz-adv-x="630" 
d="M97 222q-55 0 -55 55v20q0 55 55 55h150v168q0 55 55 55h26q55 0 55 -55v-168h150q55 0 55 -55v-20q0 -55 -55 -55h-150v-167q0 -55 -55 -55h-26q-55 0 -55 55v167h-150z" />
    <glyph glyph-name="comma" unicode="," horiz-adv-x="256" 
d="M15 -49l45 168q13 47 62 47h47q31 0 43 -18t0 -46l-70 -170q-16 -43 -63 -43h-17q-30 0 -42.5 16.5t-4.5 45.5z" />
    <glyph glyph-name="hyphen" unicode="-" horiz-adv-x="412" 
d="M104 212q-55 0 -55 55v40q0 55 55 55h204q55 0 55 -55v-40q0 -55 -55 -55h-204z" />
    <glyph glyph-name="period" unicode="." horiz-adv-x="252" 
d="M44 55v54q0 55 55 55h54q55 0 55 -55v-54q0 -55 -55 -55h-54q-55 0 -55 55z" />
    <glyph glyph-name="slash" unicode="/" horiz-adv-x="422" 
d="M31 20l221 685q15 45 63 45h30q30 0 42.5 -17t3.5 -46l-221 -684q-15 -45 -63 -45h-30q-30 0 -42.5 17t-3.5 45z" />
    <glyph glyph-name="zero" unicode="0" horiz-adv-x="628" 
d="M314 -12q-74 0 -127.5 28.5t-83.5 80.5t-44 117t-14 145t14 144.5t44 116t83.5 79.5t127.5 28t127.5 -28t83.5 -79.5t44 -116t14 -144.5t-14 -145t-44 -117t-83.5 -80.5t-127.5 -28.5zM314 148q89 0 89 211q0 208 -89 208t-89 -208q0 -211 89 -211z" />
    <glyph glyph-name="one" unicode="1" horiz-adv-x="528" 
d="M40 55v40q0 55 55 55h97v298l1 55h-2q-10 -22 -22 -32l-9 -8q-40 -37 -77 3l-26 28q-38 40 2 78l124 116q30 27 68 27h57q55 0 55 -55v-510h98q55 0 55 -55v-40q0 -55 -55 -55h-366q-55 0 -55 55z" />
    <glyph glyph-name="two" unicode="2" horiz-adv-x="580" 
d="M36 55v22q0 62 23 115t57 87t74.5 65t74.5 52.5t57 46t23 48.5q0 35 -23 53t-54 18q-43 0 -76 -35q-43 -41 -78 -12l-39 31q-44 35 -14 74q81 107 223 107q98 0 171 -56.5t73 -162.5q0 -62 -30 -113t-73 -83.5t-86 -59t-75 -52t-34 -50.5h254q55 0 55 -55v-40
q0 -55 -55 -55h-389q-26 0 -42.5 14.5t-16.5 40.5z" />
    <glyph glyph-name="three" unicode="3" horiz-adv-x="566" 
d="M54 49q-41 29 -12 76l27 44q27 44 75 14q54 -30 102 -30q47 0 74.5 20.5t27.5 50.5q0 79 -133 79h-4q-43 0 -62 38l-5 10q-18 35 13 71l65 79q15 18 30.5 35t23.5 24l8 8v2q-23 -5 -68 -5h-116q-55 0 -55 55v40q0 55 55 55h341q55 0 55 -54v-16q0 -39 -25 -68l-120 -138
q79 -17 126 -74t47 -133q0 -64 -28 -118t-90 -90t-147 -36q-115 0 -205 61z" />
    <glyph glyph-name="four" unicode="4" horiz-adv-x="623" 
d="M69 173q-55 0 -55 55v14q0 39 20 68l233 369q23 36 66 36h116q55 0 55 -55v-342h30q55 0 55 -55v-35q0 -55 -42 -55h-43v-118q0 -55 -55 -55h-63q-55 0 -55 55v118h-262zM192 318h139v160l6 80h-2q-15 -44 -35 -74l-108 -164v-2z" />
    <glyph glyph-name="five" unicode="5" horiz-adv-x="570" 
d="M64 50q-42 28 -12 75l27 44q27 44 75 14q52 -30 100 -30q39 0 69.5 23.5t30.5 64.5t-32 65t-82 24q-30 0 -59 -9q-43 -13 -74 -1l-11 4q-45 18 -41 65l21 273q5 53 57 53h292q55 0 55 -55v-40q0 -55 -55 -55h-193l-4 -66l-4 -28h2q25 7 52 7q122 0 189 -66.5t67 -168.5
q0 -111 -74 -183t-191 -72q-116 0 -205 62z" />
    <glyph glyph-name="six" unicode="6" horiz-adv-x="610" 
d="M40 324q0 105 38.5 195.5t118 149t185.5 58.5q62 0 107 -13q51 -15 34 -69l-15 -47q-8 -27 -23 -34t-41 -3q-34 6 -50 6q-118 0 -157 -128h2q38 35 113 35q101 0 161.5 -69t60.5 -163q0 -99 -66.5 -176.5t-177.5 -77.5q-117 0 -203.5 88.5t-86.5 247.5zM220 280
q0 -46 33.5 -89t77.5 -43q31 0 51 23t20 60q0 42 -27.5 72t-88.5 30q-66 0 -66 -53z" />
    <glyph glyph-name="seven" unicode="7" horiz-adv-x="546" 
d="M84 65l220 436q11 22 21.5 38t15.5 21l5 6v2q-6 -3 -42 -3h-228q-55 0 -55 55v40q0 55 55 55h403q55 0 55 -55v-31q0 -37 -16 -68l-264 -521q-20 -40 -65 -40h-65q-32 0 -43 18t3 47z" />
    <glyph glyph-name="eight" unicode="8" horiz-adv-x="614" 
d="M39 204q0 98 103 178q-75 58 -75 141t61.5 143.5t176.5 60.5q107 0 177.5 -54t70.5 -145q0 -87 -74 -169q93 -59 93 -155q0 -87 -70.5 -151.5t-195.5 -64.5q-124 0 -195.5 64.5t-71.5 151.5zM358 419q26 41 26 86q0 72 -77 72q-69 0 -69 -58q0 -34 28 -54t92 -46z
M214 224q0 -38 26 -62t68 -24q37 0 61 19.5t24 52.5q0 29 -25.5 47t-93.5 47q-12 5 -19 8q-41 -43 -41 -88z" />
    <glyph glyph-name="nine" unicode="9" horiz-adv-x="610" 
d="M87 70l15 47q8 27 23 34t41 3q34 -6 50 -6q118 0 157 128h-2q-14 -14 -46.5 -24.5t-69.5 -10.5q-97 0 -158 71.5t-61 166.5q0 99 66.5 173.5t176.5 74.5q118 0 204.5 -88.5t86.5 -247.5q0 -105 -38 -195t-117.5 -149t-186.5 -59q-62 0 -107 13q-51 15 -34 69zM324 382
q66 0 66 53q0 46 -33.5 89t-77.5 43q-31 0 -51 -23t-20 -60q0 -42 27.5 -72t88.5 -30z" />
    <glyph glyph-name="colon" unicode=":" horiz-adv-x="265" 
d="M106 351q-55 0 -55 55v54q0 55 55 55h54q55 0 55 -55v-54q0 -55 -55 -55h-54zM51 55v54q0 55 55 55h54q55 0 55 -55v-54q0 -55 -55 -55h-54q-55 0 -55 55z" />
    <glyph glyph-name="semicolon" unicode=";" horiz-adv-x="280" 
d="M130 351q-55 0 -55 55v54q0 55 55 55h48q55 0 55 -55v-54q0 -55 -55 -55h-48zM19 -50l40 168q11 48 60 48h49q31 0 43 -17.5t1 -45.5l-63 -170q-16 -44 -63 -44h-19q-29 0 -42 16.5t-6 44.5z" />
    <glyph glyph-name="less" unicode="&#x3c;" horiz-adv-x="630" 
d="M93 216q-42 17 -42 64v15q0 47 42 64l398 176q29 13 46.5 1.5t17.5 -42.5v-29q0 -45 -43 -63l-287 -114v-2l287 -113q43 -18 43 -63v-29q0 -31 -17.5 -42.5t-46.5 0.5z" />
    <glyph glyph-name="equal" unicode="=" horiz-adv-x="630" 
d="M117 337q-55 0 -55 55v20q0 55 55 55h396q55 0 55 -55v-20q0 -55 -55 -55h-396zM117 107q-55 0 -55 55v20q0 55 55 55h396q55 0 55 -55v-20q0 -55 -55 -55h-396z" />
    <glyph glyph-name="greater" unicode="&#x3e;" horiz-adv-x="630" 
d="M75 81v29q0 45 43 63l287 113v2l-287 114q-43 18 -43 63v29q0 31 17.5 42.5t46.5 -0.5l398 -177q42 -17 42 -64v-15q0 -47 -42 -64l-398 -176q-29 -13 -46.5 -1.5t-17.5 42.5z" />
    <glyph glyph-name="question" unicode="?" horiz-adv-x="488" 
d="M171 221q-55 0 -55 55v10q0 36 24.5 69.5t54 55t54 49.5t24.5 54q0 25 -21 42t-50 17q-24 0 -52 -14q-54 -26 -81 13l-24 36q-32 47 9 73q75 49 166 49q92 0 162.5 -52.5t70.5 -143.5q0 -42 -15.5 -77.5t-39 -59.5t-47.5 -44t-43.5 -41.5t-24.5 -42.5l-3 -12
q-5 -20 -17 -28t-35 -8h-57zM120 55v40q0 55 55 55h48q55 0 55 -55v-40q0 -55 -55 -55h-48q-55 0 -55 55z" />
    <glyph glyph-name="at" unicode="@" horiz-adv-x="836" 
d="M38 239q0 159 112.5 267.5t280.5 108.5q156 0 227 -66.5t71 -173.5v-198h19q55 0 55 -55v-9q0 -55 -55 -55h-228q-106 0 -166.5 54t-60.5 128q0 72 59.5 124t167.5 52h49q0 30 -41.5 47t-93.5 17q-95 0 -161 -73.5t-66 -167.5q0 -88 52.5 -153.5t146.5 -81.5
q53 -9 53 -57v-21q0 -27 -15 -41.5t-42 -11.5q-168 16 -266 118t-98 248zM464 244q0 -29 17 -48t49 -19h39v134h-37q-33 0 -50.5 -19t-17.5 -48z" />
    <glyph glyph-name="A" unicode="A" horiz-adv-x="654" 
d="M13 63l207 607q15 45 62 45h90q47 0 62 -45l207 -607q10 -28 -2.5 -45.5t-42.5 -17.5h-66q-47 0 -62 46l-30 104h-223l-30 -104q-13 -46 -61 -46h-66q-30 0 -42.5 17.5t-2.5 45.5zM256 290h141l-40 139l-29 123h-2q-16 -78 -29 -123z" />
    <glyph glyph-name="B" unicode="B" horiz-adv-x="634" 
d="M69 55v605q0 55 55 55h208q110 0 176.5 -48.5t66.5 -138.5q0 -46 -22 -87.5t-61 -64.5v-2q57 -17 84.5 -62.5t27.5 -98.5q0 -109 -77 -161t-195 -52h-208q-55 0 -55 55zM244 438h90q31 0 47 19t16 47q0 27 -16.5 44t-49.5 17h-87v-127zM244 150h105q36 0 56 21.5t20 53.5
t-19 52.5t-56 20.5h-106v-148z" />
    <glyph glyph-name="C" unicode="C" horiz-adv-x="699" 
d="M32 359q0 158 105.5 263t269.5 105q131 0 229 -68q41 -29 12 -76l-25 -41q-27 -44 -75 -15q-69 40 -133 40q-100 0 -151 -59.5t-51 -144.5q0 -87 52.5 -151t149.5 -64q74 0 146 51q47 33 77 -10l28 -39q31 -46 -9 -77q-109 -85 -250 -85q-170 0 -272.5 104.5
t-102.5 266.5z" />
    <glyph glyph-name="D" unicode="D" horiz-adv-x="726" 
d="M69 55v605q0 55 55 55h199q170 0 269.5 -94.5t99.5 -261.5q0 -168 -99.5 -263.5t-269.5 -95.5h-199q-55 0 -55 55zM244 150h72q92 0 143.5 54t51.5 155q0 100 -52 153t-143 53h-72v-415z" />
    <glyph glyph-name="E" unicode="E" horiz-adv-x="560" 
d="M69 55v605q0 55 55 55h338q55 0 55 -55v-40q0 -55 -55 -55h-218v-130h163q55 0 55 -55v-40q0 -55 -55 -55h-163v-135h232q55 0 55 -55v-40q0 -55 -55 -55h-352q-55 0 -55 55z" />
    <glyph glyph-name="F" unicode="F" horiz-adv-x="524" 
d="M69 55v605q0 55 55 55h328q55 0 55 -55v-40q0 -55 -55 -55h-208v-150h163q55 0 55 -55v-40q0 -55 -55 -55h-163v-210q0 -55 -55 -55h-65q-55 0 -55 55z" />
    <glyph glyph-name="G" unicode="G" horiz-adv-x="759" 
d="M32 353q0 163 106 268.5t270 105.5q76 0 139 -20.5t93 -42.5q42 -31 14 -76l-26 -41q-26 -41 -76 -15q-68 35 -133 35q-101 0 -153.5 -58.5t-52.5 -145.5q0 -96 59 -155.5t144 -59.5q45 0 82 14.5t51 29.5l14 14v49h-46q-55 0 -55 55v39q0 55 55 55h146q55 0 55 -55v-294
q0 -55 -55 -55h-33q-26 0 -40.5 12t-14.5 31v2l1 10h-2q-3 -3 -8 -7.5t-22.5 -16t-37.5 -20.5t-53 -16t-69 -7q-144 0 -248 101t-104 264z" />
    <glyph glyph-name="H" unicode="H" horiz-adv-x="748" 
d="M69 55v605q0 55 55 55h65q55 0 55 -55v-231h260v231q0 55 55 55h65q55 0 55 -55v-605q0 -55 -55 -55h-65q-55 0 -55 55v225h-260v-225q0 -55 -55 -55h-65q-55 0 -55 55z" />
    <glyph glyph-name="I" unicode="I" horiz-adv-x="313" 
d="M69 55v605q0 55 55 55h65q55 0 55 -55v-605q0 -55 -55 -55h-65q-55 0 -55 55z" />
    <glyph glyph-name="J" unicode="J" horiz-adv-x="555" 
d="M13 217q0 55 55 55h67q27 0 38.5 -11.5t14.5 -39.5q3 -31 19.5 -52t45.5 -21q30 0 47 19t17 57v341h-137q-55 0 -55 55v40q0 55 55 55h257q55 0 55 -55v-440q0 -111 -71 -171.5t-168 -60.5t-168.5 61t-71.5 168z" />
    <glyph glyph-name="K" unicode="K" horiz-adv-x="664" 
d="M69 55v605q0 55 55 55h65q55 0 55 -55v-221h72l127 237q22 39 65 39h68q33 0 44 -18.5t-5 -47.5l-156 -276v-2l168 -305q16 -28 5 -47t-44 -19h-77q-43 0 -65 39l-130 251h-72v-235q0 -55 -55 -55h-65q-55 0 -55 55z" />
    <glyph glyph-name="L" unicode="L" horiz-adv-x="539" 
d="M69 55v605q0 55 55 55h65q55 0 55 -55v-510h237q55 0 55 -55v-40q0 -55 -55 -55h-357q-55 0 -55 55z" />
    <glyph glyph-name="M" unicode="M" horiz-adv-x="865" 
d="M48 57l50 605q5 53 57 53h90q47 0 62 -45l89 -257l36 -118h2q20 72 36 118l89 257q15 45 62 45h90q52 0 57 -53l49 -605q2 -27 -11.5 -42t-40.5 -15h-65q-52 0 -57 53l-18 269q-2 24 -2 54t1 48l1 18h-2q-24 -75 -40 -120l-59 -163q-16 -44 -63 -44h-56q-47 0 -63 44
l-59 163l-40 120h-2q4 -66 0 -120l-18 -269q-5 -53 -57 -53h-66q-27 0 -40.5 15t-11.5 42z" />
    <glyph glyph-name="N" unicode="N" horiz-adv-x="742" 
d="M69 55v605q0 55 55 55h78q45 0 66 -37l176 -297q12 -21 27 -51.5t24 -50.5l9 -20h2q-8 77 -8 122v279q0 55 55 55h65q55 0 55 -55v-605q0 -55 -55 -55h-78q-44 0 -65 37l-177 296q-12 21 -27 51.5t-24 50.5l-9 20h-2q8 -77 8 -122v-278q0 -55 -55 -55h-65q-55 0 -55 55z
" />
    <glyph glyph-name="O" unicode="O" horiz-adv-x="812" 
d="M32 362q0 156 105 260.5t269 104.5t269 -104.5t105 -260.5q0 -160 -105 -267t-269 -107t-269 107t-105 267zM213 362q0 -92 54.5 -153t138.5 -61t138.5 61t54.5 153q0 88 -54.5 146.5t-138.5 58.5t-138.5 -58.5t-54.5 -146.5z" />
    <glyph glyph-name="P" unicode="P" horiz-adv-x="616" 
d="M69 55v605q0 55 55 55h242q104 0 168.5 -69t64.5 -177q0 -109 -64.5 -178.5t-168.5 -69.5h-122v-166q0 -55 -55 -55h-65q-55 0 -55 55zM244 371h86q44 0 67.5 27t23.5 71t-23 70t-65 26h-89v-194z" />
    <glyph glyph-name="Q" unicode="Q" horiz-adv-x="811" 
d="M32 362q0 156 105 260.5t269 104.5t269 -104.5t105 -260.5q0 -111 -71 -212l31 -25q44 -36 7 -78l-25 -28q-38 -41 -73 -6l-37 34q-90 -59 -206 -59q-164 0 -269 107t-105 267zM213 362q0 -92 54.5 -153t138.5 -61q46 0 78 16l-32 28q-40 36 -5 77l25 28q37 42 73 8
l35 -35q19 44 19 92q0 88 -55 146.5t-138 58.5q-84 0 -138.5 -58.5t-54.5 -146.5z" />
    <glyph glyph-name="R" unicode="R" horiz-adv-x="640" 
d="M69 55v605q0 55 55 55h194q95 0 139 -17q62 -24 97 -77.5t35 -130.5q0 -60 -28 -114.5t-79 -80.5v-2q10 -13 27 -43l102 -184q16 -28 5 -47t-43 -19h-76q-43 0 -65 39l-106 202h-82v-186q0 -55 -55 -55h-65q-55 0 -55 55zM244 391h76q43 0 67 23t24 65q0 59 -42 76
q-23 10 -66 10h-59v-174z" />
    <glyph glyph-name="S" unicode="S" horiz-adv-x="567" 
d="M56 59q-40 33 -10 76l31 45q27 40 76 13q3 -1 16 -8.5t22.5 -12.5t25 -11t32 -9t34.5 -3q37 0 56.5 14t19.5 36q0 23 -23.5 42.5t-58.5 32.5t-76 33.5t-76 43.5t-58.5 63.5t-23.5 93.5q0 98 72.5 158.5t182.5 60.5q57 0 110.5 -16t82.5 -37q41 -29 17 -75l-24 -47
q-23 -45 -75 -19q-68 33 -113 33q-78 0 -78 -50q0 -24 23.5 -43t58.5 -32t76 -32t76 -41.5t58.5 -63t23.5 -93.5q0 -94 -67.5 -158.5t-183.5 -64.5q-68 0 -130.5 22t-96.5 49z" />
    <glyph glyph-name="T" unicode="T" horiz-adv-x="621" 
d="M223 55v510h-162q-55 0 -55 55v40q0 55 55 55h499q55 0 55 -55v-40q0 -55 -55 -55h-162v-510q0 -55 -55 -55h-65q-55 0 -55 55z" />
    <glyph glyph-name="U" unicode="U" horiz-adv-x="722" 
d="M62 263v397q0 55 55 55h65q55 0 55 -55v-397q0 -55 33.5 -85t90.5 -30t90.5 30t33.5 85v397q0 55 55 55h65q55 0 55 -55v-397q0 -122 -82 -198.5t-216 -76.5q-135 0 -217.5 76.5t-82.5 198.5z" />
    <glyph glyph-name="V" unicode="V" horiz-adv-x="660" 
d="M223 44l-215 608q-10 29 2 46t43 17h75q49 0 62 -46l112 -361q6 -20 13 -48.5t11 -47.5l3 -19h2q13 70 27 115l114 361q13 46 62 46h72q31 0 43 -17t2 -46l-214 -608q-16 -44 -63 -44h-88q-47 0 -63 44z" />
    <glyph glyph-name="W" unicode="W" horiz-adv-x="983" 
d="M175 48l-147 606q-7 29 6 45t42 16h71q50 0 60 -49l80 -398q4 -20 6.5 -38.5t2.5 -27.5v-9h2q1 31 12 75l98 399q12 48 61 48h43q50 0 60 -48l96 -399q5 -20 8 -38.5t4 -27.5v-9h2q0 31 9 75l87 399q10 48 61 48h68q29 0 42 -16t6 -45l-154 -607q-12 -47 -61 -47h-97
q-49 0 -61 48l-78 313l-14 84h-2q-3 -38 -14 -84l-78 -313q-12 -48 -61 -48h-99q-49 0 -61 48z" />
    <glyph glyph-name="X" unicode="X" horiz-adv-x="640" 
d="M39 66l177 289l-178 294q-17 29 -6.5 47.5t43.5 18.5h78q43 0 65 -39l57 -108l44 -92h2q19 46 44 92l58 108q22 39 65 39h78q33 0 43.5 -18.5t-6.5 -47.5l-179 -294l177 -289q18 -28 7.5 -47t-44.5 -19h-73q-43 0 -65 39l-61 111l-44 89h-2q-19 -44 -44 -89l-61 -111
q-22 -39 -65 -39h-72q-34 0 -44.5 19t6.5 47z" />
    <glyph glyph-name="Y" unicode="Y" horiz-adv-x="601" 
d="M213 55v238l-199 356q-16 29 -5 47.5t43 18.5h79q45 0 64 -41l62 -131l43 -103h2q20 54 43 103l61 131q19 41 64 41h79q32 0 43 -18.5t-5 -47.5l-199 -356v-238q0 -55 -55 -55h-65q-55 0 -55 55z" />
    <glyph glyph-name="Z" unicode="Z" horiz-adv-x="621" 
d="M30 55v17q0 39 22 69l254 360q14 20 27.5 36t20.5 23l7 6v2q-23 -3 -55 -3h-208q-55 0 -55 55v40q0 55 55 55h430q55 0 55 -54v-16q0 -39 -22 -69l-255 -362q-14 -20 -27.5 -36t-20.5 -22l-7 -7v-2q23 3 55 3h227q55 0 55 -55v-40q0 -55 -55 -55h-448q-55 0 -55 55z" />
    <glyph glyph-name="bracketleft" unicode="[" horiz-adv-x="332" 
d="M61 -40v735q0 55 55 55h136q55 0 55 -55v-10q0 -55 -51 -55h-51v-605h47q55 0 55 -55v-10q0 -55 -55 -55h-136q-55 0 -55 55z" />
    <glyph glyph-name="backslash" unicode="\" horiz-adv-x="422" 
d="M252 3l-221 684q-9 29 3.5 46t42.5 17h30q48 0 63 -45l221 -685q9 -28 -3.5 -45t-42.5 -17h-30q-48 0 -63 45z" />
    <glyph glyph-name="bracketright" unicode="]" horiz-adv-x="332" 
d="M25 -30q0 55 55 55h47v605h-47q-55 0 -55 55v10q0 55 55 55h136q55 0 55 -55v-735q0 -55 -55 -55h-136q-55 0 -55 55v10z" />
    <glyph glyph-name="asciicircum" unicode="^" horiz-adv-x="630" 
d="M128 241q-31 0 -43 17.5t0 46.5l158 368q17 42 64 42h15q47 0 64 -42l158 -368q12 -29 0 -46.5t-43 -17.5h-28q-47 0 -63 44l-96 256l-95 -256q-16 -44 -63 -44h-28z" />
    <glyph glyph-name="underscore" unicode="_" horiz-adv-x="584" 
d="M-6 -55q0 55 55 55h486q55 0 55 -55v-20q0 -55 -55 -55h-486q-55 0 -55 55v20z" />
    <glyph glyph-name="grave" unicode="`" horiz-adv-x="484" 
d="M275 761q-41 0 -67 33l-39 50q-22 27 -14.5 47t42.5 20h46q43 0 65 -39l28 -51q13 -23 7 -41.5t-32 -18.5h-36z" />
    <glyph glyph-name="a" unicode="a" horiz-adv-x="538" 
d="M16 145q0 49 27 85t71.5 55t92.5 27.5t100 8.5h15v9q0 57 -73 57q-43 0 -93 -23q-51 -22 -74 24l-12 25q-24 50 22 74q87 40 173 40q107 0 168.5 -56t61.5 -154v-262q0 -55 -55 -55h-48q-55 0 -55 56v4l1 10h-2q-2 -3 -6 -8.5t-18 -20t-30 -25t-42.5 -19.5t-55.5 -9
q-74 0 -121 45t-47 112zM187 161q0 -19 13 -31.5t36 -12.5q36 0 62 29t26 62v14h-16q-48 0 -84.5 -14.5t-36.5 -46.5z" />
    <glyph glyph-name="b" unicode="b" horiz-adv-x="620" 
d="M52 55v605q0 55 55 55h63q55 0 55 -55v-154l-2 -44h2q5 7 15.5 18t47 29t79.5 18q101 0 165 -74.5t64 -192.5q0 -122 -67.5 -197t-169.5 -75q-31 0 -57 7.5t-42 18t-27.5 21t-16.5 17.5l-4 8h-2q1 -4 1 -10v-4q0 -21 -14.5 -33.5t-40.5 -12.5h-49q-55 0 -55 55zM220 259
q0 -55 26 -91.5t73 -36.5q44 0 73.5 33t29.5 91q0 56 -28 91t-72 35q-43 0 -72.5 -32t-29.5 -90z" />
    <glyph glyph-name="c" unicode="c" horiz-adv-x="529" 
d="M22 258q0 110 77.5 189.5t209.5 79.5q97 0 166 -46q42 -27 12 -75l-17 -26q-25 -41 -74 -16q-38 19 -76 19q-58 0 -90.5 -36.5t-32.5 -86.5q0 -51 34 -89.5t95 -38.5q45 0 93 29q51 28 75 -19l13 -25q24 -49 -15 -75q-81 -54 -183 -54q-132 0 -209.5 79t-77.5 191z" />
    <glyph glyph-name="d" unicode="d" horiz-adv-x="620" 
d="M24 258q0 121 65.5 195t169.5 74q29 0 53.5 -5.5t39 -12.5t24.5 -14.5t14 -12.5l4 -6h2q-1 10 -1 23v161q0 55 55 55h63q55 0 55 -55v-605q0 -55 -55 -55h-52q-55 0 -55 50v6l1 7h-2q-2 -3 -5.5 -8t-16.5 -18t-28.5 -23t-42 -18t-56.5 -8q-105 0 -168.5 74.5t-63.5 195.5
zM198 258q0 -57 28 -92t73 -35q43 0 72 32t29 95q0 50 -26.5 86.5t-74.5 36.5q-43 0 -72 -33t-29 -90z" />
    <glyph glyph-name="e" unicode="e" horiz-adv-x="548" 
d="M22 258q0 116 73 192.5t195 76.5q111 0 174.5 -69.5t63.5 -176.5q0 -21 -17 -39t-41 -18h-271q9 -45 42.5 -68.5t77.5 -23.5q46 0 94 24q51 23 74 -21l14 -26q26 -50 -19 -75q-81 -46 -177 -46q-131 0 -207 80t-76 190zM203 323h154q0 33 -19.5 55t-51.5 22
q-66 0 -83 -77z" />
    <glyph glyph-name="f" unicode="f" horiz-adv-x="364" 
d="M86 55v316h-13q-55 0 -55 55v25q0 55 55 55h13v25q0 57 25 97.5t63.5 58.5t69.5 25t58 7h17q55 0 55 -55v-37q0 -50 -55 -55q-60 -5 -60 -50v-16h40q55 0 55 -55v-25q0 -55 -55 -55h-40v-316q0 -55 -55 -55h-63q-55 0 -55 55z" />
    <glyph glyph-name="g" unicode="g" horiz-adv-x="612" 
d="M104 -84q19 49 70 32q44 -14 92 -14q121 0 121 99v26l1 19h-2q-43 -63 -126 -63q-112 0 -173.5 76t-61.5 183q0 106 61 179.5t175 73.5q31 0 57 -7t40.5 -16.5t25 -19.5t14.5 -17l4 -7h2q-1 4 -1 10v2q0 19 14.5 31t40.5 12h47q55 0 55 -55v-413q0 -67 -25.5 -119
t-68 -81t-90.5 -43t-100 -14q-93 0 -153 25q-49 20 -30 71zM298 159q40 0 66.5 25.5t26.5 87.5q0 111 -100 111q-44 0 -68 -28.5t-24 -74.5q0 -52 25 -86.5t74 -34.5z" />
    <glyph glyph-name="h" unicode="h" horiz-adv-x="611" 
d="M52 55v605q0 55 55 55h63q55 0 55 -55v-171l-2 -44h2q22 38 64 60t93 22q185 0 185 -193v-279q0 -55 -55 -55h-63q-55 0 -55 55v247q0 68 -57 68q-54 0 -83 -38t-29 -100v-177q0 -55 -55 -55h-63q-55 0 -55 55z" />
    <glyph glyph-name="i" unicode="i" horiz-adv-x="275" 
d="M108 580q-55 0 -55 55v25q0 55 55 55h59q55 0 55 -55v-25q0 -55 -55 -55h-59zM51 55v405q0 55 55 55h63q55 0 55 -55v-405q0 -55 -55 -55h-63q-55 0 -55 55z" />
    <glyph glyph-name="j" unicode="j" horiz-adv-x="277" 
d="M109 580q-55 0 -55 55v25q0 55 55 55h59q55 0 55 -55v-25q0 -55 -55 -55h-59zM52 4v456q0 55 55 55h63q55 0 55 -55v-469q0 -58 -25.5 -100.5t-63.5 -62t-69.5 -28t-56.5 -8.5h-18q-55 0 -55 55v38q0 30 14.5 40.5t40.5 14.5q17 2 28.5 7t21.5 19.5t10 37.5z" />
    <glyph glyph-name="k" unicode="k" horiz-adv-x="570" 
d="M52 55v605q0 55 55 55h63q55 0 55 -55v-315h49l80 133q21 37 65 37h66q34 0 44 -19t-8 -47l-108 -168v-2l131 -213q17 -28 7 -47t-44 -19h-75q-43 0 -65 39l-88 161h-54v-145q0 -55 -55 -55h-63q-55 0 -55 55z" />
    <glyph glyph-name="l" unicode="l" horiz-adv-x="307" 
d="M49 190v470q0 55 55 55h63q55 0 55 -55v-462q0 -47 29 -51q40 -5 40 -47v-49q0 -56 -56 -56q-39 0 -67.5 6.5t-58 25.5t-45 60t-15.5 103z" />
    <glyph glyph-name="m" unicode="m" horiz-adv-x="892" 
d="M51 55v405q0 55 55 55h56q54 0 54 -55v-9l-1 -13h2q59 89 153 89q104 0 144 -87h2q22 36 66.5 61.5t98.5 25.5q76 0 121.5 -46t45.5 -147v-279q0 -55 -55 -55h-63q-55 0 -55 55v250q0 65 -40 65q-52 0 -75.5 -43.5t-23.5 -108.5v-163q0 -55 -55 -55h-63q-55 0 -55 55v250
q0 65 -40 65q-54 0 -76.5 -44t-22.5 -108v-163q0 -55 -55 -55h-63q-55 0 -55 55z" />
    <glyph glyph-name="n" unicode="n" horiz-adv-x="610" 
d="M51 55v405q0 55 55 55h56q54 0 54 -55v-9l-1 -13h2q53 89 164 89q185 0 185 -193v-279q0 -55 -55 -55h-63q-55 0 -55 55v247q0 68 -57 68q-55 0 -83.5 -39t-28.5 -98v-178q0 -55 -55 -55h-63q-55 0 -55 55z" />
    <glyph glyph-name="o" unicode="o" horiz-adv-x="628" 
d="M22 256q0 119 84 195t207 76q124 0 208.5 -75.5t84.5 -195.5q0 -119 -84 -193.5t-208 -74.5t-208 74.5t-84 193.5zM197 256q0 -56 34 -90t83 -34t83 34t34 90q0 57 -34 92t-83 35t-83 -35t-34 -92z" />
    <glyph glyph-name="p" unicode="p" horiz-adv-x="620" 
d="M52 -145v605q0 55 55 55h45q26 0 40.5 -12.5t14.5 -32.5v-11l-1 -10h2q2 3 6 8.5t18 19t30 23.5t43.5 18.5t58.5 8.5q105 0 168.5 -74.5t63.5 -195.5t-68 -195t-172 -74q-41 0 -74 15t-45 29l-12 15h-2q2 -18 2 -44v-148q0 -55 -55 -55h-63q-55 0 -55 55zM220 254
q0 -50 26.5 -86.5t74.5 -36.5q43 0 72 33t29 90t-28 92t-73 35q-43 0 -72 -32t-29 -95z" />
    <glyph glyph-name="q" unicode="q" horiz-adv-x="620" 
d="M24 258q0 121 66.5 195t171.5 74q31 0 58 -7t43 -17t27 -20.5t16 -17.5l4 -7h2q-1 4 -1 10v4q0 19 14.5 31t40.5 12h47q55 0 55 -55v-605q0 -55 -55 -55h-63q-55 0 -55 55v156l2 44h-2q-1 -3 -4.5 -7.5t-15.5 -16t-26.5 -20.5t-41 -16t-56.5 -7q-99 0 -163 75.5
t-64 194.5zM198 258q0 -57 28 -92t73 -35q43 0 72 32t29 95q0 50 -26.5 86.5t-74.5 36.5q-43 0 -72 -33t-29 -90z" />
    <glyph glyph-name="r" unicode="r" horiz-adv-x="405" 
d="M51 55v405q0 55 55 55h56q55 0 55 -55v-32l-2 -32h2q15 45 53.5 84.5t83.5 39.5q47 0 47 -55v-56q0 -55 -55 -55q-59 0 -90.5 -43.5t-31.5 -110.5v-145q0 -55 -55 -55h-63q-55 0 -55 55z" />
    <glyph glyph-name="s" unicode="s" horiz-adv-x="460" 
d="M51 35q-46 26 -14 76l15 23q27 39 76 16q61 -27 98 -27q47 0 47 29q0 16 -25 27t-60 22t-70.5 27t-60.5 51t-25 85q0 77 60.5 120t153.5 43q76 0 146 -33q45 -22 20 -74l-12 -24q-21 -44 -73 -24q-53 20 -88 20q-46 0 -46 -27q0 -16 25 -26.5t60.5 -21t70.5 -26.5t60 -50
t25 -84q0 -74 -57.5 -121.5t-154.5 -47.5q-90 0 -171 47z" />
    <glyph glyph-name="t" unicode="t" horiz-adv-x="399" 
d="M86 183v188h-15q-54 0 -54 55v25q0 55 55 55h19v93q0 55 55 55h58q55 0 55 -55v-93h53q55 0 55 -55v-25q0 -55 -54 -55h-54v-156q0 -57 60 -65q31 -4 43 -15.5t12 -39.5v-45q0 -55 -71 -55q-25 0 -52 4.5t-57 17.5t-53.5 33.5t-39 54.5t-15.5 78z" />
    <glyph glyph-name="u" unicode="u" horiz-adv-x="606" 
d="M45 181v279q0 55 55 55h63q55 0 55 -55v-247q0 -68 55 -68q53 0 81 40.5t28 101.5v173q0 55 55 55h63q55 0 55 -55v-405q0 -55 -55 -55h-56q-54 0 -54 55v9l1 13h-2q-21 -41 -65 -65t-96 -24q-84 0 -133.5 45.5t-49.5 147.5z" />
    <glyph glyph-name="v" unicode="v" horiz-adv-x="554" 
d="M157 45l-141 407q-10 29 2 46t43 17h67q48 0 61 -46l67 -228l19 -89h2q9 55 19 89l66 228q13 46 61 46h69q30 0 42.5 -17.5t2.5 -45.5l-139 -407q-15 -45 -62 -45h-117q-47 0 -62 45z" />
    <glyph glyph-name="w" unicode="w" horiz-adv-x="822" 
d="M135 47l-114 406q-8 29 5 45.5t42 16.5h68q50 0 60 -49l54 -255l6 -54h2q2 26 9 54l60 256q11 48 60 48h50q49 0 60 -48l60 -256l8 -54h2q1 26 7 54l54 255q10 49 60 49h66q29 0 42 -16.5t5 -45.5l-114 -406q-13 -47 -61 -47h-96q-49 0 -61 48l-46 190l-10 55h-2
q-3 -27 -10 -55l-46 -190q-12 -48 -61 -48h-98q-48 0 -61 47z" />
    <glyph glyph-name="x" unicode="x" horiz-adv-x="522" 
d="M39 66l120 189l-124 194q-18 28 -7.5 47t44.5 19h71q44 0 65 -40l36 -75l16 -34h2q10 21 16 34l36 75q21 40 65 40h71q34 0 44.5 -19t-7.5 -47l-123 -194l120 -189q18 -28 7.5 -47t-44.5 -19h-67q-43 0 -65 39l-41 77l-12 26h-2q-7 -17 -12 -26l-40 -77q-22 -39 -65 -39
h-67q-34 0 -44.5 19t7.5 47z" />
    <glyph glyph-name="y" unicode="y" horiz-adv-x="532" 
d="M30 -96q18 39 56 32q20 -5 30 -5q23 0 42.5 16t28.5 39l10 24l-191 441q-13 29 -1 46.5t43 17.5h78q48 0 63 -45l61 -192l19 -80h2q10 49 17 77l52 193q13 47 62 47h73q30 0 42 -17.5t2 -45.5l-188 -507q-30 -80 -88.5 -117.5t-126.5 -37.5q-35 0 -72 13q-24 8 -31 28
t4 44z" />
    <glyph glyph-name="z" unicode="z" horiz-adv-x="524" 
d="M24 43v13q0 30 24 61l165 206q12 14 23 26t16 17l6 4v2q-13 -2 -45 -2h-126q-55 0 -55 55v35q0 55 55 55h350q55 0 55 -43v-13q0 -30 -24 -61l-164 -207q-11 -14 -22.5 -25.5t-17.5 -16.5l-6 -5v-2q13 3 46 3h138q55 0 55 -55v-35q0 -55 -55 -55h-363q-55 0 -55 43z" />
    <glyph glyph-name="braceleft" unicode="{" horiz-adv-x="371" 
d="M104 62v98q0 57 -40 83q-24 14 -34.5 26t-10.5 34v56q0 22 10 34t34 27q41 23 41 85v88q0 47 19 81t47.5 50.5t54.5 23.5t48 7h18q55 0 55 -55v-20q0 -55 -55 -55q-43 0 -43 -53v-112q0 -29 -8.5 -52.5t-21 -36.5t-25 -22.5t-21.5 -12.5l-8 -3v-2l9 -3t20.5 -11.5
t25.5 -22t20 -36.5t9 -53v-122q0 -53 43 -53q55 0 55 -55v-20q0 -55 -55 -55h-18q-22 0 -48 7t-54.5 23.5t-47.5 50.5t-19 81z" />
    <glyph glyph-name="bar" unicode="|" horiz-adv-x="264" 
d="M60 -110v857q0 55 55 55h34q55 0 55 -55v-857q0 -55 -55 -55h-34q-55 0 -55 55z" />
    <glyph glyph-name="braceright" unicode="}" horiz-adv-x="372" 
d="M25 -25q0 55 55 55q43 0 43 53v122q0 29 8.5 53t21 37t25 21.5t20.5 11.5l9 3v2q-3 1 -9 3.5t-20.5 12t-25.5 22.5t-20 36.5t-9 52.5v112q0 53 -43 53q-55 0 -55 55v20q0 55 55 55h18q22 0 48 -7t54.5 -23.5t47.5 -50.5t19 -81v-88q0 -62 41 -85q24 -15 34 -27t10 -34
v-56q0 -22 -10.5 -34t-34.5 -26q-40 -26 -40 -83v-98q0 -47 -19 -81t-47.5 -50.5t-54.5 -23.5t-48 -7h-18q-55 0 -55 55v20z" />
    <glyph glyph-name="asciitilde" unicode="~" 
d="M90 191q-28 0 -42.5 17.5t-8.5 48.5q26 137 168 137q31 0 58.5 -12.5t43 -27.5t34.5 -27.5t36 -12.5q30 0 45 27q14 27 25 38t34 11h27q28 0 42.5 -15.5t10.5 -42.5q-23 -145 -169 -145q-31 0 -58.5 12.5t-43 27.5t-35 27.5t-36.5 12.5q-29 0 -44 -27q-14 -27 -25 -38
t-34 -11h-28z" />
    <glyph glyph-name="uni00A0" unicode="&#xa0;" horiz-adv-x="250" 
 />
    <glyph glyph-name="exclamdown" unicode="&#xa1;" horiz-adv-x="276" 
d="M158 294q54 0 56 -54l12 -384q2 -56 -54 -56h-68q-56 0 -54 56l12 384q2 54 56 54h40zM217 460v-40q0 -55 -55 -55h-48q-55 0 -55 55v40q0 55 55 55h48q55 0 55 -55z" />
    <glyph glyph-name="cent" unicode="&#xa2;" horiz-adv-x="570" 
d="M246 43v32q-91 21 -152 99.5t-61 183.5q0 104 61.5 183t151.5 100v30q0 55 52 55h6q52 0 52 -42v-43q52 -10 101.5 -46.5t68.5 -74.5q25 -50 -30 -71l-54 -21q-14 -5 -24 -6t-19 4t-14.5 10.5t-14.5 16.5q-27 31 -62 31q-40 0 -70.5 -35.5t-30.5 -94.5q0 -56 28.5 -89
t71.5 -33q36 0 63 31q12 14 18.5 19.5t22.5 10.5t31 -4l54 -21q55 -22 29 -72q-19 -38 -68 -77t-101 -44v-32q0 -55 -52 -55h-6q-52 0 -52 55z" />
    <glyph glyph-name="sterling" unicode="&#xa3;" horiz-adv-x="611" 
d="M50 55v40q0 55 55 55h5v149h-10q-50 0 -50 53v6q0 53 50 53h10v100q0 95 69 155.5t175 60.5q81 0 153 -49q45 -28 7 -76l-27 -35q-27 -37 -77 -11q-26 14 -51 14q-29 0 -49.5 -17.5t-20.5 -46.5v-95h110q55 0 55 -53v-6q0 -53 -55 -53h-110v-149h235q55 0 55 -55v-40
q0 -55 -55 -55h-419q-55 0 -55 55z" />
    <glyph glyph-name="yen" unicode="&#xa5;" horiz-adv-x="617" 
d="M111 167q-55 0 -55 45v6q0 45 55 45h108v28l-24 49h-84q-55 0 -55 45v6q0 45 46 45h46l-105 214q-14 28 -3 46.5t43 18.5h82q47 0 63 -44l37 -99l43 -133h2q19 67 43 133l37 99q16 44 63 44h81q32 0 43.5 -18.5t-2.5 -46.5l-106 -214h38q55 0 55 -45v-6q0 -45 -55 -45
h-85l-24 -49v-28h109q55 0 55 -45v-6q0 -45 -55 -45h-109v-112q0 -55 -55 -55h-69q-55 0 -55 55v112h-108z" />
    <glyph glyph-name="section" unicode="&#xa7;" horiz-adv-x="512" 
d="M122 226l-63 226q-10 37 -10 75q0 89 59.5 144.5t171.5 55.5q90 0 165 -45q45 -28 12 -76l-14 -20q-27 -39 -75 -16q-42 19 -86 19q-98 0 -98 -83q0 -30 10 -67l55 -198q8 -29 -4.5 -45.5t-42.5 -16.5h-19q-48 0 -61 47zM52 59l14 23q26 42 75 17q44 -24 91 -24
q98 0 98 94q0 32 -13 77l-50 178q-8 28 4.5 45t41.5 17h18q49 0 62 -47l61 -226q10 -37 10 -75q0 -89 -59.5 -144.5t-171.5 -55.5q-93 0 -166 46q-43 27 -15 75z" />
    <glyph glyph-name="dieresis" unicode="&#xa8;" horiz-adv-x="485" 
d="M339 771q-55 0 -55 55v30q0 55 55 55h16q55 0 55 -55v-30q0 -55 -55 -55h-16zM130 771q-55 0 -55 55v30q0 55 55 55h16q55 0 55 -55v-30q0 -55 -55 -55h-16z" />
    <glyph glyph-name="copyright" unicode="&#xa9;" horiz-adv-x="796" 
d="M37 358q0 153 105 260.5t255 107.5t256 -107.5t106 -260.5t-106 -261.5t-256 -108.5t-255 108.5t-105 261.5zM150 358q0 -112 71 -189.5t176 -77.5t177.5 77.5t72.5 189.5q0 111 -72 188t-178 77q-105 0 -176 -76.5t-71 -188.5zM226 355q0 79 51 133t125 54
q44 0 79 -19.5t52 -44.5q22 -33 -5 -56l-19 -16q-15 -11 -32.5 -7.5t-30.5 19.5q-17 19 -42 19t-43 -23t-18 -62q0 -37 16.5 -58t44.5 -21q31 0 51 22q27 30 54 8l18 -15q30 -25 5 -58q-18 -24 -52 -43t-78 -19q-74 0 -125 54t-51 133z" />
    <glyph glyph-name="ordfeminine" unicode="&#xaa;" horiz-adv-x="394" 
d="M148 383q-44 0 -75.5 28.5t-31.5 74.5q0 108 181 108h5v8q0 36 -46 36q-20 0 -42 -8q-45 -17 -57 16l-4 10q-15 35 33 54q39 15 89 15q70 0 107.5 -36t37.5 -99v-145q0 -55 -49 -55h-3q-49 0 -49 50v4h-2q-1 -2 -3 -6.5t-9.5 -15t-17.5 -18.5t-27 -14.5t-37 -6.5z
M181 472q18 0 31.5 14t13.5 31v5h-10q-58 0 -58 -30q0 -20 23 -20zM99 268q-55 0 -55 40v6q0 39 55 39h195q55 0 55 -39v-6q0 -40 -55 -40h-195z" />
    <glyph glyph-name="guillemotleft" unicode="&#xab;" horiz-adv-x="602" 
d="M309 243q-31 39 0 78l107 135q26 32 67 32h31q35 0 44.5 -20t-12.5 -47l-110 -139l110 -138q22 -27 14.5 -47t-39.5 -20h-38q-41 0 -67 32zM156 109l-107 134q-31 39 0 78l107 135q26 32 67 32h31q35 0 44.5 -20t-12.5 -47l-110 -139l110 -138q22 -27 14.5 -47t-39.5 -20
h-38q-41 0 -67 32z" />
    <glyph glyph-name="logicalnot" unicode="&#xac;" horiz-adv-x="602" 
d="M90 337q-55 0 -55 55v20q0 55 55 55h396q55 0 55 -55v-225q0 -55 -55 -55h-25q-55 0 -55 55v150h-316z" />
    <glyph glyph-name="uni00AD" unicode="&#xad;" horiz-adv-x="412" 
d="M104 212q-55 0 -55 55v40q0 55 55 55h204q55 0 55 -55v-40q0 -55 -55 -55h-204z" />
    <glyph glyph-name="registered" unicode="&#xae;" horiz-adv-x="796" 
d="M37 358q0 153 105 260.5t254 107.5q151 0 257 -107.5t106 -260.5t-106 -261.5t-257 -108.5q-148 0 -253.5 108.5t-105.5 261.5zM150 358q0 -112 71 -189.5t175 -77.5q106 0 178.5 77.5t72.5 189.5q0 111 -72.5 188t-178.5 77q-104 0 -175 -77t-71 -188zM266 242v237
q0 55 55 55h108q56 0 89 -31t33 -84q0 -37 -19.5 -60.5t-38.5 -28.5v-2q5 -4 13 -20l29 -56q15 -28 8 -46.5t-33 -18.5h-13q-47 0 -64 42l-31 76h-28v-63q0 -55 -51 -55h-6q-51 0 -51 55zM374 377h27q40 0 40 42q0 41 -38 41h-29v-83z" />
    <glyph glyph-name="macron" unicode="&#xaf;" horiz-adv-x="485" 
d="M160 782q-55 0 -55 52v8q0 52 55 52h165q55 0 55 -52v-8q0 -52 -55 -52h-165z" />
    <glyph glyph-name="degree" unicode="&#xb0;" horiz-adv-x="408" 
d="M204 385q-76 0 -128.5 50t-52.5 122q0 71 53 122t128 51t128 -51t53 -122q0 -72 -53 -122t-128 -50zM204 505q23 0 39 15.5t16 37.5q0 21 -16.5 36.5t-38.5 15.5t-38.5 -15.5t-16.5 -36.5q0 -22 16 -37.5t39 -15.5z" />
    <glyph glyph-name="plusminus" unicode="&#xb1;" horiz-adv-x="630" 
d="M97 222q-55 0 -55 55v20q0 55 55 55h150v168q0 55 55 55h26q55 0 55 -55v-168h150q55 0 55 -55v-20q0 -55 -55 -55h-150v-167q0 -55 -55 -55h-26q-55 0 -55 55v167h-150zM107 -70h416q55 0 55 -55v-20q0 -55 -55 -55h-416q-55 0 -55 55v20q0 55 55 55z" />
    <glyph glyph-name="twosuperior" unicode="&#xb2;" horiz-adv-x="381" 
d="M77 423q-55 0 -55 52q0 48 20.5 85.5t50 59t58.5 38.5t49.5 33.5t20.5 33.5q0 16 -13 25t-32 9q-17 0 -34 -10q-24 -15 -38.5 -16.5t-36.5 13.5l-7 6q-44 38 -3 74q56 48 128 48q64 0 113.5 -36.5t49.5 -106.5q0 -47 -27.5 -83.5t-61 -53t-63.5 -33.5t-33 -30h136
q55 0 55 -51v-6q0 -51 -55 -51h-222z" />
    <glyph glyph-name="threesuperior" unicode="&#xb3;" horiz-adv-x="369" 
d="M167 413q-70 0 -121 35q-41 26 -13 70l5 8q14 21 31 23.5t40 -9.5q24 -12 50 -12q25 0 39.5 12t14.5 30q0 16 -16.5 26t-38.5 10h-7q-37 0 -49 29t18 62l32 35l24 23v2q-21 -2 -34 -2h-55q-55 0 -55 52v6q0 51 55 51h184q55 0 55 -39v-7q0 -32 -26 -62l-57 -62
q97 -24 97 -126q0 -62 -46 -108.5t-127 -46.5z" />
    <glyph glyph-name="acute" unicode="&#xb4;" horiz-adv-x="484" 
d="M180 761q-28 0 -37 18t5 43l28 50q22 39 65 39h46q35 0 42.5 -20t-14.5 -47l-39 -50q-26 -33 -67 -33h-29z" />
    <glyph glyph-name="mu" unicode="&#xb5;" horiz-adv-x="648" 
d="M66 -145v605q0 55 55 55h63q55 0 55 -55v-247q0 -68 55 -68q53 0 81 40.5t28 101.5v173q0 55 55 55h63q55 0 55 -55v-405q0 -55 -55 -55h-56q-54 0 -54 55v9l1 13h-2q-21 -41 -65 -65t-96 -24l-42 4h-2q8 -48 8 -88v-49q0 -55 -55 -55h-37q-55 0 -55 55z" />
    <glyph glyph-name="paragraph" unicode="&#xb6;" horiz-adv-x="664" 
d="M264 5v236q-97 0 -165 69t-68 169t68 168t165 68h302q55 0 55 -55v-40q0 -55 -55 -55h-182v-560q0 -55 -55 -55h-10q-55 0 -55 55zM446 5v455q0 55 55 55h10q55 0 55 -55v-455q0 -55 -55 -55h-10q-55 0 -55 55z" />
    <glyph glyph-name="periodcentered" unicode="&#xb7;" horiz-adv-x="258" 
d="M105 213q-55 0 -55 55v54q0 55 55 55h48q55 0 55 -55v-54q0 -55 -55 -55h-48z" />
    <glyph glyph-name="cedilla" unicode="&#xb8;" horiz-adv-x="484" 
d="M176 -44l21 66h77l-13 -58q75 -8 75 -80q0 -50 -34 -72t-83 -22q-64 0 -64 41q0 21 7.5 32t16.5 11q5 0 13.5 -1t11.5 -1q27 0 27 24q0 21 -41 24q-25 1 -14 36z" />
    <glyph glyph-name="onesuperior" unicode="&#xb9;" horiz-adv-x="340" 
d="M82 423q-55 0 -55 51v6q0 51 45 51h44v143l3 32h-2q-3 -6 -9 -11l-7 -6q-8 -7 -20 -6t-22 11l-16 16q-36 36 7 75l55 52q30 27 68 27h14q55 0 55 -55v-278h35q55 0 55 -51v-6q0 -51 -55 -51h-195z" />
    <glyph glyph-name="ordmasculine" unicode="&#xba;" horiz-adv-x="438" 
d="M219 385q-77 0 -129.5 47.5t-52.5 122.5t52.5 122.5t128.5 47.5q78 0 131 -47.5t53 -122.5t-53 -122.5t-130 -47.5zM219 488q27 0 45 18t18 49q0 30 -18.5 49t-44.5 19t-44.5 -19t-18.5 -49q0 -31 18 -49t45 -18zM105 268q-55 0 -55 40v6q0 39 55 39h228q55 0 55 -39v-6
q0 -40 -55 -40h-228z" />
    <glyph glyph-name="guillemotright" unicode="&#xbb;" horiz-adv-x="602" 
d="M315 144l110 138l-110 139q-22 27 -14.5 47t39.5 20h38q41 0 67 -32l107 -135q32 -39 0 -78l-107 -134q-26 -32 -67 -32h-31q-35 0 -44.5 20t12.5 47zM87 77q-35 0 -44.5 20t12.5 47l110 138l-110 139q-22 27 -14.5 47t39.5 20h38q41 0 67 -32l107 -135q32 -39 0 -78
l-107 -134q-26 -32 -67 -32h-31z" />
    <glyph glyph-name="onequarter" unicode="&#xbc;" horiz-adv-x="1002" 
d="M845 0q-55 0 -55 55v32h-142q-55 0 -55 42v14q0 30 20 59l128 203q23 36 66 36h52q55 0 55 -55v-192h12q46 0 46 -50v-6q0 -51 -46 -51h-12v-32q0 -55 -55 -55h-14zM712 194h78v90l4 50h-2q-9 -27 -21 -46l-59 -92v-2zM401 41q-19 -41 -64 -41h-17q-26 0 -33.5 18t6.5 47
l287 609q19 41 64 41h17q26 0 33.5 -18t-6.5 -47zM96 274q-55 0 -55 51v6q0 51 45 51h44v143l3 32h-2q-3 -6 -9 -11l-7 -6q-8 -7 -20 -6t-22 11l-16 16q-36 36 7 75l55 52q30 27 68 27h14q55 0 55 -55v-278h35q55 0 55 -51v-6q0 -51 -55 -51h-195z" />
    <glyph glyph-name="onehalf" unicode="&#xbd;" horiz-adv-x="985" 
d="M400 41q-19 -41 -64 -41h-17q-26 0 -33.5 18t6.5 47l287 609q19 41 64 41h17q26 0 33.5 -18t-6.5 -47zM91 274q-55 0 -55 51v6q0 51 45 51h44v143l3 32h-2q-3 -6 -9 -11l-7 -6q-8 -7 -20 -6t-22 11l-16 16q-36 36 7 75l55 52q30 27 68 27h14q55 0 55 -55v-278h35
q55 0 55 -51v-6q0 -51 -55 -51h-195zM675 0q-55 0 -55 52q0 48 20.5 85.5t50 59t58.5 38.5t49.5 33.5t20.5 33.5q0 16 -13 25t-32 9q-17 0 -34 -10q-24 -15 -38.5 -16.5t-36.5 13.5l-7 6q-44 38 -3 74q56 48 128 48q64 0 113.5 -36.5t49.5 -106.5q0 -47 -27.5 -83.5t-61 -53
t-63.5 -33.5t-33 -30h136q55 0 55 -51v-6q0 -51 -55 -51h-222z" />
    <glyph glyph-name="threequarters" unicode="&#xbe;" horiz-adv-x="1008" 
d="M182 264q-70 0 -121 35q-41 26 -13 70l5 8q14 21 31 23.5t40 -9.5q24 -12 50 -12q25 0 39.5 12t14.5 30q0 16 -16.5 26t-38.5 10h-7q-37 0 -49 29t18 62l32 35l24 23v2q-21 -2 -34 -2h-55q-55 0 -55 52v6q0 51 55 51h184q55 0 55 -39v-7q0 -32 -26 -62l-57 -62
q97 -24 97 -126q0 -62 -46 -108.5t-127 -46.5zM407 41q-19 -41 -64 -41h-17q-26 0 -33.5 18t6.5 47l287 609q19 41 64 41h17q26 0 33.5 -18t-6.5 -47zM851 0q-55 0 -55 55v32h-142q-55 0 -55 42v14q0 30 20 59l128 203q23 36 66 36h52q55 0 55 -55v-192h12q46 0 46 -50v-6
q0 -51 -46 -51h-12v-32q0 -55 -55 -55h-14zM718 194h78v90l4 50h-2q-9 -27 -21 -46l-59 -92v-2z" />
    <glyph glyph-name="questiondown" unicode="&#xbf;" horiz-adv-x="478" 
d="M310 294q55 0 55 -55v-10q0 -36 -24.5 -69.5t-54 -55t-54 -49.5t-24.5 -54q0 -25 21 -42t50 -17q24 0 52 14q54 26 81 -13l24 -36q32 -47 -9 -73q-75 -49 -166 -49q-92 0 -162.5 52.5t-70.5 143.5q0 42 15.5 77.5t39 59.5t47.5 44t43.5 41.5t24.5 42.5l3 12q5 20 17 28
t35 8h57zM361 460v-40q0 -55 -55 -55h-48q-55 0 -55 55v40q0 55 55 55h48q55 0 55 -55z" />
    <glyph glyph-name="Agrave" unicode="&#xc0;" horiz-adv-x="654" 
d="M13 63l207 607q15 45 62 45h90q47 0 62 -45l207 -607q10 -28 -2.5 -45.5t-42.5 -17.5h-66q-47 0 -62 46l-30 104h-223l-30 -104q-13 -46 -61 -46h-66q-30 0 -42.5 17.5t-2.5 45.5zM256 290h141l-40 139l-29 123h-2q-16 -78 -29 -123zM306 761q-41 0 -67 33l-39 50
q-22 27 -14.5 47t42.5 20h46q43 0 65 -39l28 -51q13 -23 7 -41.5t-32 -18.5h-36z" />
    <glyph glyph-name="Aacute" unicode="&#xc1;" horiz-adv-x="654" 
d="M13 63l207 607q15 45 62 45h90q47 0 62 -45l207 -607q10 -28 -2.5 -45.5t-42.5 -17.5h-66q-47 0 -62 46l-30 104h-223l-30 -104q-13 -46 -61 -46h-66q-30 0 -42.5 17.5t-2.5 45.5zM256 290h141l-40 139l-29 123h-2q-16 -78 -29 -123zM319 761q-28 0 -37 18t5 43l28 50
q22 39 65 39h46q35 0 42.5 -20t-14.5 -47l-39 -50q-26 -33 -67 -33h-29z" />
    <glyph glyph-name="Acircumflex" unicode="&#xc2;" horiz-adv-x="654" 
d="M13 63l207 607q15 45 62 45h90q47 0 62 -45l207 -607q10 -28 -2.5 -45.5t-42.5 -17.5h-66q-47 0 -62 46l-30 104h-223l-30 -104q-13 -46 -61 -46h-66q-30 0 -42.5 17.5t-2.5 45.5zM256 290h141l-40 139l-29 123h-2q-16 -78 -29 -123zM211 761q-29 0 -35.5 19.5t12.5 47.5
l31 47q24 36 67 36h82q43 0 67 -36l31 -47q19 -28 12.5 -47.5t-35.5 -19.5h-34q-22 0 -33 8.5t-23 29.5l-25 44h-2l-25 -44q-12 -21 -23 -29.5t-33 -8.5h-34z" />
    <glyph glyph-name="Atilde" unicode="&#xc3;" horiz-adv-x="654" 
d="M13 63l207 607q15 45 62 45h90q47 0 62 -45l207 -607q10 -28 -2.5 -45.5t-42.5 -17.5h-66q-47 0 -62 46l-30 104h-223l-30 -104q-13 -46 -61 -46h-66q-30 0 -42.5 17.5t-2.5 45.5zM256 290h141l-40 139l-29 123h-2q-16 -78 -29 -123zM179 761q-48 0 -48 46q0 43 32 75
t80 32q34 0 61 -15t46.5 -30t34.5 -15q29 0 33 30q3 27 46 27h12q48 0 48 -43q0 -48 -31 -79t-80 -31q-34 0 -61.5 15t-47 30t-34.5 15t-24.5 -9t-11.5 -23q-5 -25 -43 -25h-12z" />
    <glyph glyph-name="Adieresis" unicode="&#xc4;" horiz-adv-x="654" 
d="M13 63l207 607q15 45 62 45h90q47 0 62 -45l207 -607q10 -28 -2.5 -45.5t-42.5 -17.5h-66q-47 0 -62 46l-30 104h-223l-30 -104q-13 -46 -61 -46h-66q-30 0 -42.5 17.5t-2.5 45.5zM256 290h141l-40 139l-29 123h-2q-16 -78 -29 -123zM424 771q-55 0 -55 55v30q0 55 55 55
h16q55 0 55 -55v-30q0 -55 -55 -55h-16zM215 771q-55 0 -55 55v30q0 55 55 55h16q55 0 55 -55v-30q0 -55 -55 -55h-16z" />
    <glyph glyph-name="Aring" unicode="&#xc5;" horiz-adv-x="654" 
d="M13 63l207 607q15 45 62 45h90q47 0 62 -45l207 -607q10 -28 -2.5 -45.5t-42.5 -17.5h-66q-47 0 -62 46l-30 104h-223l-30 -104q-13 -46 -61 -46h-66q-30 0 -42.5 17.5t-2.5 45.5zM256 290h141l-40 139l-29 123h-2q-16 -78 -29 -123zM327 747q-44 0 -76.5 22t-32.5 63
t32.5 63.5t76.5 22.5t77 -22.5t33 -63.5t-33 -63t-77 -22zM327 797q16 0 25.5 9.5t9.5 25.5t-9.5 26t-25.5 10q-15 0 -24.5 -10t-9.5 -26t9 -25.5t25 -9.5z" />
    <glyph glyph-name="AE" unicode="&#xc6;" horiz-adv-x="929" 
d="M5 64l254 609q17 42 64 42h509q55 0 55 -55v-40q0 -55 -55 -55h-218v-130h163q55 0 55 -55v-40q0 -55 -55 -55h-163v-135h231q55 0 55 -55v-40q0 -55 -55 -55h-351q-55 0 -55 55v233h-168l-94 -245q-18 -43 -63 -43h-67q-31 0 -42.5 18t0.5 46zM325 428h114v137h-61z" />
    <glyph glyph-name="Ccedilla" unicode="&#xc7;" horiz-adv-x="701" 
d="M342 -44l11 35q-147 17 -233.5 118.5t-86.5 249.5q0 158 105.5 263t269.5 105q131 0 229 -68q41 -29 12 -76l-25 -41q-27 -44 -75 -15q-69 40 -133 40q-100 0 -151 -59.5t-51 -144.5q0 -87 52.5 -151t149.5 -64q74 0 146 51q47 33 77 -10l28 -39q31 -46 -9 -77
q-98 -77 -226 -84l-5 -25q75 -8 75 -80q0 -50 -34 -72t-83 -22q-64 0 -64 41q0 21 7.5 32t16.5 11q5 0 13.5 -1t11.5 -1q27 0 27 24q0 21 -41 24q-25 1 -14 36z" />
    <glyph glyph-name="Egrave" unicode="&#xc8;" horiz-adv-x="560" 
d="M69 55v605q0 55 55 55h338q55 0 55 -55v-40q0 -55 -55 -55h-218v-130h163q55 0 55 -55v-40q0 -55 -55 -55h-163v-135h232q55 0 55 -55v-40q0 -55 -55 -55h-352q-55 0 -55 55zM280 761q-41 0 -67 33l-39 50q-22 27 -14.5 47t42.5 20h46q43 0 65 -39l28 -51q13 -23 7 -41.5
t-32 -18.5h-36z" />
    <glyph glyph-name="Eacute" unicode="&#xc9;" horiz-adv-x="560" 
d="M69 55v605q0 55 55 55h338q55 0 55 -55v-40q0 -55 -55 -55h-218v-130h163q55 0 55 -55v-40q0 -55 -55 -55h-163v-135h232q55 0 55 -55v-40q0 -55 -55 -55h-352q-55 0 -55 55zM293 761q-28 0 -37 18t5 43l28 50q22 39 65 39h46q35 0 42.5 -20t-14.5 -47l-39 -50
q-26 -33 -67 -33h-29z" />
    <glyph glyph-name="Ecircumflex" unicode="&#xca;" horiz-adv-x="560" 
d="M69 55v605q0 55 55 55h338q55 0 55 -55v-40q0 -55 -55 -55h-218v-130h163q55 0 55 -55v-40q0 -55 -55 -55h-163v-135h232q55 0 55 -55v-40q0 -55 -55 -55h-352q-55 0 -55 55zM185 761q-29 0 -35.5 19.5t12.5 47.5l31 47q24 36 67 36h82q43 0 67 -36l31 -47
q19 -28 12.5 -47.5t-35.5 -19.5h-34q-22 0 -33 8.5t-23 29.5l-25 44h-2l-25 -44q-12 -21 -23 -29.5t-33 -8.5h-34z" />
    <glyph glyph-name="Edieresis" unicode="&#xcb;" horiz-adv-x="560" 
d="M69 55v605q0 55 55 55h338q55 0 55 -55v-40q0 -55 -55 -55h-218v-130h163q55 0 55 -55v-40q0 -55 -55 -55h-163v-135h232q55 0 55 -55v-40q0 -55 -55 -55h-352q-55 0 -55 55zM398 771q-55 0 -55 55v30q0 55 55 55h16q55 0 55 -55v-30q0 -55 -55 -55h-16zM189 771
q-55 0 -55 55v30q0 55 55 55h16q55 0 55 -55v-30q0 -55 -55 -55h-16z" />
    <glyph glyph-name="Igrave" unicode="&#xcc;" horiz-adv-x="313" 
d="M69 55v605q0 55 55 55h65q55 0 55 -55v-605q0 -55 -55 -55h-65q-55 0 -55 55zM136 761q-41 0 -67 33l-39 50q-22 27 -14.5 47t42.5 20h46q43 0 65 -39l28 -51q13 -23 7 -41.5t-32 -18.5h-36z" />
    <glyph glyph-name="Iacute" unicode="&#xcd;" horiz-adv-x="313" 
d="M69 55v605q0 55 55 55h65q55 0 55 -55v-605q0 -55 -55 -55h-65q-55 0 -55 55zM149 761q-28 0 -37 18t5 43l28 50q22 39 65 39h46q35 0 42.5 -20t-14.5 -47l-39 -50q-26 -33 -67 -33h-29z" />
    <glyph glyph-name="Icircumflex" unicode="&#xce;" horiz-adv-x="313" 
d="M69 55v605q0 55 55 55h65q55 0 55 -55v-605q0 -55 -55 -55h-65q-55 0 -55 55zM41 761q-29 0 -35.5 19.5t12.5 47.5l31 47q24 36 67 36h82q43 0 67 -36l31 -47q19 -28 12.5 -47.5t-35.5 -19.5h-34q-22 0 -33 8.5t-23 29.5l-25 44h-2l-25 -44q-12 -21 -23 -29.5t-33 -8.5
h-34z" />
    <glyph glyph-name="Idieresis" unicode="&#xcf;" horiz-adv-x="313" 
d="M69 55v605q0 55 55 55h65q55 0 55 -55v-605q0 -55 -55 -55h-65q-55 0 -55 55zM254 771q-55 0 -55 55v30q0 55 55 55h16q55 0 55 -55v-30q0 -55 -55 -55h-16zM45 771q-55 0 -55 55v30q0 55 55 55h16q55 0 55 -55v-30q0 -55 -55 -55h-16z" />
    <glyph glyph-name="Eth" unicode="&#xd0;" horiz-adv-x="728" 
d="M71 55v229h-2q-55 0 -55 55v30q0 55 29 55h28v236q0 55 55 55h199q170 0 269.5 -94.5t99.5 -261.5q0 -168 -99.5 -263.5t-269.5 -95.5h-199q-55 0 -55 55zM246 150h72q92 0 143.5 54t51.5 155q0 100 -52 153t-143 53h-72v-141h49q55 0 55 -55v-30q0 -55 -52 -55h-52v-134
z" />
    <glyph glyph-name="Ntilde" unicode="&#xd1;" horiz-adv-x="742" 
d="M69 55v605q0 55 55 55h78q45 0 66 -37l176 -297q12 -21 27 -51.5t24 -50.5l9 -20h2q-8 77 -8 122v279q0 55 55 55h65q55 0 55 -55v-605q0 -55 -55 -55h-78q-44 0 -65 37l-177 296q-12 21 -27 51.5t-24 50.5l-9 20h-2q8 -77 8 -122v-278q0 -55 -55 -55h-65q-55 0 -55 55z
M223 761q-48 0 -48 46q0 43 32 75t80 32q34 0 61 -15t46.5 -30t34.5 -15q29 0 33 30q3 27 46 27h12q48 0 48 -43q0 -48 -31 -79t-80 -31q-34 0 -61.5 15t-47 30t-34.5 15t-24.5 -9t-11.5 -23q-5 -25 -43 -25h-12z" />
    <glyph glyph-name="Ograve" unicode="&#xd2;" horiz-adv-x="812" 
d="M32 362q0 156 105 260.5t269 104.5t269 -104.5t105 -260.5q0 -160 -105 -267t-269 -107t-269 107t-105 267zM213 362q0 -92 54.5 -153t138.5 -61t138.5 61t54.5 153q0 88 -54.5 146.5t-138.5 58.5t-138.5 -58.5t-54.5 -146.5zM385 761q-41 0 -67 33l-39 50
q-22 27 -14.5 47t42.5 20h46q43 0 65 -39l28 -51q13 -23 7 -41.5t-32 -18.5h-36z" />
    <glyph glyph-name="Oacute" unicode="&#xd3;" horiz-adv-x="812" 
d="M32 362q0 156 105 260.5t269 104.5t269 -104.5t105 -260.5q0 -160 -105 -267t-269 -107t-269 107t-105 267zM213 362q0 -92 54.5 -153t138.5 -61t138.5 61t54.5 153q0 88 -54.5 146.5t-138.5 58.5t-138.5 -58.5t-54.5 -146.5zM398 761q-28 0 -37 18t5 43l28 50
q22 39 65 39h46q35 0 42.5 -20t-14.5 -47l-39 -50q-26 -33 -67 -33h-29z" />
    <glyph glyph-name="Ocircumflex" unicode="&#xd4;" horiz-adv-x="812" 
d="M32 362q0 156 105 260.5t269 104.5t269 -104.5t105 -260.5q0 -160 -105 -267t-269 -107t-269 107t-105 267zM213 362q0 -92 54.5 -153t138.5 -61t138.5 61t54.5 153q0 88 -54.5 146.5t-138.5 58.5t-138.5 -58.5t-54.5 -146.5zM290 761q-29 0 -35.5 19.5t12.5 47.5l31 47
q24 36 67 36h82q43 0 67 -36l31 -47q19 -28 12.5 -47.5t-35.5 -19.5h-34q-22 0 -33 8.5t-23 29.5l-25 44h-2l-25 -44q-12 -21 -23 -29.5t-33 -8.5h-34z" />
    <glyph glyph-name="Otilde" unicode="&#xd5;" horiz-adv-x="812" 
d="M32 362q0 156 105 260.5t269 104.5t269 -104.5t105 -260.5q0 -160 -105 -267t-269 -107t-269 107t-105 267zM213 362q0 -92 54.5 -153t138.5 -61t138.5 61t54.5 153q0 88 -54.5 146.5t-138.5 58.5t-138.5 -58.5t-54.5 -146.5zM258 761q-48 0 -48 46q0 43 32 75t80 32
q34 0 61 -15t46.5 -30t34.5 -15q29 0 33 30q3 27 46 27h12q48 0 48 -43q0 -48 -31 -79t-80 -31q-34 0 -61.5 15t-47 30t-34.5 15t-24.5 -9t-11.5 -23q-5 -25 -43 -25h-12z" />
    <glyph glyph-name="Odieresis" unicode="&#xd6;" horiz-adv-x="812" 
d="M32 362q0 156 105 260.5t269 104.5t269 -104.5t105 -260.5q0 -160 -105 -267t-269 -107t-269 107t-105 267zM213 362q0 -92 54.5 -153t138.5 -61t138.5 61t54.5 153q0 88 -54.5 146.5t-138.5 58.5t-138.5 -58.5t-54.5 -146.5zM503 771q-55 0 -55 55v30q0 55 55 55h16
q55 0 55 -55v-30q0 -55 -55 -55h-16zM294 771q-55 0 -55 55v30q0 55 55 55h16q55 0 55 -55v-30q0 -55 -55 -55h-16z" />
    <glyph glyph-name="multiply" unicode="&#xd7;" horiz-adv-x="630" 
d="M81 54q-38 38 -1 78l145 155l-145 156q-37 40 1 78l14 14q41 41 78 -1l141 -152l142 152q37 42 78 1l14 -14q38 -38 1 -78l-146 -156l146 -155q37 -40 -1 -78l-14 -14q-41 -41 -78 1l-142 151l-141 -151q-37 -42 -78 -1z" />
    <glyph glyph-name="Oslash" unicode="&#xd8;" horiz-adv-x="811" 
d="M124 53l24 33q-116 108 -116 276q0 155 106.5 260t267.5 105q98 0 176 -40l9 13q32 43 67 20q35 -25 15 -51l-20 -28q127 -108 127 -279q0 -159 -106.5 -266.5t-267.5 -107.5q-105 0 -190 48l-14 -20q-32 -44 -67 -20q-36 25 -11 57zM252 230l232 320q-37 17 -78 17
q-81 0 -137 -58.5t-56 -146.5q0 -77 39 -132zM314 172q43 -24 92 -24q81 0 137 61t56 153q0 81 -48 137z" />
    <glyph glyph-name="Ugrave" unicode="&#xd9;" horiz-adv-x="722" 
d="M62 263v397q0 55 55 55h65q55 0 55 -55v-397q0 -55 33.5 -85t90.5 -30t90.5 30t33.5 85v397q0 55 55 55h65q55 0 55 -55v-397q0 -122 -82 -198.5t-216 -76.5q-135 0 -217.5 76.5t-82.5 198.5zM340 761q-41 0 -67 33l-39 50q-22 27 -14.5 47t42.5 20h46q43 0 65 -39
l28 -51q13 -23 7 -41.5t-32 -18.5h-36z" />
    <glyph glyph-name="Uacute" unicode="&#xda;" horiz-adv-x="722" 
d="M62 263v397q0 55 55 55h65q55 0 55 -55v-397q0 -55 33.5 -85t90.5 -30t90.5 30t33.5 85v397q0 55 55 55h65q55 0 55 -55v-397q0 -122 -82 -198.5t-216 -76.5q-135 0 -217.5 76.5t-82.5 198.5zM353 761q-28 0 -37 18t5 43l28 50q22 39 65 39h46q35 0 42.5 -20t-14.5 -47
l-39 -50q-26 -33 -67 -33h-29z" />
    <glyph glyph-name="Ucircumflex" unicode="&#xdb;" horiz-adv-x="722" 
d="M62 263v397q0 55 55 55h65q55 0 55 -55v-397q0 -55 33.5 -85t90.5 -30t90.5 30t33.5 85v397q0 55 55 55h65q55 0 55 -55v-397q0 -122 -82 -198.5t-216 -76.5q-135 0 -217.5 76.5t-82.5 198.5zM245 761q-29 0 -35.5 19.5t12.5 47.5l31 47q24 36 67 36h82q43 0 67 -36
l31 -47q19 -28 12.5 -47.5t-35.5 -19.5h-34q-22 0 -33 8.5t-23 29.5l-25 44h-2l-25 -44q-12 -21 -23 -29.5t-33 -8.5h-34z" />
    <glyph glyph-name="Udieresis" unicode="&#xdc;" horiz-adv-x="722" 
d="M62 263v397q0 55 55 55h65q55 0 55 -55v-397q0 -55 33.5 -85t90.5 -30t90.5 30t33.5 85v397q0 55 55 55h65q55 0 55 -55v-397q0 -122 -82 -198.5t-216 -76.5q-135 0 -217.5 76.5t-82.5 198.5zM458 771q-55 0 -55 55v30q0 55 55 55h16q55 0 55 -55v-30q0 -55 -55 -55h-16z
M249 771q-55 0 -55 55v30q0 55 55 55h16q55 0 55 -55v-30q0 -55 -55 -55h-16z" />
    <glyph glyph-name="Yacute" unicode="&#xdd;" horiz-adv-x="601" 
d="M213 55v238l-199 356q-16 29 -5 47.5t43 18.5h79q45 0 64 -41l62 -131l43 -103h2q20 54 43 103l61 131q19 41 64 41h79q32 0 43 -18.5t-5 -47.5l-199 -356v-238q0 -55 -55 -55h-65q-55 0 -55 55zM293 761q-28 0 -37 18t5 43l28 50q22 39 65 39h46q35 0 42.5 -20
t-14.5 -47l-39 -50q-26 -33 -67 -33h-29z" />
    <glyph glyph-name="Thorn" unicode="&#xde;" horiz-adv-x="617" 
d="M69 55v605q0 55 55 55h65q55 0 55 -53v-53h122q104 0 168.5 -69t64.5 -177q0 -109 -64.5 -178.5t-168.5 -69.5h-122v-60q0 -55 -55 -55h-65q-55 0 -55 55zM244 265h86q44 0 67.5 27t23.5 71t-23 70t-65 26h-89v-194z" />
    <glyph glyph-name="germandbls" unicode="&#xdf;" horiz-adv-x="620" 
d="M52 55v472q0 94 75 147t180 53q94 0 162.5 -54.5t68.5 -138.5q0 -34 -18 -62.5t-36 -52t-18 -45.5q0 -16 21 -35.5t46 -38t46 -54t21 -78.5q0 -84 -56 -129.5t-138 -45.5q-46 0 -79 7q-45 8 -45 61v33q0 29 12 41t35 7t48 -5q50 0 50 42q0 15 -21 34t-46.5 37t-46.5 50
t-21 70q0 31 18 60t36 54t18 46q0 24 -16.5 38.5t-45.5 14.5q-77 0 -77 -68v-460q0 -55 -55 -55h-63q-55 0 -55 55z" />
    <glyph glyph-name="agrave" unicode="&#xe0;" horiz-adv-x="538" 
d="M16 145q0 49 27 85t71.5 55t92.5 27.5t100 8.5h15v9q0 57 -73 57q-43 0 -93 -23q-51 -22 -74 24l-12 25q-24 50 22 74q87 40 173 40q107 0 168.5 -56t61.5 -154v-262q0 -55 -55 -55h-48q-55 0 -55 56v4l1 10h-2q-2 -3 -6 -8.5t-18 -20t-30 -25t-42.5 -19.5t-55.5 -9
q-74 0 -121 45t-47 112zM187 161q0 -19 13 -31.5t36 -12.5q36 0 62 29t26 62v14h-16q-48 0 -84.5 -14.5t-36.5 -46.5zM250 565q-41 0 -67 33l-39 50q-22 27 -14.5 47t42.5 20h46q43 0 65 -39l28 -51q13 -23 7 -41.5t-32 -18.5h-36z" />
    <glyph glyph-name="aacute" unicode="&#xe1;" horiz-adv-x="538" 
d="M16 145q0 49 27 85t71.5 55t92.5 27.5t100 8.5h15v9q0 57 -73 57q-43 0 -93 -23q-51 -22 -74 24l-12 25q-24 50 22 74q87 40 173 40q107 0 168.5 -56t61.5 -154v-262q0 -55 -55 -55h-48q-55 0 -55 56v4l1 10h-2q-2 -3 -6 -8.5t-18 -20t-30 -25t-42.5 -19.5t-55.5 -9
q-74 0 -121 45t-47 112zM187 161q0 -19 13 -31.5t36 -12.5q36 0 62 29t26 62v14h-16q-48 0 -84.5 -14.5t-36.5 -46.5zM262 565q-28 0 -37 18t5 43l28 50q22 39 65 39h46q35 0 42.5 -20t-14.5 -47l-39 -50q-26 -33 -67 -33h-29z" />
    <glyph glyph-name="acircumflex" unicode="&#xe2;" horiz-adv-x="538" 
d="M16 145q0 49 27 85t71.5 55t92.5 27.5t100 8.5h15v9q0 57 -73 57q-43 0 -93 -23q-51 -22 -74 24l-12 25q-24 50 22 74q87 40 173 40q107 0 168.5 -56t61.5 -154v-262q0 -55 -55 -55h-48q-55 0 -55 56v4l1 10h-2q-2 -3 -6 -8.5t-18 -20t-30 -25t-42.5 -19.5t-55.5 -9
q-74 0 -121 45t-47 112zM187 161q0 -19 13 -31.5t36 -12.5q36 0 62 29t26 62v14h-16q-48 0 -84.5 -14.5t-36.5 -46.5zM154 565q-29 0 -35.5 19.5t12.5 47.5l31 47q24 36 67 36h82q43 0 67 -36l31 -47q19 -28 12.5 -47.5t-35.5 -19.5h-34q-22 0 -33 8.5t-23 29.5l-25 44h-2
l-25 -44q-12 -21 -23 -29.5t-33 -8.5h-34z" />
    <glyph glyph-name="atilde" unicode="&#xe3;" horiz-adv-x="538" 
d="M16 145q0 49 27 85t71.5 55t92.5 27.5t100 8.5h15v9q0 57 -73 57q-43 0 -93 -23q-51 -22 -74 24l-12 25q-24 50 22 74q87 40 173 40q107 0 168.5 -56t61.5 -154v-262q0 -55 -55 -55h-48q-55 0 -55 56v4l1 10h-2q-2 -3 -6 -8.5t-18 -20t-30 -25t-42.5 -19.5t-55.5 -9
q-74 0 -121 45t-47 112zM187 161q0 -19 13 -31.5t36 -12.5q36 0 62 29t26 62v14h-16q-48 0 -84.5 -14.5t-36.5 -46.5zM122 565q-48 0 -48 46q0 43 32 75t80 32q34 0 61 -15t46.5 -30t34.5 -15q29 0 33 30q3 27 46 27h12q48 0 48 -43q0 -48 -31 -79t-80 -31q-34 0 -61.5 15
t-47 30t-34.5 15t-24.5 -9t-11.5 -23q-5 -25 -43 -25h-12z" />
    <glyph glyph-name="adieresis" unicode="&#xe4;" horiz-adv-x="538" 
d="M16 145q0 49 27 85t71.5 55t92.5 27.5t100 8.5h15v9q0 57 -73 57q-43 0 -93 -23q-51 -22 -74 24l-12 25q-24 50 22 74q87 40 173 40q107 0 168.5 -56t61.5 -154v-262q0 -55 -55 -55h-48q-55 0 -55 56v4l1 10h-2q-2 -3 -6 -8.5t-18 -20t-30 -25t-42.5 -19.5t-55.5 -9
q-74 0 -121 45t-47 112zM187 161q0 -19 13 -31.5t36 -12.5q36 0 62 29t26 62v14h-16q-48 0 -84.5 -14.5t-36.5 -46.5zM367 575q-55 0 -55 55v30q0 55 55 55h16q55 0 55 -55v-30q0 -55 -55 -55h-16zM158 575q-55 0 -55 55v30q0 55 55 55h16q55 0 55 -55v-30q0 -55 -55 -55
h-16z" />
    <glyph glyph-name="aring" unicode="&#xe5;" horiz-adv-x="538" 
d="M16 145q0 49 27 85t71.5 55t92.5 27.5t100 8.5h15v9q0 57 -73 57q-43 0 -93 -23q-51 -22 -74 24l-12 25q-24 50 22 74q87 40 173 40q107 0 168.5 -56t61.5 -154v-262q0 -55 -55 -55h-48q-55 0 -55 56v4l1 10h-2q-2 -3 -6 -8.5t-18 -20t-30 -25t-42.5 -19.5t-55.5 -9
q-74 0 -121 45t-47 112zM187 161q0 -19 13 -31.5t36 -12.5q36 0 62 29t26 62v14h-16q-48 0 -84.5 -14.5t-36.5 -46.5zM270 551q-44 0 -76.5 22t-32.5 63t32.5 63.5t76.5 22.5t77 -22.5t33 -63.5t-33 -63t-77 -22zM270 601q16 0 25.5 9.5t9.5 25.5t-9.5 26t-25.5 10
q-15 0 -24.5 -10t-9.5 -26t9 -25.5t25 -9.5z" />
    <glyph glyph-name="ae" unicode="&#xe6;" horiz-adv-x="838" 
d="M18 154q0 44 24 76.5t57.5 49.5t79 27.5t77.5 13t64 2.5h4v7q0 57 -76 57q-41 0 -91 -23q-51 -23 -74 24l-12 24q-25 51 22 74q80 41 168 41q106 0 163 -51h2q62 51 154 51q111 0 174.5 -69.5t63.5 -176.5q0 -21 -17 -39t-41 -18h-271q9 -46 42.5 -69t77.5 -23t94 23
q51 23 74 -21l14 -25q26 -50 -19 -75q-81 -46 -177 -46q-133 0 -207 90h-2q-16 -29 -65 -59t-128 -30q-74 0 -124.5 45.5t-50.5 119.5zM493 323h151q0 29 -18 51.5t-46 22.5q-68 0 -87 -74zM192 163q0 -43 51 -43q34 0 59 29.5t25 62.5v12h-17q-46 0 -82 -16t-36 -45z" />
    <glyph glyph-name="ccedilla" unicode="&#xe7;" horiz-adv-x="532" 
d="M241 -44l11 37q-107 17 -168 91.5t-61 173.5q0 110 77.5 189.5t209.5 79.5q97 0 166 -46q42 -27 12 -75l-17 -26q-25 -41 -74 -16q-38 19 -76 19q-58 0 -90.5 -36.5t-32.5 -86.5q0 -51 34 -89.5t95 -38.5q45 0 93 29q51 28 75 -19l13 -25q24 -49 -15 -75
q-72 -48 -162 -53l-5 -25q75 -8 75 -80q0 -50 -34 -72t-83 -22q-64 0 -64 41q0 21 7.5 32t16.5 11q5 0 13.5 -1t11.5 -1q27 0 27 24q0 21 -41 24q-25 1 -14 36z" />
    <glyph glyph-name="egrave" unicode="&#xe8;" horiz-adv-x="548" 
d="M22 258q0 116 73 192.5t195 76.5q111 0 174.5 -69.5t63.5 -176.5q0 -21 -17 -39t-41 -18h-271q9 -45 42.5 -68.5t77.5 -23.5q46 0 94 24q51 23 74 -21l14 -26q26 -50 -19 -75q-81 -46 -177 -46q-131 0 -207 80t-76 190zM203 323h154q0 33 -19.5 55t-51.5 22
q-66 0 -83 -77zM266 565q-41 0 -67 33l-39 50q-22 27 -14.5 47t42.5 20h46q43 0 65 -39l28 -51q13 -23 7 -41.5t-32 -18.5h-36z" />
    <glyph glyph-name="eacute" unicode="&#xe9;" horiz-adv-x="548" 
d="M22 258q0 116 73 192.5t195 76.5q111 0 174.5 -69.5t63.5 -176.5q0 -21 -17 -39t-41 -18h-271q9 -45 42.5 -68.5t77.5 -23.5q46 0 94 24q51 23 74 -21l14 -26q26 -50 -19 -75q-81 -46 -177 -46q-131 0 -207 80t-76 190zM203 323h154q0 33 -19.5 55t-51.5 22
q-66 0 -83 -77zM278 565q-28 0 -37 18t5 43l28 50q22 39 65 39h46q35 0 42.5 -20t-14.5 -47l-39 -50q-26 -33 -67 -33h-29z" />
    <glyph glyph-name="ecircumflex" unicode="&#xea;" horiz-adv-x="548" 
d="M22 258q0 116 73 192.5t195 76.5q111 0 174.5 -69.5t63.5 -176.5q0 -21 -17 -39t-41 -18h-271q9 -45 42.5 -68.5t77.5 -23.5q46 0 94 24q51 23 74 -21l14 -26q26 -50 -19 -75q-81 -46 -177 -46q-131 0 -207 80t-76 190zM203 323h154q0 33 -19.5 55t-51.5 22
q-66 0 -83 -77zM170 565q-29 0 -35.5 19.5t12.5 47.5l31 47q24 36 67 36h82q43 0 67 -36l31 -47q19 -28 12.5 -47.5t-35.5 -19.5h-34q-22 0 -33 8.5t-23 29.5l-25 44h-2l-25 -44q-12 -21 -23 -29.5t-33 -8.5h-34z" />
    <glyph glyph-name="edieresis" unicode="&#xeb;" horiz-adv-x="548" 
d="M22 258q0 116 73 192.5t195 76.5q111 0 174.5 -69.5t63.5 -176.5q0 -21 -17 -39t-41 -18h-271q9 -45 42.5 -68.5t77.5 -23.5q46 0 94 24q51 23 74 -21l14 -26q26 -50 -19 -75q-81 -46 -177 -46q-131 0 -207 80t-76 190zM203 323h154q0 33 -19.5 55t-51.5 22
q-66 0 -83 -77zM383 575q-55 0 -55 55v30q0 55 55 55h16q55 0 55 -55v-30q0 -55 -55 -55h-16zM174 575q-55 0 -55 55v30q0 55 55 55h16q55 0 55 -55v-30q0 -55 -55 -55h-16z" />
    <glyph glyph-name="igrave" unicode="&#xec;" horiz-adv-x="275" 
d="M51 55v405q0 55 55 55h63q55 0 55 -55v-405q0 -55 -55 -55h-63q-55 0 -55 55zM116 565q-41 0 -67 33l-39 50q-22 27 -14.5 47t42.5 20h46q43 0 65 -39l28 -51q13 -23 7 -41.5t-32 -18.5h-36z" />
    <glyph glyph-name="iacute" unicode="&#xed;" horiz-adv-x="275" 
d="M51 55v405q0 55 55 55h63q55 0 55 -55v-405q0 -55 -55 -55h-63q-55 0 -55 55zM129 565q-28 0 -37 18t5 43l28 50q22 39 65 39h46q35 0 42.5 -20t-14.5 -47l-39 -50q-26 -33 -67 -33h-29z" />
    <glyph glyph-name="icircumflex" unicode="&#xee;" horiz-adv-x="275" 
d="M51 55v405q0 55 55 55h63q55 0 55 -55v-405q0 -55 -55 -55h-63q-55 0 -55 55zM21 565q-29 0 -35.5 19.5t12.5 47.5l31 47q24 36 67 36h82q43 0 67 -36l31 -47q19 -28 12.5 -47.5t-35.5 -19.5h-34q-22 0 -33 8.5t-23 29.5l-25 44h-2l-25 -44q-12 -21 -23 -29.5t-33 -8.5
h-34z" />
    <glyph glyph-name="idieresis" unicode="&#xef;" horiz-adv-x="275" 
d="M51 55v405q0 55 55 55h63q55 0 55 -55v-405q0 -55 -55 -55h-63q-55 0 -55 55zM234 575q-55 0 -55 55v30q0 55 55 55h16q55 0 55 -55v-30q0 -55 -55 -55h-16zM25 575q-55 0 -55 55v30q0 55 55 55h16q55 0 55 -55v-30q0 -55 -55 -55h-16z" />
    <glyph glyph-name="eth" unicode="&#xf0;" horiz-adv-x="579" 
d="M24 241q0 91 63.5 157t167.5 66q22 0 41 -5t28 -9l8 -5h2q-25 44 -78 73l-128 -53q-29 -11 -40.5 -8t-19.5 23l-6 14q-15 34 33 54l61 25q-18 8 -40 15q-53 18 -36 69l11 32q19 50 69 37q99 -27 181 -77l97 40q29 11 39.5 7.5t18.5 -19.5l9 -19q14 -28 -32 -49l-52 -22
q127 -122 127 -304q0 -43 -8.5 -83.5t-29 -79.5t-50.5 -68t-77 -46.5t-105 -17.5q-116 0 -185 75t-69 178zM198 236q0 -44 20 -74t63 -30q48 0 70.5 34.5t22.5 83.5q0 37 -22 59.5t-61 22.5q-45 0 -69 -27.5t-24 -68.5z" />
    <glyph glyph-name="ntilde" unicode="&#xf1;" horiz-adv-x="610" 
d="M51 55v405q0 55 55 55h56q54 0 54 -55v-9l-1 -13h2q53 89 164 89q185 0 185 -193v-279q0 -55 -55 -55h-63q-55 0 -55 55v247q0 68 -57 68q-55 0 -83.5 -39t-28.5 -98v-178q0 -55 -55 -55h-63q-55 0 -55 55zM164 565q-48 0 -48 46q0 43 32 75t80 32q34 0 61 -15t46.5 -30
t34.5 -15q29 0 33 30q3 27 46 27h12q48 0 48 -43q0 -48 -31 -79t-80 -31q-34 0 -61.5 15t-47 30t-34.5 15t-24.5 -9t-11.5 -23q-5 -25 -43 -25h-12z" />
    <glyph glyph-name="ograve" unicode="&#xf2;" horiz-adv-x="628" 
d="M22 256q0 119 84 195t207 76q124 0 208.5 -75.5t84.5 -195.5q0 -119 -84 -193.5t-208 -74.5t-208 74.5t-84 193.5zM197 256q0 -56 34 -90t83 -34t83 34t34 90q0 57 -34 92t-83 35t-83 -35t-34 -92zM293 565q-41 0 -67 33l-39 50q-22 27 -14.5 47t42.5 20h46q43 0 65 -39
l28 -51q13 -23 7 -41.5t-32 -18.5h-36z" />
    <glyph glyph-name="oacute" unicode="&#xf3;" horiz-adv-x="628" 
d="M22 256q0 119 84 195t207 76q124 0 208.5 -75.5t84.5 -195.5q0 -119 -84 -193.5t-208 -74.5t-208 74.5t-84 193.5zM197 256q0 -56 34 -90t83 -34t83 34t34 90q0 57 -34 92t-83 35t-83 -35t-34 -92zM306 565q-28 0 -37 18t5 43l28 50q22 39 65 39h46q35 0 42.5 -20
t-14.5 -47l-39 -50q-26 -33 -67 -33h-29z" />
    <glyph glyph-name="ocircumflex" unicode="&#xf4;" horiz-adv-x="628" 
d="M22 256q0 119 84 195t207 76q124 0 208.5 -75.5t84.5 -195.5q0 -119 -84 -193.5t-208 -74.5t-208 74.5t-84 193.5zM197 256q0 -56 34 -90t83 -34t83 34t34 90q0 57 -34 92t-83 35t-83 -35t-34 -92zM198 565q-29 0 -35.5 19.5t12.5 47.5l31 47q24 36 67 36h82q43 0 67 -36
l31 -47q19 -28 12.5 -47.5t-35.5 -19.5h-34q-22 0 -33 8.5t-23 29.5l-25 44h-2l-25 -44q-12 -21 -23 -29.5t-33 -8.5h-34z" />
    <glyph glyph-name="otilde" unicode="&#xf5;" horiz-adv-x="628" 
d="M22 256q0 119 84 195t207 76q124 0 208.5 -75.5t84.5 -195.5q0 -119 -84 -193.5t-208 -74.5t-208 74.5t-84 193.5zM197 256q0 -56 34 -90t83 -34t83 34t34 90q0 57 -34 92t-83 35t-83 -35t-34 -92zM166 565q-48 0 -48 46q0 43 32 75t80 32q34 0 61 -15t46.5 -30t34.5 -15
q29 0 33 30q3 27 46 27h12q48 0 48 -43q0 -48 -31 -79t-80 -31q-34 0 -61.5 15t-47 30t-34.5 15t-24.5 -9t-11.5 -23q-5 -25 -43 -25h-12z" />
    <glyph glyph-name="odieresis" unicode="&#xf6;" horiz-adv-x="628" 
d="M22 256q0 119 84 195t207 76q124 0 208.5 -75.5t84.5 -195.5q0 -119 -84 -193.5t-208 -74.5t-208 74.5t-84 193.5zM197 256q0 -56 34 -90t83 -34t83 34t34 90q0 57 -34 92t-83 35t-83 -35t-34 -92zM411 575q-55 0 -55 55v30q0 55 55 55h16q55 0 55 -55v-30q0 -55 -55 -55
h-16zM202 575q-55 0 -55 55v30q0 55 55 55h16q55 0 55 -55v-30q0 -55 -55 -55h-16z" />
    <glyph glyph-name="divide" unicode="&#xf7;" horiz-adv-x="630" 
d="M297 440q-55 0 -55 55v25q0 55 55 55h36q55 0 55 -55v-25q0 -55 -55 -55h-36zM97 222q-55 0 -55 55v20q0 55 55 55h436q55 0 55 -55v-20q0 -55 -55 -55h-436zM242 55v25q0 55 55 55h36q55 0 55 -55v-25q0 -55 -55 -55h-36q-55 0 -55 55z" />
    <glyph glyph-name="oslash" unicode="&#xf8;" horiz-adv-x="629" 
d="M101 24l19 27q-97 76 -97 205q0 119 84 195t207 76q70 0 131 -26l10 14q31 43 65 22q33 -24 13 -50l-20 -28q94 -78 94 -203q0 -119 -84 -193.5t-208 -74.5q-67 0 -124 23l-12 -17q-32 -44 -65 -21t-13 51zM217 185l138 191q-23 7 -40 7q-49 0 -83 -35t-34 -92
q0 -41 19 -71zM281 136q15 -4 34 -4q49 0 83 34t34 90q0 37 -16 67z" />
    <glyph glyph-name="ugrave" unicode="&#xf9;" horiz-adv-x="606" 
d="M45 181v279q0 55 55 55h63q55 0 55 -55v-247q0 -68 55 -68q53 0 81 40.5t28 101.5v173q0 55 55 55h63q55 0 55 -55v-405q0 -55 -55 -55h-56q-54 0 -54 55v9l1 13h-2q-21 -41 -65 -65t-96 -24q-84 0 -133.5 45.5t-49.5 147.5zM279 565q-41 0 -67 33l-39 50
q-22 27 -14.5 47t42.5 20h46q43 0 65 -39l28 -51q13 -23 7 -41.5t-32 -18.5h-36z" />
    <glyph glyph-name="uacute" unicode="&#xfa;" horiz-adv-x="606" 
d="M45 181v279q0 55 55 55h63q55 0 55 -55v-247q0 -68 55 -68q53 0 81 40.5t28 101.5v173q0 55 55 55h63q55 0 55 -55v-405q0 -55 -55 -55h-56q-54 0 -54 55v9l1 13h-2q-21 -41 -65 -65t-96 -24q-84 0 -133.5 45.5t-49.5 147.5zM292 565q-28 0 -37 18t5 43l28 50
q22 39 65 39h46q35 0 42.5 -20t-14.5 -47l-39 -50q-26 -33 -67 -33h-29z" />
    <glyph glyph-name="ucircumflex" unicode="&#xfb;" horiz-adv-x="606" 
d="M45 181v279q0 55 55 55h63q55 0 55 -55v-247q0 -68 55 -68q53 0 81 40.5t28 101.5v173q0 55 55 55h63q55 0 55 -55v-405q0 -55 -55 -55h-56q-54 0 -54 55v9l1 13h-2q-21 -41 -65 -65t-96 -24q-84 0 -133.5 45.5t-49.5 147.5zM184 565q-29 0 -35.5 19.5t12.5 47.5l31 47
q24 36 67 36h82q43 0 67 -36l31 -47q19 -28 12.5 -47.5t-35.5 -19.5h-34q-22 0 -33 8.5t-23 29.5l-25 44h-2l-25 -44q-12 -21 -23 -29.5t-33 -8.5h-34z" />
    <glyph glyph-name="udieresis" unicode="&#xfc;" horiz-adv-x="606" 
d="M45 181v279q0 55 55 55h63q55 0 55 -55v-247q0 -68 55 -68q53 0 81 40.5t28 101.5v173q0 55 55 55h63q55 0 55 -55v-405q0 -55 -55 -55h-56q-54 0 -54 55v9l1 13h-2q-21 -41 -65 -65t-96 -24q-84 0 -133.5 45.5t-49.5 147.5zM397 575q-55 0 -55 55v30q0 55 55 55h16
q55 0 55 -55v-30q0 -55 -55 -55h-16zM188 575q-55 0 -55 55v30q0 55 55 55h16q55 0 55 -55v-30q0 -55 -55 -55h-16z" />
    <glyph glyph-name="yacute" unicode="&#xfd;" horiz-adv-x="532" 
d="M30 -96q18 39 56 32q20 -5 30 -5q23 0 42.5 16t28.5 39l10 24l-191 441q-13 29 -1 46.5t43 17.5h78q48 0 63 -45l61 -192l19 -80h2q10 49 17 77l52 193q13 47 62 47h73q30 0 42 -17.5t2 -45.5l-188 -507q-30 -80 -88.5 -117.5t-126.5 -37.5q-35 0 -72 13q-24 8 -31 28
t4 44zM262 564q-28 0 -37 18t5 43l28 50q22 39 65 39h46q35 0 42.5 -20t-14.5 -47l-39 -50q-26 -33 -67 -33h-29z" />
    <glyph glyph-name="thorn" unicode="&#xfe;" horiz-adv-x="620" 
d="M53 -145v805q0 55 55 55h63q55 0 55 -55v-142l-2 -44h2q48 53 134 53q105 0 170.5 -76.5t65.5 -192.5t-65.5 -193t-170.5 -77q-43 0 -76.5 12t-45.5 24l-12 12h-2q2 -18 2 -44v-137q0 -55 -55 -55h-63q-55 0 -55 55zM221 257q0 -125 104 -125q44 0 70.5 36.5t26.5 89.5
t-26.5 89t-70.5 36q-104 0 -104 -126z" />
    <glyph glyph-name="ydieresis" unicode="&#xff;" horiz-adv-x="532" 
d="M30 -96q18 39 56 32q20 -5 30 -5q23 0 42.5 16t28.5 39l10 24l-191 441q-13 29 -1 46.5t43 17.5h78q48 0 63 -45l61 -192l19 -80h2q10 49 17 77l52 193q13 47 62 47h73q30 0 42 -17.5t2 -45.5l-188 -507q-30 -80 -88.5 -117.5t-126.5 -37.5q-35 0 -72 13q-24 8 -31 28
t4 44zM367 574q-55 0 -55 55v30q0 55 55 55h16q55 0 55 -55v-30q0 -55 -55 -55h-16zM158 574q-55 0 -55 55v30q0 55 55 55h16q55 0 55 -55v-30q0 -55 -55 -55h-16z" />
    <glyph glyph-name="Amacron" unicode="&#x100;" horiz-adv-x="654" 
d="M13 63l207 607q15 45 62 45h90q47 0 62 -45l207 -607q10 -28 -2.5 -45.5t-42.5 -17.5h-66q-47 0 -62 46l-30 104h-223l-30 -104q-13 -46 -61 -46h-66q-30 0 -42.5 17.5t-2.5 45.5zM256 290h141l-40 139l-29 123h-2q-16 -78 -29 -123zM245 782q-55 0 -55 52v8q0 52 55 52
h165q55 0 55 -52v-8q0 -52 -55 -52h-165z" />
    <glyph glyph-name="amacron" unicode="&#x101;" horiz-adv-x="538" 
d="M16 145q0 49 27 85t71.5 55t92.5 27.5t100 8.5h15v9q0 57 -73 57q-43 0 -93 -23q-51 -22 -74 24l-12 25q-24 50 22 74q87 40 173 40q107 0 168.5 -56t61.5 -154v-262q0 -55 -55 -55h-48q-55 0 -55 56v4l1 10h-2q-2 -3 -6 -8.5t-18 -20t-30 -25t-42.5 -19.5t-55.5 -9
q-74 0 -121 45t-47 112zM187 161q0 -19 13 -31.5t36 -12.5q36 0 62 29t26 62v14h-16q-48 0 -84.5 -14.5t-36.5 -46.5zM188 586q-55 0 -55 52v8q0 52 55 52h165q55 0 55 -52v-8q0 -52 -55 -52h-165z" />
    <glyph glyph-name="Abreve" unicode="&#x102;" horiz-adv-x="654" 
d="M13 63l207 607q15 45 62 45h90q47 0 62 -45l207 -607q10 -28 -2.5 -45.5t-42.5 -17.5h-66q-47 0 -62 46l-30 104h-223l-30 -104q-13 -46 -61 -46h-66q-30 0 -42.5 17.5t-2.5 45.5zM256 290h141l-40 139l-29 123h-2q-16 -78 -29 -123zM327 756q-64 0 -118 35.5t-54 88.5
q0 31 46 31h26q34 0 46 -36q12 -33 54 -33t54 33q12 36 46 36h26q46 0 46 -31q0 -55 -53 -89.5t-119 -34.5z" />
    <glyph glyph-name="abreve" unicode="&#x103;" horiz-adv-x="538" 
d="M16 145q0 49 27 85t71.5 55t92.5 27.5t100 8.5h15v9q0 57 -73 57q-43 0 -93 -23q-51 -22 -74 24l-12 25q-24 50 22 74q87 40 173 40q107 0 168.5 -56t61.5 -154v-262q0 -55 -55 -55h-48q-55 0 -55 56v4l1 10h-2q-2 -3 -6 -8.5t-18 -20t-30 -25t-42.5 -19.5t-55.5 -9
q-74 0 -121 45t-47 112zM187 161q0 -19 13 -31.5t36 -12.5q36 0 62 29t26 62v14h-16q-48 0 -84.5 -14.5t-36.5 -46.5zM270 560q-64 0 -118 35.5t-54 88.5q0 31 46 31h26q34 0 46 -36q12 -33 54 -33t54 33q12 36 46 36h26q46 0 46 -31q0 -55 -53 -89.5t-119 -34.5z" />
    <glyph glyph-name="Aogonek" unicode="&#x104;" horiz-adv-x="654" 
d="M13 63l207 607q15 45 62 45h90q47 0 62 -45l207 -607q18 -54 -6 -78q-5 -5 -18.5 -15t-18.5 -17t-5 -17q0 -13 22 -23q2 -1 3 -2q22 -11 17 -50l-4 -29q-2 -19 -16 -28t-33 -7q-44 4 -81.5 30t-37.5 67q0 52 59 106q-2 0 -5 0.5t-11 3t-14.5 6.5t-13.5 13.5t-10 22.5
l-30 104h-223l-30 -104q-13 -46 -61 -46h-66q-30 0 -42.5 17.5t-2.5 45.5zM256 290h141l-40 139l-29 123h-2q-16 -78 -29 -123z" />
    <glyph glyph-name="aogonek" unicode="&#x105;" horiz-adv-x="540" 
d="M16 145q0 49 27 85t71.5 55t92.5 27.5t100 8.5h15v9q0 57 -73 57q-43 0 -93 -23q-51 -22 -74 24l-12 25q-24 50 22 74q87 40 173 40q107 0 168.5 -56t61.5 -154v-262q0 -30 -31 -62t-31 -57q0 -13 22 -23q2 -1 3 -2q22 -11 17 -50l-4 -29q-2 -19 -16 -28t-33 -7
q-44 4 -81.5 30t-37.5 67q0 59 53 116q-19 11 -19 46v4l1 10h-2q-2 -3 -6 -8.5t-18 -20t-30 -25t-42.5 -19.5t-55.5 -9q-74 0 -121 45t-47 112zM187 161q0 -19 13 -31.5t36 -12.5q36 0 62 29t26 62v14h-16q-48 0 -84.5 -14.5t-36.5 -46.5z" />
    <glyph glyph-name="Cacute" unicode="&#x106;" horiz-adv-x="699" 
d="M32 359q0 158 105.5 263t269.5 105q131 0 229 -68q41 -29 12 -76l-25 -41q-27 -44 -75 -15q-69 40 -133 40q-100 0 -151 -59.5t-51 -144.5q0 -87 52.5 -151t149.5 -64q74 0 146 51q47 33 77 -10l28 -39q31 -46 -9 -77q-109 -85 -250 -85q-170 0 -272.5 104.5
t-102.5 266.5zM389 761q-28 0 -37 18t5 43l28 50q22 39 65 39h46q35 0 42.5 -20t-14.5 -47l-39 -50q-26 -33 -67 -33h-29z" />
    <glyph glyph-name="cacute" unicode="&#x107;" horiz-adv-x="529" 
d="M22 258q0 110 77.5 189.5t209.5 79.5q97 0 166 -46q42 -27 12 -75l-17 -26q-25 -41 -74 -16q-38 19 -76 19q-58 0 -90.5 -36.5t-32.5 -86.5q0 -51 34 -89.5t95 -38.5q45 0 93 29q51 28 75 -19l13 -25q24 -49 -15 -75q-81 -54 -183 -54q-132 0 -209.5 79t-77.5 191z
M281 565q-28 0 -37 18t5 43l28 50q22 39 65 39h46q35 0 42.5 -20t-14.5 -47l-39 -50q-26 -33 -67 -33h-29z" />
    <glyph glyph-name="Ccircumflex" unicode="&#x108;" horiz-adv-x="699" 
d="M32 359q0 158 105.5 263t269.5 105q131 0 229 -68q41 -29 12 -76l-25 -41q-27 -44 -75 -15q-69 40 -133 40q-100 0 -151 -59.5t-51 -144.5q0 -87 52.5 -151t149.5 -64q74 0 146 51q47 33 77 -10l28 -39q31 -46 -9 -77q-109 -85 -250 -85q-170 0 -272.5 104.5
t-102.5 266.5zM281 761q-29 0 -35.5 19.5t12.5 47.5l31 47q24 36 67 36h82q43 0 67 -36l31 -47q19 -28 12.5 -47.5t-35.5 -19.5h-34q-22 0 -33 8.5t-23 29.5l-25 44h-2l-25 -44q-12 -21 -23 -29.5t-33 -8.5h-34z" />
    <glyph glyph-name="ccircumflex" unicode="&#x109;" horiz-adv-x="529" 
d="M22 258q0 110 77.5 189.5t209.5 79.5q97 0 166 -46q42 -27 12 -75l-17 -26q-25 -41 -74 -16q-38 19 -76 19q-58 0 -90.5 -36.5t-32.5 -86.5q0 -51 34 -89.5t95 -38.5q45 0 93 29q51 28 75 -19l13 -25q24 -49 -15 -75q-81 -54 -183 -54q-132 0 -209.5 79t-77.5 191z
M173 565q-29 0 -35.5 19.5t12.5 47.5l31 47q24 36 67 36h82q43 0 67 -36l31 -47q19 -28 12.5 -47.5t-35.5 -19.5h-34q-22 0 -33 8.5t-23 29.5l-25 44h-2l-25 -44q-12 -21 -23 -29.5t-33 -8.5h-34z" />
    <glyph glyph-name="Cdotaccent" unicode="&#x10a;" horiz-adv-x="699" 
d="M32 359q0 158 105.5 263t269.5 105q131 0 229 -68q41 -29 12 -76l-25 -41q-27 -44 -75 -15q-69 40 -133 40q-100 0 -151 -59.5t-51 -144.5q0 -87 52.5 -151t149.5 -64q74 0 146 51q47 33 77 -10l28 -39q31 -46 -9 -77q-109 -85 -250 -85q-170 0 -272.5 104.5
t-102.5 266.5zM381 779q-55 0 -55 55v22q0 55 55 55h33q55 0 55 -55v-22q0 -55 -55 -55h-33z" />
    <glyph glyph-name="cdotaccent" unicode="&#x10b;" horiz-adv-x="529" 
d="M22 258q0 110 77.5 189.5t209.5 79.5q97 0 166 -46q42 -27 12 -75l-17 -26q-25 -41 -74 -16q-38 19 -76 19q-58 0 -90.5 -36.5t-32.5 -86.5q0 -51 34 -89.5t95 -38.5q45 0 93 29q51 28 75 -19l13 -25q24 -49 -15 -75q-81 -54 -183 -54q-132 0 -209.5 79t-77.5 191z
M273 583q-55 0 -55 55v22q0 55 55 55h33q55 0 55 -55v-22q0 -55 -55 -55h-33z" />
    <glyph glyph-name="Ccaron" unicode="&#x10c;" horiz-adv-x="699" 
d="M32 359q0 158 105.5 263t269.5 105q131 0 229 -68q41 -29 12 -76l-25 -41q-27 -44 -75 -15q-69 40 -133 40q-100 0 -151 -59.5t-51 -144.5q0 -87 52.5 -151t149.5 -64q74 0 146 51q47 33 77 -10l28 -39q31 -46 -9 -77q-109 -85 -250 -85q-170 0 -272.5 104.5
t-102.5 266.5zM356 761q-43 0 -67 36l-31 47q-19 28 -12.5 47.5t35.5 19.5h34q22 0 33 -8.5t23 -29.5l25 -44h2l25 44q12 21 23 29.5t33 8.5h34q29 0 35.5 -19.5t-12.5 -47.5l-31 -47q-24 -36 -67 -36h-82z" />
    <glyph glyph-name="ccaron" unicode="&#x10d;" horiz-adv-x="529" 
d="M22 258q0 110 77.5 189.5t209.5 79.5q97 0 166 -46q42 -27 12 -75l-17 -26q-25 -41 -74 -16q-38 19 -76 19q-58 0 -90.5 -36.5t-32.5 -86.5q0 -51 34 -89.5t95 -38.5q45 0 93 29q51 28 75 -19l13 -25q24 -49 -15 -75q-81 -54 -183 -54q-132 0 -209.5 79t-77.5 191z
M248 565q-43 0 -67 36l-31 47q-19 28 -12.5 47.5t35.5 19.5h34q22 0 33 -8.5t23 -29.5l25 -44h2l25 44q12 21 23 29.5t33 8.5h34q29 0 35.5 -19.5t-12.5 -47.5l-31 -47q-24 -36 -67 -36h-82z" />
    <glyph glyph-name="Dcaron" unicode="&#x10e;" horiz-adv-x="726" 
d="M69 55v605q0 55 55 55h199q170 0 269.5 -94.5t99.5 -261.5q0 -168 -99.5 -263.5t-269.5 -95.5h-199q-55 0 -55 55zM244 150h72q92 0 143.5 54t51.5 155q0 100 -52 153t-143 53h-72v-415zM296 761q-43 0 -67 36l-31 47q-19 28 -12.5 47.5t35.5 19.5h34q22 0 33 -8.5
t23 -29.5l25 -44h2l25 44q12 21 23 29.5t33 8.5h34q29 0 35.5 -19.5t-12.5 -47.5l-31 -47q-24 -36 -67 -36h-82z" />
    <glyph glyph-name="dcaron" unicode="&#x10f;" horiz-adv-x="620" 
d="M24 258q0 121 65.5 195t169.5 74q29 0 53.5 -5.5t39 -12.5t24.5 -14.5t14 -12.5l4 -6h2q-1 10 -1 23v161q0 55 55 55h63q55 0 55 -55v-605q0 -55 -55 -55h-52q-55 0 -55 50v6l1 7h-2q-2 -3 -5.5 -8t-16.5 -18t-28.5 -23t-42 -18t-56.5 -8q-105 0 -168.5 74.5t-63.5 195.5
zM198 258q0 -57 28 -92t73 -35q43 0 72 32t29 95q0 50 -26.5 86.5t-74.5 36.5q-43 0 -72 -33t-29 -90zM622 682q0 33 49 33h23q63 0 63 -69q0 -51 -23.5 -81.5t-54.5 -30.5h-15q-48 0 -48 30q0 10 5.5 31t5.5 36q0 9 -2.5 26t-2.5 25z" />
    <glyph glyph-name="Dcroat" unicode="&#x110;" horiz-adv-x="728" 
d="M71 55v229h-2q-55 0 -55 55v30q0 55 29 55h28v236q0 55 55 55h199q170 0 269.5 -94.5t99.5 -261.5q0 -168 -99.5 -263.5t-269.5 -95.5h-199q-55 0 -55 55zM246 150h72q92 0 143.5 54t51.5 155q0 100 -52 153t-143 53h-72v-141h49q55 0 55 -55v-30q0 -55 -52 -55h-52v-134
z" />
    <glyph glyph-name="dcroat" unicode="&#x111;" horiz-adv-x="620" 
d="M24 258q0 121 65.5 195t169.5 74q29 0 53.5 -5.5t39 -12.5t24.5 -14.5t14 -12.5l4 -6h2q-1 10 -1 23v55h-71q-55 0 -55 45v6q0 44 55 44h71v11q0 55 55 55h63q55 0 55 -55v-11h11q55 0 55 -44v-6q0 -45 -33 -45h-33v-499q0 -55 -55 -55h-52q-55 0 -55 50v6l1 7h-2
q-2 -3 -5.5 -8t-16.5 -18t-28.5 -23t-42 -18t-56.5 -8q-105 0 -168.5 74.5t-63.5 195.5zM198 258q0 -57 28 -92t73 -35q43 0 72 32t29 95q0 50 -26.5 86.5t-74.5 36.5q-43 0 -72 -33t-29 -90z" />
    <glyph glyph-name="Emacron" unicode="&#x112;" horiz-adv-x="560" 
d="M69 55v605q0 55 55 55h338q55 0 55 -55v-40q0 -55 -55 -55h-218v-130h163q55 0 55 -55v-40q0 -55 -55 -55h-163v-135h232q55 0 55 -55v-40q0 -55 -55 -55h-352q-55 0 -55 55zM219 782q-55 0 -55 52v8q0 52 55 52h165q55 0 55 -52v-8q0 -52 -55 -52h-165z" />
    <glyph glyph-name="emacron" unicode="&#x113;" horiz-adv-x="548" 
d="M22 258q0 116 73 192.5t195 76.5q111 0 174.5 -69.5t63.5 -176.5q0 -21 -17 -39t-41 -18h-271q9 -45 42.5 -68.5t77.5 -23.5q46 0 94 24q51 23 74 -21l14 -26q26 -50 -19 -75q-81 -46 -177 -46q-131 0 -207 80t-76 190zM203 323h154q0 33 -19.5 55t-51.5 22
q-66 0 -83 -77zM204 586q-55 0 -55 52v8q0 52 55 52h165q55 0 55 -52v-8q0 -52 -55 -52h-165z" />
    <glyph glyph-name="Ebreve" unicode="&#x114;" horiz-adv-x="560" 
d="M69 55v605q0 55 55 55h338q55 0 55 -55v-40q0 -55 -55 -55h-218v-130h163q55 0 55 -55v-40q0 -55 -55 -55h-163v-135h232q55 0 55 -55v-40q0 -55 -55 -55h-352q-55 0 -55 55zM301 756q-64 0 -118 35.5t-54 88.5q0 31 46 31h26q34 0 46 -36q12 -33 54 -33t54 33
q12 36 46 36h26q46 0 46 -31q0 -55 -53 -89.5t-119 -34.5z" />
    <glyph glyph-name="ebreve" unicode="&#x115;" horiz-adv-x="548" 
d="M22 258q0 116 73 192.5t195 76.5q111 0 174.5 -69.5t63.5 -176.5q0 -21 -17 -39t-41 -18h-271q9 -45 42.5 -68.5t77.5 -23.5q46 0 94 24q51 23 74 -21l14 -26q26 -50 -19 -75q-81 -46 -177 -46q-131 0 -207 80t-76 190zM203 323h154q0 33 -19.5 55t-51.5 22
q-66 0 -83 -77zM286 560q-64 0 -118 35.5t-54 88.5q0 31 46 31h26q34 0 46 -36q12 -33 54 -33t54 33q12 36 46 36h26q46 0 46 -31q0 -55 -53 -89.5t-119 -34.5z" />
    <glyph glyph-name="Edotaccent" unicode="&#x116;" horiz-adv-x="560" 
d="M69 55v605q0 55 55 55h338q55 0 55 -55v-40q0 -55 -55 -55h-218v-130h163q55 0 55 -55v-40q0 -55 -55 -55h-163v-135h232q55 0 55 -55v-40q0 -55 -55 -55h-352q-55 0 -55 55zM285 779q-55 0 -55 55v22q0 55 55 55h33q55 0 55 -55v-22q0 -55 -55 -55h-33z" />
    <glyph glyph-name="edotaccent" unicode="&#x117;" horiz-adv-x="548" 
d="M22 258q0 116 73 192.5t195 76.5q111 0 174.5 -69.5t63.5 -176.5q0 -21 -17 -39t-41 -18h-271q9 -45 42.5 -68.5t77.5 -23.5q46 0 94 24q51 23 74 -21l14 -26q26 -50 -19 -75q-81 -46 -177 -46q-131 0 -207 80t-76 190zM203 323h154q0 33 -19.5 55t-51.5 22
q-66 0 -83 -77zM270 583q-55 0 -55 55v22q0 55 55 55h33q55 0 55 -55v-22q0 -55 -55 -55h-33z" />
    <glyph glyph-name="Eogonek" unicode="&#x118;" horiz-adv-x="560" 
d="M69 55v605q0 55 55 55h338q55 0 55 -55v-40q0 -55 -55 -55h-218v-130h163q55 0 55 -55v-40q0 -55 -55 -55h-163v-135h232q55 0 55 -55v-40q0 -29 -31.5 -62t-31.5 -57q0 -13 22 -23q2 -1 3 -2q22 -11 17 -50l-4 -29q-2 -19 -16 -28t-33 -7q-44 4 -81.5 30t-37.5 67
q0 51 51 106h-265q-55 0 -55 55z" />
    <glyph glyph-name="eogonek" unicode="&#x119;" horiz-adv-x="550" 
d="M22 258q0 116 73 192.5t195 76.5q111 0 174.5 -69.5t63.5 -179.5q0 -21 -15.5 -37.5t-41.5 -16.5h-272q9 -45 42.5 -68.5t77.5 -23.5q46 0 94 24q50 23 74 -22l14 -26q20 -40 -15 -76q-3 -3 -20 -19.5t-26.5 -27t-19 -25t-9.5 -24.5q0 -13 22 -23q2 -1 3 -2
q22 -11 17 -50l-4 -29q-4 -37 -49 -35q-41 2 -80.5 29.5t-39.5 62.5q0 52 57 103q-26 -4 -32 -4q-131 0 -207 80t-76 190zM203 323h151q0 30 -19 52t-49 22q-65 0 -83 -74z" />
    <glyph glyph-name="Ecaron" unicode="&#x11a;" horiz-adv-x="560" 
d="M69 55v605q0 55 55 55h338q55 0 55 -55v-40q0 -55 -55 -55h-218v-130h163q55 0 55 -55v-40q0 -55 -55 -55h-163v-135h232q55 0 55 -55v-40q0 -55 -55 -55h-352q-55 0 -55 55zM260 761q-43 0 -67 36l-31 47q-19 28 -12.5 47.5t35.5 19.5h34q22 0 33 -8.5t23 -29.5l25 -44
h2l25 44q12 21 23 29.5t33 8.5h34q29 0 35.5 -19.5t-12.5 -47.5l-31 -47q-24 -36 -67 -36h-82z" />
    <glyph glyph-name="ecaron" unicode="&#x11b;" horiz-adv-x="548" 
d="M22 258q0 116 73 192.5t195 76.5q111 0 174.5 -69.5t63.5 -176.5q0 -21 -17 -39t-41 -18h-271q9 -45 42.5 -68.5t77.5 -23.5q46 0 94 24q51 23 74 -21l14 -26q26 -50 -19 -75q-81 -46 -177 -46q-131 0 -207 80t-76 190zM203 323h154q0 33 -19.5 55t-51.5 22
q-66 0 -83 -77zM245 565q-43 0 -67 36l-31 47q-19 28 -12.5 47.5t35.5 19.5h34q22 0 33 -8.5t23 -29.5l25 -44h2l25 44q12 21 23 29.5t33 8.5h34q29 0 35.5 -19.5t-12.5 -47.5l-31 -47q-24 -36 -67 -36h-82z" />
    <glyph glyph-name="Gcircumflex" unicode="&#x11c;" horiz-adv-x="759" 
d="M32 353q0 163 106 268.5t270 105.5q76 0 139 -20.5t93 -42.5q42 -31 14 -76l-26 -41q-26 -41 -76 -15q-68 35 -133 35q-101 0 -153.5 -58.5t-52.5 -145.5q0 -96 59 -155.5t144 -59.5q45 0 82 14.5t51 29.5l14 14v49h-46q-55 0 -55 55v39q0 55 55 55h146q55 0 55 -55v-294
q0 -55 -55 -55h-33q-26 0 -40.5 12t-14.5 31v2l1 10h-2q-3 -3 -8 -7.5t-22.5 -16t-37.5 -20.5t-53 -16t-69 -7q-144 0 -248 101t-104 264zM281 761q-29 0 -35.5 19.5t12.5 47.5l31 47q24 36 67 36h82q43 0 67 -36l31 -47q19 -28 12.5 -47.5t-35.5 -19.5h-34q-22 0 -33 8.5
t-23 29.5l-25 44h-2l-25 -44q-12 -21 -23 -29.5t-33 -8.5h-34z" />
    <glyph glyph-name="gcircumflex" unicode="&#x11d;" horiz-adv-x="612" 
d="M104 -84q19 49 70 32q44 -14 92 -14q121 0 121 99v26l1 19h-2q-43 -63 -126 -63q-112 0 -173.5 76t-61.5 183q0 106 61 179.5t175 73.5q31 0 57 -7t40.5 -16.5t25 -19.5t14.5 -17l4 -7h2q-1 4 -1 10v2q0 19 14.5 31t40.5 12h47q55 0 55 -55v-413q0 -67 -25.5 -119
t-68 -81t-90.5 -43t-100 -14q-93 0 -153 25q-49 20 -30 71zM298 159q40 0 66.5 25.5t26.5 87.5q0 111 -100 111q-44 0 -68 -28.5t-24 -74.5q0 -52 25 -86.5t74 -34.5zM181 565q-29 0 -35.5 19.5t12.5 47.5l31 47q24 36 67 36h82q43 0 67 -36l31 -47q19 -28 12.5 -47.5
t-35.5 -19.5h-34q-22 0 -33 8.5t-23 29.5l-25 44h-2l-25 -44q-12 -21 -23 -29.5t-33 -8.5h-34z" />
    <glyph glyph-name="Gbreve" unicode="&#x11e;" horiz-adv-x="759" 
d="M32 353q0 163 106 268.5t270 105.5q76 0 139 -20.5t93 -42.5q42 -31 14 -76l-26 -41q-26 -41 -76 -15q-68 35 -133 35q-101 0 -153.5 -58.5t-52.5 -145.5q0 -96 59 -155.5t144 -59.5q45 0 82 14.5t51 29.5l14 14v49h-46q-55 0 -55 55v39q0 55 55 55h146q55 0 55 -55v-294
q0 -55 -55 -55h-33q-26 0 -40.5 12t-14.5 31v2l1 10h-2q-3 -3 -8 -7.5t-22.5 -16t-37.5 -20.5t-53 -16t-69 -7q-144 0 -248 101t-104 264zM397 756q-64 0 -118 35.5t-54 88.5q0 31 46 31h26q34 0 46 -36q12 -33 54 -33t54 33q12 36 46 36h26q46 0 46 -31q0 -55 -53 -89.5
t-119 -34.5z" />
    <glyph glyph-name="gbreve" unicode="&#x11f;" horiz-adv-x="612" 
d="M104 -84q19 49 70 32q44 -14 92 -14q121 0 121 99v26l1 19h-2q-43 -63 -126 -63q-112 0 -173.5 76t-61.5 183q0 106 61 179.5t175 73.5q31 0 57 -7t40.5 -16.5t25 -19.5t14.5 -17l4 -7h2q-1 4 -1 10v2q0 19 14.5 31t40.5 12h47q55 0 55 -55v-413q0 -67 -25.5 -119
t-68 -81t-90.5 -43t-100 -14q-93 0 -153 25q-49 20 -30 71zM298 159q40 0 66.5 25.5t26.5 87.5q0 111 -100 111q-44 0 -68 -28.5t-24 -74.5q0 -52 25 -86.5t74 -34.5zM297 560q-64 0 -118 35.5t-54 88.5q0 31 46 31h26q34 0 46 -36q12 -33 54 -33t54 33q12 36 46 36h26
q46 0 46 -31q0 -55 -53 -89.5t-119 -34.5z" />
    <glyph glyph-name="Gdotaccent" unicode="&#x120;" horiz-adv-x="759" 
d="M32 353q0 163 106 268.5t270 105.5q76 0 139 -20.5t93 -42.5q42 -31 14 -76l-26 -41q-26 -41 -76 -15q-68 35 -133 35q-101 0 -153.5 -58.5t-52.5 -145.5q0 -96 59 -155.5t144 -59.5q45 0 82 14.5t51 29.5l14 14v49h-46q-55 0 -55 55v39q0 55 55 55h146q55 0 55 -55v-294
q0 -55 -55 -55h-33q-26 0 -40.5 12t-14.5 31v2l1 10h-2q-3 -3 -8 -7.5t-22.5 -16t-37.5 -20.5t-53 -16t-69 -7q-144 0 -248 101t-104 264zM381 779q-55 0 -55 55v22q0 55 55 55h33q55 0 55 -55v-22q0 -55 -55 -55h-33z" />
    <glyph glyph-name="gdotaccent" unicode="&#x121;" horiz-adv-x="612" 
d="M104 -84q19 49 70 32q44 -14 92 -14q121 0 121 99v26l1 19h-2q-43 -63 -126 -63q-112 0 -173.5 76t-61.5 183q0 106 61 179.5t175 73.5q31 0 57 -7t40.5 -16.5t25 -19.5t14.5 -17l4 -7h2q-1 4 -1 10v2q0 19 14.5 31t40.5 12h47q55 0 55 -55v-413q0 -67 -25.5 -119
t-68 -81t-90.5 -43t-100 -14q-93 0 -153 25q-49 20 -30 71zM298 159q40 0 66.5 25.5t26.5 87.5q0 111 -100 111q-44 0 -68 -28.5t-24 -74.5q0 -52 25 -86.5t74 -34.5zM281 583q-55 0 -55 55v22q0 55 55 55h33q55 0 55 -55v-22q0 -55 -55 -55h-33z" />
    <glyph glyph-name="Gcommaaccent" unicode="&#x122;" horiz-adv-x="759" 
d="M32 353q0 163 106 268.5t270 105.5q76 0 139 -20.5t93 -42.5q42 -31 14 -76l-26 -41q-26 -41 -76 -15q-68 35 -133 35q-101 0 -153.5 -58.5t-52.5 -145.5q0 -96 59 -155.5t144 -59.5q45 0 82 14.5t51 29.5l14 14v49h-46q-55 0 -55 55v39q0 55 55 55h146q55 0 55 -55v-294
q0 -55 -55 -55h-33q-26 0 -40.5 12t-14.5 31v2l1 10h-2q-3 -3 -8 -7.5t-22.5 -16t-37.5 -20.5t-53 -16t-69 -7q-144 0 -248 101t-104 264zM320 -82q0 33 49 33h23q63 0 63 -69q0 -51 -23.5 -81.5t-54.5 -30.5h-15q-48 0 -48 30q0 10 5.5 31t5.5 36q0 9 -2.5 26t-2.5 25z" />
    <glyph glyph-name="gcommaaccent" unicode="&#x123;" horiz-adv-x="612" 
d="M104 -84q19 49 70 32q44 -14 92 -14q121 0 121 99v26l1 19h-2q-43 -63 -126 -63q-112 0 -173.5 76t-61.5 183q0 106 61 179.5t175 73.5q31 0 57 -7t40.5 -16.5t25 -19.5t14.5 -17l4 -7h2q-1 4 -1 10v2q0 19 14.5 31t40.5 12h47q55 0 55 -55v-413q0 -67 -25.5 -119
t-68 -81t-90.5 -43t-100 -14q-93 0 -153 25q-49 20 -30 71zM298 159q40 0 66.5 25.5t26.5 87.5q0 111 -100 111q-44 0 -68 -28.5t-24 -74.5q0 -52 25 -86.5t74 -34.5zM361 602q0 -33 -49 -33h-23q-63 0 -63 69q0 51 23.5 81.5t54.5 30.5h15q48 0 48 -30q0 -10 -5.5 -31
t-5.5 -36q0 -9 2.5 -26t2.5 -25z" />
    <glyph glyph-name="Hcircumflex" unicode="&#x124;" horiz-adv-x="748" 
d="M69 55v605q0 55 55 55h65q55 0 55 -55v-231h260v231q0 55 55 55h65q55 0 55 -55v-605q0 -55 -55 -55h-65q-55 0 -55 55v225h-260v-225q0 -55 -55 -55h-65q-55 0 -55 55zM258 761q-29 0 -35.5 19.5t12.5 47.5l31 47q24 36 67 36h82q43 0 67 -36l31 -47q19 -28 12.5 -47.5
t-35.5 -19.5h-34q-22 0 -33 8.5t-23 29.5l-25 44h-2l-25 -44q-12 -21 -23 -29.5t-33 -8.5h-34z" />
    <glyph glyph-name="hcircumflex" unicode="&#x125;" horiz-adv-x="611" 
d="M52 55v605q0 55 55 55h63q55 0 55 -55v-171l-2 -44h2q22 38 64 60t93 22q185 0 185 -193v-279q0 -55 -55 -55h-63q-55 0 -55 55v247q0 68 -57 68q-54 0 -83 -38t-29 -100v-177q0 -55 -55 -55h-63q-55 0 -55 55zM23 761q-29 0 -35.5 19.5t12.5 47.5l31 47q24 36 67 36h82
q43 0 67 -36l31 -47q19 -28 12.5 -47.5t-35.5 -19.5h-34q-22 0 -33 8.5t-23 29.5l-25 44h-2l-25 -44q-12 -21 -23 -29.5t-33 -8.5h-34z" />
    <glyph glyph-name="Hbar" unicode="&#x126;" horiz-adv-x="745" 
d="M73 55v462h-11q-55 0 -55 51v6q0 50 55 50h11v36q0 55 55 55h69q55 0 55 -45v-46h242v36q0 55 55 55h69q55 0 55 -45v-46h10q55 0 55 -50v-6q0 -51 -55 -51h-10v-462q0 -55 -55 -55h-69q-55 0 -55 55v225h-242v-225q0 -55 -55 -55h-69q-55 0 -55 55zM252 429h242v88h-242
v-88z" />
    <glyph glyph-name="hbar" unicode="&#x127;" horiz-adv-x="611" 
d="M52 55v499h-3q-55 0 -55 45v6q0 44 55 44h3v11q0 55 55 55h63q55 0 55 -33v-33h79q55 0 55 -44v-6q0 -45 -55 -45h-79v-65l-2 -44h2q22 38 64 60t93 22q185 0 185 -193v-279q0 -55 -55 -55h-63q-55 0 -55 55v247q0 68 -57 68q-54 0 -83 -39t-29 -98v-178q0 -55 -55 -55
h-63q-55 0 -55 55z" />
    <glyph glyph-name="Itilde" unicode="&#x128;" horiz-adv-x="313" 
d="M69 55v605q0 55 55 55h65q55 0 55 -55v-605q0 -55 -55 -55h-65q-55 0 -55 55zM9 761q-48 0 -48 46q0 43 32 75t80 32q34 0 61 -15t46.5 -30t34.5 -15q29 0 33 30q3 27 46 27h12q48 0 48 -43q0 -48 -31 -79t-80 -31q-34 0 -61.5 15t-47 30t-34.5 15t-24.5 -9t-11.5 -23
q-5 -25 -43 -25h-12z" />
    <glyph glyph-name="itilde" unicode="&#x129;" horiz-adv-x="275" 
d="M51 55v405q0 55 55 55h63q55 0 55 -55v-405q0 -55 -55 -55h-63q-55 0 -55 55zM-11 565q-48 0 -48 46q0 43 32 75t80 32q34 0 61 -15t46.5 -30t34.5 -15q29 0 33 30q3 27 46 27h12q48 0 48 -43q0 -48 -31 -79t-80 -31q-34 0 -61.5 15t-47 30t-34.5 15t-24.5 -9t-11.5 -23
q-5 -25 -43 -25h-12z" />
    <glyph glyph-name="Imacron" unicode="&#x12a;" horiz-adv-x="313" 
d="M69 55v605q0 55 55 55h65q55 0 55 -55v-605q0 -55 -55 -55h-65q-55 0 -55 55zM75 782q-55 0 -55 52v8q0 52 55 52h165q55 0 55 -52v-8q0 -52 -55 -52h-165z" />
    <glyph glyph-name="imacron" unicode="&#x12b;" horiz-adv-x="275" 
d="M51 55v405q0 55 55 55h63q55 0 55 -55v-405q0 -55 -55 -55h-63q-55 0 -55 55zM55 586q-55 0 -55 52v8q0 52 55 52h165q55 0 55 -52v-8q0 -52 -55 -52h-165z" />
    <glyph glyph-name="Ibreve" unicode="&#x12c;" horiz-adv-x="313" 
d="M69 55v605q0 55 55 55h65q55 0 55 -55v-605q0 -55 -55 -55h-65q-55 0 -55 55zM157 756q-64 0 -118 35.5t-54 88.5q0 31 46 31h26q34 0 46 -36q12 -33 54 -33t54 33q12 36 46 36h26q46 0 46 -31q0 -55 -53 -89.5t-119 -34.5z" />
    <glyph glyph-name="ibreve" unicode="&#x12d;" horiz-adv-x="275" 
d="M51 55v405q0 55 55 55h63q55 0 55 -55v-405q0 -55 -55 -55h-63q-55 0 -55 55zM137 560q-64 0 -118 35.5t-54 88.5q0 31 46 31h26q34 0 46 -36q12 -33 54 -33t54 33q12 36 46 36h26q46 0 46 -31q0 -55 -53 -89.5t-119 -34.5z" />
    <glyph glyph-name="Iogonek" unicode="&#x12e;" horiz-adv-x="313" 
d="M69 55v605q0 55 55 55h65q55 0 55 -55v-605q0 -25 -31.5 -59.5t-31.5 -59.5q0 -13 22 -23q2 -1 3 -2q22 -11 17 -50l-4 -29q-2 -19 -16 -28t-33 -7q-44 4 -81.5 30t-37.5 67q0 53 53 108q-35 10 -35 53z" />
    <glyph glyph-name="iogonek" unicode="&#x12f;" horiz-adv-x="275" 
d="M108 580q-55 0 -55 55v25q0 55 55 55h59q55 0 55 -55v-25q0 -55 -55 -55h-59zM51 55v405q0 55 55 55h63q55 0 55 -55v-405q0 -25 -31.5 -59.5t-31.5 -59.5q0 -13 22 -23q2 -1 3 -2q22 -11 17 -50l-4 -29q-2 -19 -16 -28t-33 -7q-44 4 -81.5 30t-37.5 67q0 53 53 108
q-33 11 -33 53z" />
    <glyph glyph-name="Idotaccent" unicode="&#x130;" horiz-adv-x="313" 
d="M69 55v605q0 55 55 55h65q55 0 55 -55v-605q0 -55 -55 -55h-65q-55 0 -55 55zM141 779q-55 0 -55 55v22q0 55 55 55h33q55 0 55 -55v-22q0 -55 -55 -55h-33z" />
    <glyph glyph-name="dotlessi" unicode="&#x131;" horiz-adv-x="275" 
d="M51 55v405q0 55 55 55h63q55 0 55 -55v-405q0 -55 -55 -55h-63q-55 0 -55 55z" />
    <glyph glyph-name="IJ" unicode="&#x132;" horiz-adv-x="669" 
d="M312 52v52q0 24 11.5 36.5t36.5 22.5q68 27 68 107v390q0 55 55 55h69q55 0 55 -55v-402q0 -56 -17 -102t-43 -74.5t-59 -47.5t-63 -27t-57 -8q-56 0 -56 53zM69 55v605q0 55 55 55h65q55 0 55 -55v-605q0 -55 -55 -55h-65q-55 0 -55 55z" />
    <glyph glyph-name="ij" unicode="&#x133;" horiz-adv-x="577" 
d="M108 580q-55 0 -55 55v25q0 55 55 55h59q55 0 55 -55v-25q0 -55 -55 -55h-59zM51 55v405q0 55 55 55h63q55 0 55 -55v-405q0 -55 -55 -55h-63q-55 0 -55 55zM409 580q-55 0 -55 55v25q0 55 55 55h59q55 0 55 -55v-25q0 -55 -55 -55h-59zM352 4v456q0 55 55 55h63
q55 0 55 -55v-469q0 -58 -25.5 -100.5t-63.5 -62t-69.5 -28t-56.5 -8.5h-18q-55 0 -55 55v38q0 30 14.5 40.5t40.5 14.5q17 2 28.5 7t21.5 19.5t10 37.5z" />
    <glyph glyph-name="Jcircumflex" unicode="&#x134;" horiz-adv-x="555" 
d="M13 217q0 55 55 55h67q27 0 38.5 -11.5t14.5 -39.5q3 -31 19.5 -52t45.5 -21q30 0 47 19t17 57v341h-137q-55 0 -55 55v40q0 55 55 55h257q55 0 55 -55v-440q0 -111 -71 -171.5t-168 -60.5t-168.5 61t-71.5 168zM188 761q-29 0 -35.5 19.5t12.5 47.5l31 47q24 36 67 36
h82q43 0 67 -36l31 -47q19 -28 12.5 -47.5t-35.5 -19.5h-34q-22 0 -33 8.5t-23 29.5l-25 44h-2l-25 -44q-12 -21 -23 -29.5t-33 -8.5h-34z" />
    <glyph glyph-name="jcircumflex" unicode="&#x135;" horiz-adv-x="277" 
d="M23 565q-29 0 -35.5 19.5t12.5 47.5l31 47q24 36 67 36h82q43 0 67 -36l31 -47q19 -28 12.5 -47.5t-35.5 -19.5h-34q-22 0 -33 8.5t-23 29.5l-25 44h-2l-25 -44q-12 -21 -23 -29.5t-33 -8.5h-34zM52 4v456q0 55 55 55h63q55 0 55 -55v-469q0 -58 -25.5 -100.5t-63.5 -62
t-69.5 -28t-56.5 -8.5h-18q-55 0 -55 55v38q0 49 55 55q60 6 60 64z" />
    <glyph glyph-name="Kcommaaccent" unicode="&#x136;" horiz-adv-x="663" 
d="M69 55v605q0 55 55 55h65q55 0 55 -55v-221h72l127 237q22 39 65 39h68q33 0 44 -18.5t-5 -47.5l-156 -276v-2l168 -305q16 -28 5 -47t-44 -19h-77q-43 0 -65 39l-130 251h-72v-235q0 -55 -55 -55h-65q-55 0 -55 55zM273 -82q0 33 49 33h23q63 0 63 -69
q0 -51 -23.5 -81.5t-54.5 -30.5h-15q-48 0 -48 30q0 10 5.5 31t5.5 36q0 9 -2.5 26t-2.5 25z" />
    <glyph glyph-name="kcommaaccent" unicode="&#x137;" horiz-adv-x="572" 
d="M52 55v605q0 55 55 55h63q55 0 55 -55v-315h49l80 133q21 37 65 37h66q34 0 44 -19t-8 -47l-108 -168v-2l131 -213q17 -28 7 -47t-44 -19h-75q-43 0 -65 39l-88 161h-54v-145q0 -55 -55 -55h-63q-55 0 -55 55zM235 -82q0 33 49 33h23q63 0 63 -69q0 -51 -23.5 -81.5
t-54.5 -30.5h-15q-48 0 -48 30q0 10 5.5 31t5.5 36q0 9 -2.5 26t-2.5 25z" />
    <glyph glyph-name="kgreenlandic" unicode="&#x138;" horiz-adv-x="568" 
d="M51 55v405q0 55 55 55h63q55 0 55 -55v-125h49l83 142q22 38 66 38h66q33 0 43.5 -19t-7.5 -47l-112 -178v-2l125 -203q17 -28 7 -47t-44 -19h-78q-43 0 -65 39l-79 151h-54v-135q0 -55 -55 -55h-63q-55 0 -55 55z" />
    <glyph glyph-name="Lacute" unicode="&#x139;" horiz-adv-x="539" 
d="M69 55v605q0 55 55 55h65q55 0 55 -55v-510h237q55 0 55 -55v-40q0 -55 -55 -55h-357q-55 0 -55 55zM149 761q-28 0 -37 18t5 43l28 50q22 39 65 39h46q35 0 42.5 -20t-14.5 -47l-39 -50q-26 -33 -67 -33h-29z" />
    <glyph glyph-name="lacute" unicode="&#x13a;" horiz-adv-x="307" 
d="M49 190v470q0 55 55 55h63q55 0 55 -55v-462q0 -47 29 -51q40 -5 40 -47v-49q0 -56 -56 -56q-39 0 -67.5 6.5t-58 25.5t-45 60t-15.5 103zM128 761q-28 0 -37 18t5 43l28 50q22 39 65 39h46q35 0 42.5 -20t-14.5 -47l-39 -50q-26 -33 -67 -33h-29z" />
    <glyph glyph-name="Lcommaaccent" unicode="&#x13b;" horiz-adv-x="539" 
d="M69 55v605q0 55 55 55h65q55 0 55 -55v-510h237q55 0 55 -55v-40q0 -55 -55 -55h-357q-55 0 -55 55zM244 -82q0 33 49 33h23q63 0 63 -69q0 -51 -23.5 -81.5t-54.5 -30.5h-15q-48 0 -48 30q0 10 5.5 31t5.5 36q0 9 -2.5 26t-2.5 25z" />
    <glyph glyph-name="lcommaaccent" unicode="&#x13c;" horiz-adv-x="306" 
d="M48 190v470q0 55 55 55h63q55 0 55 -55v-462q0 -47 29 -51q40 -5 40 -47v-49q0 -56 -56 -56q-39 0 -67.5 6.5t-58 25.5t-45 60t-15.5 103zM112 -82q0 33 49 33h23q63 0 63 -69q0 -51 -23.5 -81.5t-54.5 -30.5h-15q-48 0 -48 30q0 10 5.5 31t5.5 36q0 9 -2.5 26t-2.5 25z
" />
    <glyph glyph-name="Lcaron" unicode="&#x13d;" horiz-adv-x="540" 
d="M69 55v605q0 55 55 55h65q55 0 55 -55v-510h237q55 0 55 -55v-40q0 -55 -55 -55h-357q-55 0 -55 55zM322 682q0 33 49 33h23q63 0 63 -69q0 -51 -23.5 -81.5t-54.5 -30.5h-15q-48 0 -48 30q0 10 5.5 31t5.5 36q0 9 -2.5 26t-2.5 25z" />
    <glyph glyph-name="lcaron" unicode="&#x13e;" horiz-adv-x="307" 
d="M49 190v470q0 55 55 55h63q55 0 55 -55v-462q0 -47 29 -51q40 -5 40 -47v-49q0 -56 -56 -56q-39 0 -67.5 6.5t-58 25.5t-45 60t-15.5 103zM277 682q0 33 49 33h23q63 0 63 -69q0 -51 -23.5 -81.5t-54.5 -30.5h-15q-48 0 -48 30q0 10 5.5 31t5.5 36q0 9 -2.5 26t-2.5 25z
" />
    <glyph glyph-name="Ldot" unicode="&#x13f;" horiz-adv-x="541" 
d="M69 55v605q0 55 55 55h65q55 0 55 -55v-510h237q55 0 55 -55v-40q0 -55 -55 -55h-357q-55 0 -55 55zM392 315q-55 0 -55 55v54q0 55 55 55h48q55 0 55 -55v-54q0 -55 -55 -55h-48z" />
    <glyph glyph-name="ldot" unicode="&#x140;" horiz-adv-x="455" 
d="M49 190v470q0 55 55 55h63q55 0 55 -55v-462q0 -47 29 -51q40 -5 40 -47v-49q0 -56 -56 -56q-39 0 -67.5 6.5t-58 25.5t-45 60t-15.5 103zM339 315q-55 0 -55 55v54q0 55 55 55h48q55 0 55 -55v-54q0 -55 -55 -55h-48z" />
    <glyph glyph-name="Lslash" unicode="&#x141;" horiz-adv-x="541" 
d="M71 55v150l-6 -3q-18 -9 -32 4t-14 45v46q0 45 26 59l26 15v289q0 55 55 55h65q55 0 55 -55v-189l35 20q29 17 47.5 6t18.5 -44v-46q0 -44 -38 -66l-63 -36v-155h237q55 0 55 -55v-40q0 -55 -55 -55h-357q-55 0 -55 55z" />
    <glyph glyph-name="lslash" unicode="&#x142;" horiz-adv-x="320" 
d="M60 190v34l-2 -1q-20 -11 -34 2t-14 46v46q0 45 25 59l25 14v270q0 55 55 55h63q55 0 55 -55v-171l3 2q28 17 47 6t19 -44v-46q0 -43 -34 -64l-35 -20v-125q0 -47 29 -51q40 -5 40 -47v-49q0 -56 -56 -56q-39 0 -67.5 6.5t-58 25.5t-45 60t-15.5 103z" />
    <glyph glyph-name="Nacute" unicode="&#x143;" horiz-adv-x="742" 
d="M69 55v605q0 55 55 55h78q45 0 66 -37l176 -297q12 -21 27 -51.5t24 -50.5l9 -20h2q-8 77 -8 122v279q0 55 55 55h65q55 0 55 -55v-605q0 -55 -55 -55h-78q-44 0 -65 37l-177 296q-12 21 -27 51.5t-24 50.5l-9 20h-2q8 -77 8 -122v-278q0 -55 -55 -55h-65q-55 0 -55 55z
M363 761q-28 0 -37 18t5 43l28 50q22 39 65 39h46q35 0 42.5 -20t-14.5 -47l-39 -50q-26 -33 -67 -33h-29z" />
    <glyph glyph-name="nacute" unicode="&#x144;" horiz-adv-x="610" 
d="M51 55v405q0 55 55 55h56q54 0 54 -55v-9l-1 -13h2q53 89 164 89q185 0 185 -193v-279q0 -55 -55 -55h-63q-55 0 -55 55v247q0 68 -57 68q-55 0 -83.5 -39t-28.5 -98v-178q0 -55 -55 -55h-63q-55 0 -55 55zM304 565q-28 0 -37 18t5 43l28 50q22 39 65 39h46
q35 0 42.5 -20t-14.5 -47l-39 -50q-26 -33 -67 -33h-29z" />
    <glyph glyph-name="Ncommaaccent" unicode="&#x145;" horiz-adv-x="742" 
d="M69 55v605q0 55 55 55h78q45 0 66 -37l176 -297q12 -21 27 -51.5t24 -50.5l9 -20h2q-8 77 -8 122v279q0 55 55 55h65q55 0 55 -55v-605q0 -55 -55 -55h-78q-44 0 -65 37l-177 296q-12 21 -27 51.5t-24 50.5l-9 20h-2q8 -77 8 -122v-278q0 -55 -55 -55h-65q-55 0 -55 55z
M308 -82q0 33 49 33h23q63 0 63 -69q0 -51 -23.5 -81.5t-54.5 -30.5h-15q-48 0 -48 30q0 10 5.5 31t5.5 36q0 9 -2.5 26t-2.5 25z" />
    <glyph glyph-name="ncommaaccent" unicode="&#x146;" horiz-adv-x="610" 
d="M51 55v405q0 55 55 55h56q54 0 54 -55v-9l-1 -13h2q53 89 164 89q185 0 185 -193v-279q0 -55 -55 -55h-63q-55 0 -55 55v247q0 68 -57 68q-55 0 -83.5 -39t-28.5 -98v-178q0 -55 -55 -55h-63q-55 0 -55 55zM242 -82q0 33 49 33h23q63 0 63 -69q0 -51 -23.5 -81.5
t-54.5 -30.5h-15q-48 0 -48 30q0 10 5.5 31t5.5 36q0 9 -2.5 26t-2.5 25z" />
    <glyph glyph-name="Ncaron" unicode="&#x147;" horiz-adv-x="742" 
d="M69 55v605q0 55 55 55h78q45 0 66 -37l176 -297q12 -21 27 -51.5t24 -50.5l9 -20h2q-8 77 -8 122v279q0 55 55 55h65q55 0 55 -55v-605q0 -55 -55 -55h-78q-44 0 -65 37l-177 296q-12 21 -27 51.5t-24 50.5l-9 20h-2q8 -77 8 -122v-278q0 -55 -55 -55h-65q-55 0 -55 55z
M330 761q-43 0 -67 36l-31 47q-19 28 -12.5 47.5t35.5 19.5h34q22 0 33 -8.5t23 -29.5l25 -44h2l25 44q12 21 23 29.5t33 8.5h34q29 0 35.5 -19.5t-12.5 -47.5l-31 -47q-24 -36 -67 -36h-82z" />
    <glyph glyph-name="ncaron" unicode="&#x148;" horiz-adv-x="610" 
d="M51 55v405q0 55 55 55h56q54 0 54 -55v-9l-1 -13h2q53 89 164 89q185 0 185 -193v-279q0 -55 -55 -55h-63q-55 0 -55 55v247q0 68 -57 68q-55 0 -83.5 -39t-28.5 -98v-178q0 -55 -55 -55h-63q-55 0 -55 55zM271 565q-43 0 -67 36l-31 47q-19 28 -12.5 47.5t35.5 19.5h34
q22 0 33 -8.5t23 -29.5l25 -44h2l25 44q12 21 23 29.5t33 8.5h34q29 0 35.5 -19.5t-12.5 -47.5l-31 -47q-24 -36 -67 -36h-82z" />
    <glyph glyph-name="napostrophe" unicode="&#x149;" horiz-adv-x="610" 
d="M51 55v405q0 55 55 55h56q54 0 54 -55v-9l-1 -13h2q53 89 164 89q185 0 185 -193v-279q0 -55 -55 -55h-63q-55 0 -55 55v247q0 68 -57 68q-55 0 -83.5 -39t-28.5 -98v-178q0 -55 -55 -55h-63q-55 0 -55 55zM-35 682q0 33 49 33h23q63 0 63 -69q0 -51 -23.5 -81.5
t-54.5 -30.5h-15q-48 0 -48 30q0 10 5.5 31t5.5 36q0 9 -2.5 26t-2.5 25z" />
    <glyph glyph-name="Eng" unicode="&#x14a;" horiz-adv-x="743" 
d="M69 55v605q0 55 55 55h78q45 0 66 -37l176 -297q12 -21 27 -51.5t24 -50.5l9 -20h2q-8 77 -8 122v279q0 55 55 55h65q55 0 55 -55v-669q0 -59 -25 -101t-64 -61.5t-73 -28t-66 -8.5q-60 0 -60 55v38q0 49 55 55q64 7 64 59l-206 334q-13 21 -28 51.5t-24 50.5l-8 20h-2
q8 -77 8 -122v-278q0 -55 -55 -55h-65q-55 0 -55 55z" />
    <glyph glyph-name="eng" unicode="&#x14b;" horiz-adv-x="615" 
d="M51 55v405q0 55 55 55h56q54 0 54 -55v-9l-1 -13h2q53 89 164 89q185 0 185 -193v-343q0 -58 -25.5 -100.5t-63.5 -62t-69.5 -28t-56.5 -8.5h-18q-55 0 -55 55v38q0 49 55 55q60 6 60 64v298q0 68 -57 68q-55 0 -83.5 -39t-28.5 -98v-178q0 -55 -55 -55h-63q-55 0 -55 55
z" />
    <glyph glyph-name="Omacron" unicode="&#x14c;" horiz-adv-x="812" 
d="M32 362q0 156 105 260.5t269 104.5t269 -104.5t105 -260.5q0 -160 -105 -267t-269 -107t-269 107t-105 267zM213 362q0 -92 54.5 -153t138.5 -61t138.5 61t54.5 153q0 88 -54.5 146.5t-138.5 58.5t-138.5 -58.5t-54.5 -146.5zM324 782q-55 0 -55 52v8q0 52 55 52h165
q55 0 55 -52v-8q0 -52 -55 -52h-165z" />
    <glyph glyph-name="omacron" unicode="&#x14d;" horiz-adv-x="628" 
d="M22 256q0 119 84 195t207 76q124 0 208.5 -75.5t84.5 -195.5q0 -119 -84 -193.5t-208 -74.5t-208 74.5t-84 193.5zM197 256q0 -56 34 -90t83 -34t83 34t34 90q0 57 -34 92t-83 35t-83 -35t-34 -92zM232 586q-55 0 -55 52v8q0 52 55 52h165q55 0 55 -52v-8q0 -52 -55 -52
h-165z" />
    <glyph glyph-name="Obreve" unicode="&#x14e;" horiz-adv-x="812" 
d="M32 362q0 156 105 260.5t269 104.5t269 -104.5t105 -260.5q0 -160 -105 -267t-269 -107t-269 107t-105 267zM213 362q0 -92 54.5 -153t138.5 -61t138.5 61t54.5 153q0 88 -54.5 146.5t-138.5 58.5t-138.5 -58.5t-54.5 -146.5zM406 756q-64 0 -118 35.5t-54 88.5
q0 31 46 31h26q34 0 46 -36q12 -33 54 -33t54 33q12 36 46 36h26q46 0 46 -31q0 -55 -53 -89.5t-119 -34.5z" />
    <glyph glyph-name="obreve" unicode="&#x14f;" horiz-adv-x="628" 
d="M22 256q0 119 84 195t207 76q124 0 208.5 -75.5t84.5 -195.5q0 -119 -84 -193.5t-208 -74.5t-208 74.5t-84 193.5zM197 256q0 -56 34 -90t83 -34t83 34t34 90q0 57 -34 92t-83 35t-83 -35t-34 -92zM314 560q-64 0 -118 35.5t-54 88.5q0 31 46 31h26q34 0 46 -36
q12 -33 54 -33t54 33q12 36 46 36h26q46 0 46 -31q0 -55 -53 -89.5t-119 -34.5z" />
    <glyph glyph-name="Ohungarumlaut" unicode="&#x150;" horiz-adv-x="812" 
d="M32 362q0 156 105 260.5t269 104.5t269 -104.5t105 -260.5q0 -160 -105 -267t-269 -107t-269 107t-105 267zM213 362q0 -92 54.5 -153t138.5 -61t138.5 61t54.5 153q0 88 -54.5 146.5t-138.5 58.5t-138.5 -58.5t-54.5 -146.5zM500 761q-32 0 -40.5 18.5t7.5 47.5l25 45
q22 39 65 39h38q35 0 42.5 -20t-14.5 -47l-39 -50q-26 -33 -67 -33h-17zM293 761q-32 0 -41.5 18.5t5.5 46.5l23 45q20 40 65 40h25q32 0 41 -18.5t-6 -46.5l-24 -46q-22 -39 -65 -39h-23z" />
    <glyph glyph-name="ohungarumlaut" unicode="&#x151;" horiz-adv-x="628" 
d="M22 256q0 119 84 195t207 76q124 0 208.5 -75.5t84.5 -195.5q0 -119 -84 -193.5t-208 -74.5t-208 74.5t-84 193.5zM197 256q0 -56 34 -90t83 -34t83 34t34 90q0 57 -34 92t-83 35t-83 -35t-34 -92zM408 565q-32 0 -40.5 18.5t7.5 47.5l25 45q22 39 65 39h38
q35 0 42.5 -20t-14.5 -47l-39 -50q-26 -33 -67 -33h-17zM201 565q-32 0 -41.5 18.5t5.5 46.5l23 45q20 40 65 40h25q32 0 41 -18.5t-6 -46.5l-24 -46q-22 -39 -65 -39h-23z" />
    <glyph glyph-name="OE" unicode="&#x152;" horiz-adv-x="976" 
d="M28 359q0 153 112.5 258.5t271.5 105.5q37 0 75 -4t57 -4h333q55 0 55 -55v-40q0 -55 -55 -55h-218v-130h163q55 0 55 -55v-40q0 -55 -55 -55h-163v-135h233q55 0 55 -55v-40q0 -55 -55 -55h-348q-19 0 -57 -4t-75 -4q-159 0 -271.5 107t-112.5 260zM209 359
q0 -90 59 -154t144 -64q20 0 38 1.5t26 3.5l8 2v419q-28 7 -72 7q-85 0 -144 -62.5t-59 -152.5z" />
    <glyph glyph-name="oe" unicode="&#x153;" horiz-adv-x="956" 
d="M22 256q0 119 82 195t203 76q68 0 113.5 -20.5t85.5 -59.5h2q35 39 78 59.5t112 20.5q111 0 174.5 -69.5t63.5 -176.5q0 -21 -17 -39t-41 -18h-270q9 -43 42.5 -67.5t76.5 -24.5q46 0 94 24q51 23 74 -21l14 -26q26 -50 -19 -75q-81 -46 -177 -46q-73 0 -118.5 22
t-82.5 63h-2q-40 -41 -86.5 -63t-115.5 -22q-122 0 -204 74.5t-82 193.5zM611 323h151q-1 29 -19 51.5t-47 22.5q-67 0 -85 -74zM196 256q0 -56 34 -90t83 -34t83 34t34 90q0 57 -34 92t-83 35t-83 -35t-34 -92z" />
    <glyph glyph-name="Racute" unicode="&#x154;" horiz-adv-x="640" 
d="M69 55v605q0 55 55 55h194q95 0 139 -17q62 -24 97 -77.5t35 -130.5q0 -60 -28 -114.5t-79 -80.5v-2q10 -13 27 -43l102 -184q16 -28 5 -47t-43 -19h-76q-43 0 -65 39l-106 202h-82v-186q0 -55 -55 -55h-65q-55 0 -55 55zM244 391h76q43 0 67 23t24 65q0 59 -42 76
q-23 10 -66 10h-59v-174zM303 761q-28 0 -37 18t5 43l28 50q22 39 65 39h46q35 0 42.5 -20t-14.5 -47l-39 -50q-26 -33 -67 -33h-29z" />
    <glyph glyph-name="racute" unicode="&#x155;" horiz-adv-x="405" 
d="M51 55v405q0 55 55 55h56q55 0 55 -55v-32l-2 -32h2q15 45 53.5 84.5t83.5 39.5q47 0 47 -55v-56q0 -55 -55 -55q-59 0 -90.5 -43.5t-31.5 -110.5v-145q0 -55 -55 -55h-63q-55 0 -55 55zM235 564q-28 0 -37 18t5 43l28 50q22 39 65 39h46q35 0 42.5 -20t-14.5 -47
l-39 -50q-26 -33 -67 -33h-29z" />
    <glyph glyph-name="Rcommaaccent" unicode="&#x156;" horiz-adv-x="640" 
d="M69 55v605q0 55 55 55h194q95 0 139 -17q62 -24 97 -77.5t35 -130.5q0 -60 -28 -114.5t-79 -80.5v-2q10 -13 27 -43l102 -184q16 -28 5 -47t-43 -19h-76q-43 0 -65 39l-106 202h-82v-186q0 -55 -55 -55h-65q-55 0 -55 55zM244 391h76q43 0 67 23t24 65q0 59 -42 76
q-23 10 -66 10h-59v-174zM269 -82q0 33 49 33h23q63 0 63 -69q0 -51 -23.5 -81.5t-54.5 -30.5h-15q-48 0 -48 30q0 10 5.5 31t5.5 36q0 9 -2.5 26t-2.5 25z" />
    <glyph glyph-name="rcommaaccent" unicode="&#x157;" horiz-adv-x="405" 
d="M51 55v405q0 55 55 55h56q55 0 55 -55v-32l-2 -32h2q15 45 53.5 84.5t83.5 39.5q47 0 47 -55v-56q0 -55 -55 -55q-59 0 -90.5 -43.5t-31.5 -110.5v-145q0 -55 -55 -55h-63q-55 0 -55 55zM75 -82q0 33 49 33h23q63 0 63 -69q0 -51 -23.5 -81.5t-54.5 -30.5h-15
q-48 0 -48 30q0 10 5.5 31t5.5 36q0 9 -2.5 26t-2.5 25z" />
    <glyph glyph-name="Rcaron" unicode="&#x158;" horiz-adv-x="640" 
d="M69 55v605q0 55 55 55h194q95 0 139 -17q62 -24 97 -77.5t35 -130.5q0 -60 -28 -114.5t-79 -80.5v-2q10 -13 27 -43l102 -184q16 -28 5 -47t-43 -19h-76q-43 0 -65 39l-106 202h-82v-186q0 -55 -55 -55h-65q-55 0 -55 55zM244 391h76q43 0 67 23t24 65q0 59 -42 76
q-23 10 -66 10h-59v-174zM270 761q-43 0 -67 36l-31 47q-19 28 -12.5 47.5t35.5 19.5h34q22 0 33 -8.5t23 -29.5l25 -44h2l25 44q12 21 23 29.5t33 8.5h34q29 0 35.5 -19.5t-12.5 -47.5l-31 -47q-24 -36 -67 -36h-82z" />
    <glyph glyph-name="rcaron" unicode="&#x159;" horiz-adv-x="405" 
d="M51 55v405q0 55 55 55h56q55 0 55 -55v-32l-2 -32h2q15 45 53.5 84.5t83.5 39.5q47 0 47 -55v-56q0 -55 -55 -55q-59 0 -90.5 -43.5t-31.5 -110.5v-145q0 -55 -55 -55h-63q-55 0 -55 55zM202 564q-43 0 -67 36l-31 47q-19 29 -12.5 48t35.5 19h34q22 0 33 -8.5t23 -29.5
l25 -44h2l25 44q12 21 23 29.5t33 8.5h34q29 0 35.5 -19t-12.5 -48l-31 -47q-24 -36 -67 -36h-82z" />
    <glyph glyph-name="Sacute" unicode="&#x15a;" horiz-adv-x="567" 
d="M56 59q-40 33 -10 76l31 45q27 40 76 13q3 -1 16 -8.5t22.5 -12.5t25 -11t32 -9t34.5 -3q37 0 56.5 14t19.5 36q0 23 -23.5 42.5t-58.5 32.5t-76 33.5t-76 43.5t-58.5 63.5t-23.5 93.5q0 98 72.5 158.5t182.5 60.5q57 0 110.5 -16t82.5 -37q41 -29 17 -75l-24 -47
q-23 -45 -75 -19q-68 33 -113 33q-78 0 -78 -50q0 -24 23.5 -43t58.5 -32t76 -32t76 -41.5t58.5 -63t23.5 -93.5q0 -94 -67.5 -158.5t-183.5 -64.5q-68 0 -130.5 22t-96.5 49zM275 761q-28 0 -37 18t5 43l28 50q22 39 65 39h46q35 0 42.5 -20t-14.5 -47l-39 -50
q-26 -33 -67 -33h-29z" />
    <glyph glyph-name="sacute" unicode="&#x15b;" horiz-adv-x="460" 
d="M51 35q-46 26 -14 76l15 23q27 39 76 16q61 -27 98 -27q47 0 47 29q0 16 -25 27t-60 22t-70.5 27t-60.5 51t-25 85q0 77 60.5 120t153.5 43q76 0 146 -33q45 -22 20 -74l-12 -24q-21 -44 -73 -24q-53 20 -88 20q-46 0 -46 -27q0 -16 25 -26.5t60.5 -21t70.5 -26.5t60 -50
t25 -84q0 -74 -57.5 -121.5t-154.5 -47.5q-90 0 -171 47zM214 565q-28 0 -37 18t5 43l28 50q22 39 65 39h46q35 0 42.5 -20t-14.5 -47l-39 -50q-26 -33 -67 -33h-29z" />
    <glyph glyph-name="Scircumflex" unicode="&#x15c;" horiz-adv-x="567" 
d="M56 59q-40 33 -10 76l31 45q27 40 76 13q3 -1 16 -8.5t22.5 -12.5t25 -11t32 -9t34.5 -3q37 0 56.5 14t19.5 36q0 23 -23.5 42.5t-58.5 32.5t-76 33.5t-76 43.5t-58.5 63.5t-23.5 93.5q0 98 72.5 158.5t182.5 60.5q57 0 110.5 -16t82.5 -37q41 -29 17 -75l-24 -47
q-23 -45 -75 -19q-68 33 -113 33q-78 0 -78 -50q0 -24 23.5 -43t58.5 -32t76 -32t76 -41.5t58.5 -63t23.5 -93.5q0 -94 -67.5 -158.5t-183.5 -64.5q-68 0 -130.5 22t-96.5 49zM167 761q-29 0 -35.5 19.5t12.5 47.5l31 47q24 36 67 36h82q43 0 67 -36l31 -47
q19 -28 12.5 -47.5t-35.5 -19.5h-34q-22 0 -33 8.5t-23 29.5l-25 44h-2l-25 -44q-12 -21 -23 -29.5t-33 -8.5h-34z" />
    <glyph glyph-name="scircumflex" unicode="&#x15d;" horiz-adv-x="460" 
d="M51 35q-46 26 -14 76l15 23q27 39 76 16q61 -27 98 -27q47 0 47 29q0 16 -25 27t-60 22t-70.5 27t-60.5 51t-25 85q0 77 60.5 120t153.5 43q76 0 146 -33q45 -22 20 -74l-12 -24q-21 -44 -73 -24q-53 20 -88 20q-46 0 -46 -27q0 -16 25 -26.5t60.5 -21t70.5 -26.5t60 -50
t25 -84q0 -74 -57.5 -121.5t-154.5 -47.5q-90 0 -171 47zM107 565q-29 0 -35.5 19.5t12.5 47.5l31 47q24 36 67 36h82q43 0 67 -36l31 -47q19 -28 12.5 -47.5t-35.5 -19.5h-34q-22 0 -33 8.5t-23 29.5l-25 44h-2l-25 -44q-12 -21 -23 -29.5t-33 -8.5h-34z" />
    <glyph glyph-name="Scedilla" unicode="&#x15e;" horiz-adv-x="567" 
d="M232 -44l11 34q-115 13 -187 69q-40 33 -10 76l31 45q27 40 76 13q3 -1 16 -8.5t22.5 -12.5t25 -11t32 -9t34.5 -3q37 0 56.5 14t19.5 36q0 23 -23.5 42.5t-58.5 32.5t-76 33.5t-76 43.5t-58.5 63.5t-23.5 93.5q0 98 72.5 158.5t182.5 60.5q57 0 110.5 -16t82.5 -37
q41 -29 17 -75l-24 -47q-23 -45 -75 -19q-68 33 -113 33q-78 0 -78 -50q0 -24 23.5 -43t58.5 -32t76 -32t76 -41.5t58.5 -63t23.5 -93.5q0 -86 -56 -148t-155 -73l-6 -26q75 -8 75 -80q0 -50 -34 -72t-83 -22q-64 0 -64 41q0 21 7.5 32t16.5 11q5 0 13.5 -1t11.5 -1
q27 0 27 24q0 21 -41 24q-25 1 -14 36z" />
    <glyph glyph-name="scedilla" unicode="&#x15f;" horiz-adv-x="461" 
d="M163 -44l11 36q-69 10 -123 43q-46 26 -14 76l15 23q27 39 76 16q61 -27 98 -27q47 0 47 29q0 16 -25 27t-60 22t-70.5 27t-60.5 51t-25 85q0 77 60.5 120t153.5 43q76 0 146 -33q45 -22 20 -74l-12 -24q-21 -44 -73 -24q-53 20 -88 20q-46 0 -46 -27q0 -16 25 -26.5
t60.5 -21t70.5 -26.5t60 -50t25 -84q0 -67 -49 -113.5t-132 -53.5l-5 -26q75 -8 75 -80q0 -50 -34 -72t-83 -22q-64 0 -64 41q0 21 7.5 32t16.5 11q5 0 13.5 -1t11.5 -1q27 0 27 24q0 21 -41 24q-25 1 -14 36z" />
    <glyph glyph-name="Scaron" unicode="&#x160;" horiz-adv-x="567" 
d="M56 59q-40 33 -10 76l31 45q27 40 76 13q3 -1 16 -8.5t22.5 -12.5t25 -11t32 -9t34.5 -3q37 0 56.5 14t19.5 36q0 23 -23.5 42.5t-58.5 32.5t-76 33.5t-76 43.5t-58.5 63.5t-23.5 93.5q0 98 72.5 158.5t182.5 60.5q57 0 110.5 -16t82.5 -37q41 -29 17 -75l-24 -47
q-23 -45 -75 -19q-68 33 -113 33q-78 0 -78 -50q0 -24 23.5 -43t58.5 -32t76 -32t76 -41.5t58.5 -63t23.5 -93.5q0 -94 -67.5 -158.5t-183.5 -64.5q-68 0 -130.5 22t-96.5 49zM242 761q-43 0 -67 36l-31 47q-19 28 -12.5 47.5t35.5 19.5h34q22 0 33 -8.5t23 -29.5l25 -44h2
l25 44q12 21 23 29.5t33 8.5h34q29 0 35.5 -19.5t-12.5 -47.5l-31 -47q-24 -36 -67 -36h-82z" />
    <glyph glyph-name="scaron" unicode="&#x161;" horiz-adv-x="460" 
d="M51 35q-46 26 -14 76l15 23q27 39 76 16q61 -27 98 -27q47 0 47 29q0 16 -25 27t-60 22t-70.5 27t-60.5 51t-25 85q0 77 60.5 120t153.5 43q76 0 146 -33q45 -22 20 -74l-12 -24q-21 -44 -73 -24q-53 20 -88 20q-46 0 -46 -27q0 -16 25 -26.5t60.5 -21t70.5 -26.5t60 -50
t25 -84q0 -74 -57.5 -121.5t-154.5 -47.5q-90 0 -171 47zM182 565q-43 0 -67 36l-31 47q-19 28 -12.5 47.5t35.5 19.5h34q22 0 33 -8.5t23 -29.5l25 -44h2l25 44q12 21 23 29.5t33 8.5h34q29 0 35.5 -19.5t-12.5 -47.5l-31 -47q-24 -36 -67 -36h-82z" />
    <glyph glyph-name="Tcommaaccent" unicode="&#x162;" horiz-adv-x="621" 
d="M254 -44l14 44q-45 6 -45 55v510h-162q-55 0 -55 55v40q0 55 55 55h499q55 0 55 -55v-40q0 -55 -55 -55h-162v-510q0 -53 -51 -55l-8 -36q75 -8 75 -80q0 -50 -34 -72t-83 -22q-64 0 -64 41q0 21 7.5 32t16.5 11q5 0 13.5 -1t11.5 -1q27 0 27 24q0 21 -41 24
q-25 1 -14 36z" />
    <glyph glyph-name="tcommaaccent" unicode="&#x163;" horiz-adv-x="401" 
d="M168 -44l20 64q-100 48 -100 163v188h-15q-54 0 -54 55v25q0 55 55 55h19v93q0 55 55 55h58q55 0 55 -55v-93h53q55 0 55 -55v-25q0 -55 -54 -55h-54v-156q0 -57 60 -65q31 -4 43 -15.5t12 -39.5v-45q0 -55 -71 -55q-24 0 -45 4l-7 -35q75 -8 75 -80q0 -50 -34 -72
t-83 -22q-64 0 -64 41q0 21 7.5 32t16.5 11q5 0 13.5 -1t11.5 -1q27 0 27 24q0 21 -41 24q-25 1 -14 36z" />
    <glyph glyph-name="Tcaron" unicode="&#x164;" horiz-adv-x="621" 
d="M223 55v510h-162q-55 0 -55 55v40q0 55 55 55h499q55 0 55 -55v-40q0 -55 -55 -55h-162v-510q0 -55 -55 -55h-65q-55 0 -55 55zM269 761q-43 0 -67 36l-31 47q-19 28 -12.5 47.5t35.5 19.5h34q22 0 33 -8.5t23 -29.5l25 -44h2l25 44q12 21 23 29.5t33 8.5h34
q29 0 35.5 -19.5t-12.5 -47.5l-31 -47q-24 -36 -67 -36h-82z" />
    <glyph glyph-name="tcaron" unicode="&#x165;" horiz-adv-x="399" 
d="M86 183v188h-15q-54 0 -54 55v25q0 55 55 55h19v93q0 55 55 55h58q55 0 55 -55v-93h53q55 0 55 -55v-25q0 -55 -54 -55h-54v-156q0 -57 60 -65q31 -4 43 -15.5t12 -39.5v-45q0 -55 -71 -55q-25 0 -52 4.5t-57 17.5t-53.5 33.5t-39 54.5t-15.5 78zM309 679q0 33 49 33h23
q63 0 63 -69q0 -51 -23.5 -81.5t-54.5 -30.5h-15q-48 0 -48 30q0 10 5.5 31t5.5 36q0 8 -2.5 25t-2.5 26z" />
    <glyph glyph-name="Tbar" unicode="&#x166;" horiz-adv-x="622" 
d="M223 55v217h-87q-55 0 -55 55v17q0 55 55 55h87v166h-162q-55 0 -55 55v40q0 55 55 55h499q55 0 55 -55v-40q0 -55 -55 -55h-162v-166h93q55 0 55 -55v-17q0 -55 -55 -55h-93v-217q0 -55 -55 -55h-65q-55 0 -55 55z" />
    <glyph glyph-name="tbar" unicode="&#x167;" horiz-adv-x="400" 
d="M87 183v31h-15q-54 0 -54 55v15q0 55 55 55h14v42h-15q-54 0 -54 55v15q0 55 55 55h19v93q0 55 55 55h58q55 0 55 -55v-93h53q55 0 55 -55v-15q0 -55 -54 -55h-54v-42h53q55 0 55 -55v-15q0 -55 -54 -55h-54v-9q0 -47 60 -55q31 -4 43 -15.5t12 -39.5v-45q0 -55 -71 -55
q-25 0 -52 4.5t-57 17.5t-53.5 33.5t-39 54.5t-15.5 78z" />
    <glyph glyph-name="Utilde" unicode="&#x168;" horiz-adv-x="722" 
d="M62 263v397q0 55 55 55h65q55 0 55 -55v-397q0 -55 33.5 -85t90.5 -30t90.5 30t33.5 85v397q0 55 55 55h65q55 0 55 -55v-397q0 -122 -82 -198.5t-216 -76.5q-135 0 -217.5 76.5t-82.5 198.5zM213 761q-48 0 -48 46q0 43 32 75t80 32q34 0 61 -15t46.5 -30t34.5 -15
q29 0 33 30q3 27 46 27h12q48 0 48 -43q0 -48 -31 -79t-80 -31q-34 0 -61.5 15t-47 30t-34.5 15t-24.5 -9t-11.5 -23q-5 -25 -43 -25h-12z" />
    <glyph glyph-name="utilde" unicode="&#x169;" horiz-adv-x="606" 
d="M45 181v279q0 55 55 55h63q55 0 55 -55v-247q0 -68 55 -68q53 0 81 40.5t28 101.5v173q0 55 55 55h63q55 0 55 -55v-405q0 -55 -55 -55h-56q-54 0 -54 55v9l1 13h-2q-21 -41 -65 -65t-96 -24q-84 0 -133.5 45.5t-49.5 147.5zM152 565q-48 0 -48 46q0 43 32 75t80 32
q34 0 61 -15t46.5 -30t34.5 -15q29 0 33 30q3 27 46 27h12q48 0 48 -43q0 -48 -31 -79t-80 -31q-34 0 -61.5 15t-47 30t-34.5 15t-24.5 -9t-11.5 -23q-5 -25 -43 -25h-12z" />
    <glyph glyph-name="Umacron" unicode="&#x16a;" horiz-adv-x="722" 
d="M62 263v397q0 55 55 55h65q55 0 55 -55v-397q0 -55 33.5 -85t90.5 -30t90.5 30t33.5 85v397q0 55 55 55h65q55 0 55 -55v-397q0 -122 -82 -198.5t-216 -76.5q-135 0 -217.5 76.5t-82.5 198.5zM279 782q-55 0 -55 52v8q0 52 55 52h165q55 0 55 -52v-8q0 -52 -55 -52h-165z
" />
    <glyph glyph-name="umacron" unicode="&#x16b;" horiz-adv-x="606" 
d="M45 181v279q0 55 55 55h63q55 0 55 -55v-247q0 -68 55 -68q53 0 81 40.5t28 101.5v173q0 55 55 55h63q55 0 55 -55v-405q0 -55 -55 -55h-56q-54 0 -54 55v9l1 13h-2q-21 -41 -65 -65t-96 -24q-84 0 -133.5 45.5t-49.5 147.5zM218 586q-55 0 -55 52v8q0 52 55 52h165
q55 0 55 -52v-8q0 -52 -55 -52h-165z" />
    <glyph glyph-name="Ubreve" unicode="&#x16c;" horiz-adv-x="722" 
d="M62 263v397q0 55 55 55h65q55 0 55 -55v-397q0 -55 33.5 -85t90.5 -30t90.5 30t33.5 85v397q0 55 55 55h65q55 0 55 -55v-397q0 -122 -82 -198.5t-216 -76.5q-135 0 -217.5 76.5t-82.5 198.5zM361 756q-64 0 -118 35.5t-54 88.5q0 31 46 31h26q34 0 46 -36q12 -33 54 -33
t54 33q12 36 46 36h26q46 0 46 -31q0 -55 -53 -89.5t-119 -34.5z" />
    <glyph glyph-name="ubreve" unicode="&#x16d;" horiz-adv-x="606" 
d="M45 181v279q0 55 55 55h63q55 0 55 -55v-247q0 -68 55 -68q53 0 81 40.5t28 101.5v173q0 55 55 55h63q55 0 55 -55v-405q0 -55 -55 -55h-56q-54 0 -54 55v9l1 13h-2q-21 -41 -65 -65t-96 -24q-84 0 -133.5 45.5t-49.5 147.5zM300 560q-64 0 -118 35.5t-54 88.5
q0 31 46 31h26q34 0 46 -36q12 -33 54 -33t54 33q12 36 46 36h26q46 0 46 -31q0 -55 -53 -89.5t-119 -34.5z" />
    <glyph glyph-name="Uring" unicode="&#x16e;" horiz-adv-x="722" 
d="M62 263v397q0 55 55 55h65q55 0 55 -55v-397q0 -55 33.5 -85t90.5 -30t90.5 30t33.5 85v397q0 55 55 55h65q55 0 55 -55v-397q0 -122 -82 -198.5t-216 -76.5q-135 0 -217.5 76.5t-82.5 198.5zM361 747q-44 0 -76.5 22t-32.5 63t32.5 63.5t76.5 22.5t77 -22.5t33 -63.5
t-33 -63t-77 -22zM361 797q16 0 25.5 9.5t9.5 25.5t-9.5 26t-25.5 10q-15 0 -24.5 -10t-9.5 -26t9 -25.5t25 -9.5z" />
    <glyph glyph-name="uring" unicode="&#x16f;" horiz-adv-x="606" 
d="M45 181v279q0 55 55 55h63q55 0 55 -55v-247q0 -68 55 -68q53 0 81 40.5t28 101.5v173q0 55 55 55h63q55 0 55 -55v-405q0 -55 -55 -55h-56q-54 0 -54 55v9l1 13h-2q-21 -41 -65 -65t-96 -24q-84 0 -133.5 45.5t-49.5 147.5zM300 551q-44 0 -76.5 22t-32.5 63t32.5 63.5
t76.5 22.5t77 -22.5t33 -63.5t-33 -63t-77 -22zM300 601q16 0 25.5 9.5t9.5 25.5t-9.5 26t-25.5 10q-15 0 -24.5 -10t-9.5 -26t9 -25.5t25 -9.5z" />
    <glyph glyph-name="Uhungarumlaut" unicode="&#x170;" horiz-adv-x="722" 
d="M62 263v397q0 55 55 55h65q55 0 55 -55v-397q0 -55 33.5 -85t90.5 -30t90.5 30t33.5 85v397q0 55 55 55h65q55 0 55 -55v-397q0 -122 -82 -198.5t-216 -76.5q-135 0 -217.5 76.5t-82.5 198.5zM455 761q-32 0 -40.5 18.5t7.5 47.5l25 45q22 39 65 39h38q35 0 42.5 -20
t-14.5 -47l-39 -50q-26 -33 -67 -33h-17zM248 761q-32 0 -41.5 18.5t5.5 46.5l23 45q20 40 65 40h25q32 0 41 -18.5t-6 -46.5l-24 -46q-22 -39 -65 -39h-23z" />
    <glyph glyph-name="uhungarumlaut" unicode="&#x171;" horiz-adv-x="606" 
d="M45 181v279q0 55 55 55h63q55 0 55 -55v-247q0 -68 55 -68q53 0 81 40.5t28 101.5v173q0 55 55 55h63q55 0 55 -55v-405q0 -55 -55 -55h-56q-54 0 -54 55v9l1 13h-2q-21 -41 -65 -65t-96 -24q-84 0 -133.5 45.5t-49.5 147.5zM394 565q-32 0 -40.5 18.5t7.5 47.5l25 45
q22 39 65 39h38q35 0 42.5 -20t-14.5 -47l-39 -50q-26 -33 -67 -33h-17zM187 565q-32 0 -41.5 18.5t5.5 46.5l23 45q20 40 65 40h25q32 0 41 -18.5t-6 -46.5l-24 -46q-22 -39 -65 -39h-23z" />
    <glyph glyph-name="Uogonek" unicode="&#x172;" horiz-adv-x="722" 
d="M62 263v397q0 55 55 55h65q55 0 55 -55v-397q0 -55 33.5 -85t90.5 -30t90.5 30t33.5 85v397q0 55 55 55h65q55 0 55 -55v-397q0 -81 -30.5 -130t-89.5 -97q-2 -2 -23.5 -17.5t-36.5 -27.5t-29 -28.5t-14 -26.5q0 -13 22 -23q2 -1 3 -2q22 -11 17 -50l-4 -29
q-2 -19 -16 -28t-33 -7q-44 4 -81.5 30t-37.5 67q0 46 50 94q-133 1 -214 77.5t-81 197.5z" />
    <glyph glyph-name="uogonek" unicode="&#x173;" horiz-adv-x="606" 
d="M45 181v279q0 55 55 55h63q55 0 55 -55v-247q0 -68 55 -68q53 0 81 40.5t28 101.5v173q0 55 55 55h63q55 0 55 -55v-405q0 -30 -31 -62t-31 -57q0 -13 22 -23q2 -1 3 -2q22 -11 17 -50l-4 -29q-2 -19 -16 -28t-33 -7q-44 4 -81.5 30t-37.5 67q0 57 52 113q-25 13 -25 48
v9l1 13h-2q-21 -41 -65 -65t-96 -24q-84 0 -133.5 45.5t-49.5 147.5z" />
    <glyph glyph-name="Wcircumflex" unicode="&#x174;" horiz-adv-x="983" 
d="M175 48l-147 606q-7 29 6 45t42 16h71q50 0 60 -49l80 -398q4 -20 6.5 -38.5t2.5 -27.5v-9h2q1 31 12 75l98 399q12 48 61 48h43q50 0 60 -48l96 -399q5 -20 8 -38.5t4 -27.5v-9h2q0 31 9 75l87 399q10 48 61 48h68q29 0 42 -16t6 -45l-154 -607q-12 -47 -61 -47h-97
q-49 0 -61 48l-78 313l-14 84h-2q-3 -38 -14 -84l-78 -313q-12 -48 -61 -48h-99q-49 0 -61 48zM372 761q-29 0 -35.5 19.5t12.5 47.5l31 47q24 36 67 36h82q43 0 67 -36l31 -47q19 -28 12.5 -47.5t-35.5 -19.5h-34q-22 0 -33 8.5t-23 29.5l-25 44h-2l-25 -44
q-12 -21 -23 -29.5t-33 -8.5h-34z" />
    <glyph glyph-name="wcircumflex" unicode="&#x175;" horiz-adv-x="822" 
d="M135 47l-114 406q-8 29 5 45.5t42 16.5h68q50 0 60 -49l54 -255l6 -54h2q2 26 9 54l60 256q11 48 60 48h50q49 0 60 -48l60 -256l8 -54h2q1 26 7 54l54 255q10 49 60 49h66q29 0 42 -16.5t5 -45.5l-114 -406q-13 -47 -61 -47h-96q-49 0 -61 48l-46 190l-10 55h-2
q-3 -27 -10 -55l-46 -190q-12 -48 -61 -48h-98q-48 0 -61 47zM296 565q-29 0 -35.5 19.5t12.5 47.5l31 47q24 36 67 36h82q43 0 67 -36l31 -47q19 -28 12.5 -47.5t-35.5 -19.5h-34q-22 0 -33 8.5t-23 29.5l-25 44h-2l-25 -44q-12 -21 -23 -29.5t-33 -8.5h-34z" />
    <glyph glyph-name="Ycircumflex" unicode="&#x176;" horiz-adv-x="601" 
d="M213 55v238l-199 356q-16 29 -5 47.5t43 18.5h79q45 0 64 -41l62 -131l43 -103h2q20 54 43 103l61 131q19 41 64 41h79q32 0 43 -18.5t-5 -47.5l-199 -356v-238q0 -55 -55 -55h-65q-55 0 -55 55zM185 761q-29 0 -35.5 19.5t12.5 47.5l31 47q24 36 67 36h82q43 0 67 -36
l31 -47q19 -28 12.5 -47.5t-35.5 -19.5h-34q-22 0 -33 8.5t-23 29.5l-25 44h-2l-25 -44q-12 -21 -23 -29.5t-33 -8.5h-34z" />
    <glyph glyph-name="ycircumflex" unicode="&#x177;" horiz-adv-x="532" 
d="M30 -96q18 39 56 32q20 -5 30 -5q23 0 42.5 16t28.5 39l10 24l-191 441q-13 29 -1 46.5t43 17.5h78q48 0 63 -45l61 -192l19 -80h2q10 49 17 77l52 193q13 47 62 47h73q30 0 42 -17.5t2 -45.5l-188 -507q-30 -80 -88.5 -117.5t-126.5 -37.5q-35 0 -72 13q-24 8 -31 28
t4 44zM154 564q-29 0 -35.5 19t12.5 48l31 47q24 36 67 36h82q43 0 67 -36l31 -47q19 -29 12.5 -48t-35.5 -19h-34q-22 0 -33 8.5t-23 29.5l-25 44h-2l-25 -44q-12 -21 -23 -29.5t-33 -8.5h-34z" />
    <glyph glyph-name="Ydieresis" unicode="&#x178;" horiz-adv-x="601" 
d="M213 55v238l-199 356q-16 29 -5 47.5t43 18.5h79q45 0 64 -41l62 -131l43 -103h2q20 54 43 103l61 131q19 41 64 41h79q32 0 43 -18.5t-5 -47.5l-199 -356v-238q0 -55 -55 -55h-65q-55 0 -55 55zM398 771q-55 0 -55 55v30q0 55 55 55h16q55 0 55 -55v-30q0 -55 -55 -55
h-16zM189 771q-55 0 -55 55v30q0 55 55 55h16q55 0 55 -55v-30q0 -55 -55 -55h-16z" />
    <glyph glyph-name="Zacute" unicode="&#x179;" horiz-adv-x="621" 
d="M30 55v17q0 39 22 69l254 360q14 20 27.5 36t20.5 23l7 6v2q-23 -3 -55 -3h-208q-55 0 -55 55v40q0 55 55 55h430q55 0 55 -54v-16q0 -39 -22 -69l-255 -362q-14 -20 -27.5 -36t-20.5 -22l-7 -7v-2q23 3 55 3h227q55 0 55 -55v-40q0 -55 -55 -55h-448q-55 0 -55 55z
M313 761q-28 0 -37 18t5 43l28 50q22 39 65 39h46q35 0 42.5 -20t-14.5 -47l-39 -50q-26 -33 -67 -33h-29z" />
    <glyph glyph-name="zacute" unicode="&#x17a;" horiz-adv-x="524" 
d="M24 43v13q0 30 24 61l165 206q12 14 23 26t16 17l6 4v2q-13 -2 -45 -2h-126q-55 0 -55 55v35q0 55 55 55h350q55 0 55 -43v-13q0 -30 -24 -61l-164 -207q-11 -14 -22.5 -25.5t-17.5 -16.5l-6 -5v-2q13 3 46 3h138q55 0 55 -55v-35q0 -55 -55 -55h-363q-55 0 -55 43z
M248 565q-28 0 -37 18t5 43l28 50q22 39 65 39h46q35 0 42.5 -20t-14.5 -47l-39 -50q-26 -33 -67 -33h-29z" />
    <glyph glyph-name="Zdotaccent" unicode="&#x17b;" horiz-adv-x="621" 
d="M30 55v17q0 39 22 69l254 360q14 20 27.5 36t20.5 23l7 6v2q-23 -3 -55 -3h-208q-55 0 -55 55v40q0 55 55 55h430q55 0 55 -54v-16q0 -39 -22 -69l-255 -362q-14 -20 -27.5 -36t-20.5 -22l-7 -7v-2q23 3 55 3h227q55 0 55 -55v-40q0 -55 -55 -55h-448q-55 0 -55 55z
M305 779q-55 0 -55 55v22q0 55 55 55h33q55 0 55 -55v-22q0 -55 -55 -55h-33z" />
    <glyph glyph-name="zdotaccent" unicode="&#x17c;" horiz-adv-x="524" 
d="M24 43v13q0 30 24 61l165 206q12 14 23 26t16 17l6 4v2q-13 -2 -45 -2h-126q-55 0 -55 55v35q0 55 55 55h350q55 0 55 -43v-13q0 -30 -24 -61l-164 -207q-11 -14 -22.5 -25.5t-17.5 -16.5l-6 -5v-2q13 3 46 3h138q55 0 55 -55v-35q0 -55 -55 -55h-363q-55 0 -55 43z
M240 583q-55 0 -55 55v22q0 55 55 55h33q55 0 55 -55v-22q0 -55 -55 -55h-33z" />
    <glyph glyph-name="Zcaron" unicode="&#x17d;" horiz-adv-x="621" 
d="M30 55v17q0 39 22 69l254 360q14 20 27.5 36t20.5 23l7 6v2q-23 -3 -55 -3h-208q-55 0 -55 55v40q0 55 55 55h430q55 0 55 -54v-16q0 -39 -22 -69l-255 -362q-14 -20 -27.5 -36t-20.5 -22l-7 -7v-2q23 3 55 3h227q55 0 55 -55v-40q0 -55 -55 -55h-448q-55 0 -55 55z
M280 761q-43 0 -67 36l-31 47q-19 28 -12.5 47.5t35.5 19.5h34q22 0 33 -8.5t23 -29.5l25 -44h2l25 44q12 21 23 29.5t33 8.5h34q29 0 35.5 -19.5t-12.5 -47.5l-31 -47q-24 -36 -67 -36h-82z" />
    <glyph glyph-name="zcaron" unicode="&#x17e;" horiz-adv-x="524" 
d="M24 43v13q0 30 24 61l165 206q12 14 23 26t16 17l6 4v2q-13 -2 -45 -2h-126q-55 0 -55 55v35q0 55 55 55h350q55 0 55 -43v-13q0 -30 -24 -61l-164 -207q-11 -14 -22.5 -25.5t-17.5 -16.5l-6 -5v-2q13 3 46 3h138q55 0 55 -55v-35q0 -55 -55 -55h-363q-55 0 -55 43z
M215 565q-43 0 -67 36l-31 47q-19 28 -12.5 47.5t35.5 19.5h34q22 0 33 -8.5t23 -29.5l25 -44h2l25 44q12 21 23 29.5t33 8.5h34q29 0 35.5 -19.5t-12.5 -47.5l-31 -47q-24 -36 -67 -36h-82z" />
    <glyph glyph-name="longs" unicode="&#x17f;" horiz-adv-x="311" 
d="M86 55v316h-13q-55 0 -55 55v25q0 55 55 55h13v25q0 57 25 97.5t63.5 58.5t69.5 25t58 7h17q55 0 55 -55v-37q0 -50 -55 -55q-60 -5 -60 -50v-467q0 -55 -55 -55h-63q-55 0 -55 55z" />
    <glyph glyph-name="florin" unicode="&#x192;" horiz-adv-x="445" 
d="M27 22q5 0 12 -0.5t9 -0.5q86 0 92 64l19 225h-7q-55 0 -55 55v25q0 55 55 55h19l9 90q5 48 25 84.5t46 56.5t60.5 32t62.5 15.5t58 3.5q10 0 36 -2q52 -4 52 -58v-36q0 -57 -38 -54q-23 3 -38 3q-87 0 -93 -64l-7 -71h40q55 0 55 -55v-25q0 -55 -53 -55h-54l-21 -244
q-4 -48 -24 -84.5t-46.5 -56.5t-61 -32t-62.5 -15.5t-57 -3.5q-9 0 -31 2q-51 4 -51 58v36q0 28 13 41t36 11z" />
    <glyph glyph-name="Scommaaccent" unicode="&#x218;" horiz-adv-x="567" 
d="M56 59q-40 33 -10 76l31 45q27 40 76 13q3 -1 16 -8.5t22.5 -12.5t25 -11t32 -9t34.5 -3q37 0 56.5 14t19.5 36q0 23 -23.5 42.5t-58.5 32.5t-76 33.5t-76 43.5t-58.5 63.5t-23.5 93.5q0 98 72.5 158.5t182.5 60.5q57 0 110.5 -16t82.5 -37q41 -29 17 -75l-24 -47
q-23 -45 -75 -19q-68 33 -113 33q-78 0 -78 -50q0 -24 23.5 -43t58.5 -32t76 -32t76 -41.5t58.5 -63t23.5 -93.5q0 -94 -67.5 -158.5t-183.5 -64.5q-68 0 -130.5 22t-96.5 49zM211 -82q0 33 49 33h23q63 0 63 -69q0 -51 -23.5 -81.5t-54.5 -30.5h-15q-48 0 -48 30
q0 10 5.5 31t5.5 36q0 9 -2.5 26t-2.5 25z" />
    <glyph glyph-name="scommaaccent" unicode="&#x219;" horiz-adv-x="460" 
d="M51 35q-46 26 -14 76l15 23q27 39 76 16q61 -27 98 -27q47 0 47 29q0 16 -25 27t-60 22t-70.5 27t-60.5 51t-25 85q0 77 60.5 120t153.5 43q76 0 146 -33q45 -22 20 -74l-12 -24q-21 -44 -73 -24q-53 20 -88 20q-46 0 -46 -27q0 -16 25 -26.5t60.5 -21t70.5 -26.5t60 -50
t25 -84q0 -74 -57.5 -121.5t-154.5 -47.5q-90 0 -171 47zM155 -82q0 33 49 33h23q63 0 63 -69q0 -51 -23.5 -81.5t-54.5 -30.5h-15q-48 0 -48 30q0 10 5.5 31t5.5 36q0 9 -2.5 26t-2.5 25z" />
    <glyph glyph-name="uni021A" unicode="&#x21a;" horiz-adv-x="621" 
d="M223 55v510h-162q-55 0 -55 55v40q0 55 55 55h499q55 0 55 -55v-40q0 -55 -55 -55h-162v-510q0 -55 -55 -55h-65q-55 0 -55 55zM246 -82q0 33 49 33h23q63 0 63 -69q0 -51 -23.5 -81.5t-54.5 -30.5h-15q-48 0 -48 30q0 10 5.5 31t5.5 36q0 9 -2.5 26t-2.5 25z" />
    <glyph glyph-name="uni021B" unicode="&#x21b;" horiz-adv-x="399" 
d="M86 183v188h-15q-54 0 -54 55v25q0 55 55 55h19v93q0 55 55 55h58q55 0 55 -55v-93h53q55 0 55 -55v-25q0 -55 -54 -55h-54v-156q0 -57 60 -65q31 -4 43 -15.5t12 -39.5v-45q0 -55 -71 -55q-25 0 -52 4.5t-57 17.5t-53.5 33.5t-39 54.5t-15.5 78zM154 -82q0 33 49 33h23
q63 0 63 -69q0 -51 -23.5 -81.5t-54.5 -30.5h-15q-48 0 -48 30q0 10 5.5 31t5.5 36q0 9 -2.5 26t-2.5 25z" />
    <glyph glyph-name="circumflex" unicode="&#x2c6;" horiz-adv-x="486" 
d="M127 761q-29 0 -35.5 19.5t12.5 47.5l31 47q24 36 67 36h82q43 0 67 -36l31 -47q19 -28 12.5 -47.5t-35.5 -19.5h-34q-22 0 -33 8.5t-23 29.5l-25 44h-2l-25 -44q-12 -21 -23 -29.5t-33 -8.5h-34z" />
    <glyph glyph-name="caron" unicode="&#x2c7;" horiz-adv-x="486" 
d="M202 761q-43 0 -67 36l-31 47q-19 28 -12.5 47.5t35.5 19.5h34q22 0 33 -8.5t23 -29.5l25 -44h2l25 44q12 21 23 29.5t33 8.5h34q29 0 35.5 -19.5t-12.5 -47.5l-31 -47q-24 -36 -67 -36h-82z" />
    <glyph glyph-name="breve" unicode="&#x2d8;" horiz-adv-x="484" 
d="M242 756q-64 0 -118 35.5t-54 88.5q0 31 46 31h26q34 0 46 -36q12 -33 54 -33t54 33q12 36 46 36h26q46 0 46 -31q0 -55 -53 -89.5t-119 -34.5z" />
    <glyph glyph-name="dotaccent" unicode="&#x2d9;" horiz-adv-x="485" 
d="M226 779q-55 0 -55 55v22q0 55 55 55h33q55 0 55 -55v-22q0 -55 -55 -55h-33z" />
    <glyph glyph-name="ring" unicode="&#x2da;" horiz-adv-x="485" 
d="M242 747q-44 0 -76.5 22t-32.5 63t32.5 63.5t76.5 22.5t77 -22.5t33 -63.5t-33 -63t-77 -22zM242 797q16 0 25.5 9.5t9.5 25.5t-9.5 26t-25.5 10q-15 0 -24.5 -10t-9.5 -26t9 -25.5t25 -9.5z" />
    <glyph glyph-name="ogonek" unicode="&#x2db;" horiz-adv-x="486" 
d="M141 -106q0 33 24.5 64.5t54.5 52.5q33 24 71 16q49 -10 17 -42q-5 -5 -13 -12t-12.5 -11t-8 -11t-3.5 -15q0 -13 22 -23q2 -1 3 -2q22 -11 17 -50l-4 -29q-2 -19 -16 -28t-33 -7q-44 4 -81.5 30t-37.5 67z" />
    <glyph glyph-name="tilde" unicode="&#x2dc;" horiz-adv-x="485" 
d="M94 761q-48 0 -48 46q0 43 32 75t80 32q34 0 61 -15t46.5 -30t34.5 -15q29 0 33 30q3 27 46 27h12q48 0 48 -43q0 -48 -31 -79t-80 -31q-34 0 -61.5 15t-47 30t-34.5 15t-24.5 -9t-11.5 -23q-5 -25 -43 -25h-12z" />
    <glyph glyph-name="hungarumlaut" unicode="&#x2dd;" horiz-adv-x="485" 
d="M293 761q-32 0 -40.5 18.5t7.5 47.5l25 45q22 39 65 39h38q35 0 42.5 -20t-14.5 -47l-39 -50q-26 -33 -67 -33h-17zM86 761q-32 0 -41.5 18.5t5.5 46.5l23 45q20 40 65 40h25q32 0 41 -18.5t-6 -46.5l-24 -46q-22 -39 -65 -39h-23z" />
    <glyph glyph-name="uni1E9E" unicode="&#x1e9e;" horiz-adv-x="694" 
d="M62 55v425q0 106 66 170.5t175 64.5h271q55 0 55 -55v-28q0 -38 -19 -68l-73 -117l-20 -29v-2l9 -2q63 -14 98 -72t35 -124q0 -92 -67.5 -155t-163.5 -63h-63q-55 0 -55 55v40q0 55 53 55h52q31 0 47.5 20t16.5 48q0 27 -16 46.5t-48 19.5h-25q-55 0 -55 55v34
q0 30 17 63l36 65q12 21 23 37.5t17 21.5l5 6v2q-9 -3 -45 -3h-84q-28 0 -45.5 -23t-17.5 -58v-429q0 -55 -55 -55h-69q-55 0 -55 55z" />
    <glyph glyph-name="thinspace" unicode="&#x2009;" horiz-adv-x="20" 
 />
    <glyph glyph-name="endash" unicode="&#x2013;" horiz-adv-x="696" 
d="M105 222q-55 0 -55 55v20q0 55 55 55h486q55 0 55 -55v-20q0 -55 -55 -55h-486z" />
    <glyph glyph-name="emdash" unicode="&#x2014;" horiz-adv-x="896" 
d="M105 222q-55 0 -55 55v20q0 55 55 55h686q55 0 55 -55v-20q0 -55 -55 -55h-686z" />
    <glyph glyph-name="quoteleft" unicode="&#x2018;" horiz-adv-x="229" 
d="M76 475q-31 0 -43 17t-2 46l51 148q16 44 63 44h13q57 0 44 -60l-31 -146q-10 -49 -60 -49h-35z" />
    <glyph glyph-name="quoteright" unicode="&#x2019;" horiz-adv-x="227" 
d="M77 475q-57 0 -44 60l31 146q10 49 60 49h35q31 0 43 -17t2 -46l-51 -148q-16 -44 -63 -44h-13z" />
    <glyph glyph-name="quotesinglbase" unicode="&#x201a;" horiz-adv-x="239" 
d="M25 -29l31 146q10 49 60 49h35q31 0 43 -17t2 -46l-51 -148q-16 -44 -63 -44h-13q-57 0 -44 60z" />
    <glyph glyph-name="quotedblleft" unicode="&#x201c;" horiz-adv-x="428" 
d="M274 475q-31 0 -43 17t-2 46l51 148q16 44 63 44h14q57 0 44 -60l-31 -146q-10 -49 -60 -49h-36zM76 475q-31 0 -43 17t-2 46l51 148q16 44 63 44h14q57 0 44 -60l-31 -146q-10 -49 -60 -49h-36z" />
    <glyph glyph-name="quotedblright" unicode="&#x201d;" horiz-adv-x="426" 
d="M275 475q-57 0 -44 60l31 146q10 49 60 49h36q31 0 43 -17t2 -46l-51 -148q-16 -44 -63 -44h-14zM77 475q-57 0 -44 60l31 146q10 49 60 49h36q31 0 43 -17t2 -46l-51 -148q-16 -44 -63 -44h-14z" />
    <glyph glyph-name="quotedblbase" unicode="&#x201e;" horiz-adv-x="438" 
d="M223 -29l31 146q10 49 60 49h36q31 0 43 -17t2 -46l-51 -148q-16 -44 -63 -44h-14q-57 0 -44 60zM25 -29l31 146q10 49 60 49h36q31 0 43 -17t2 -46l-51 -148q-16 -44 -63 -44h-14q-57 0 -44 60z" />
    <glyph glyph-name="dagger" unicode="&#x2020;" horiz-adv-x="484" 
d="M159 5v380h-75q-55 0 -55 55v20q0 55 55 55h75v145q0 55 55 55h55q55 0 55 -55v-145h76q55 0 55 -55v-20q0 -55 -55 -55h-76v-380q0 -55 -55 -55h-55q-55 0 -55 55z" />
    <glyph glyph-name="daggerdbl" unicode="&#x2021;" horiz-adv-x="497" 
d="M166 5v145h-75q-55 0 -55 55v20q0 55 55 55h75v105h-75q-55 0 -55 55v20q0 55 55 55h75v145q0 55 55 55h55q55 0 55 -55v-145h76q55 0 55 -55v-20q0 -55 -55 -55h-76v-105h76q55 0 55 -55v-20q0 -55 -55 -55h-76v-145q0 -55 -55 -55h-55q-55 0 -55 55z" />
    <glyph glyph-name="bullet" unicode="&#x2022;" horiz-adv-x="450" 
d="M225 105q-77 0 -131.5 54.5t-54.5 131.5t54.5 131.5t131.5 54.5t131.5 -54.5t54.5 -131.5t-54.5 -131.5t-131.5 -54.5z" />
    <glyph glyph-name="ellipsis" unicode="&#x2026;" horiz-adv-x="894" 
d="M692 55v54q0 55 55 55h48q55 0 55 -55v-54q0 -55 -55 -55h-48q-55 0 -55 55zM368 55v54q0 55 55 55h48q55 0 55 -55v-54q0 -55 -55 -55h-48q-55 0 -55 55zM44 55v54q0 55 55 55h48q55 0 55 -55v-54q0 -55 -55 -55h-48q-55 0 -55 55z" />
    <glyph glyph-name="perthousand" unicode="&#x2030;" horiz-adv-x="1254" 
d="M215 382q-76 0 -128.5 50t-52.5 122q0 71 53 122t128 51t128 -51t53 -122q0 -72 -53 -122t-128 -50zM126 67l475 615q24 33 67 33h25q35 0 45 -19.5t-12 -47.5l-475 -615q-24 -33 -67 -33h-25q-35 0 -45 19.5t12 47.5zM215 502q23 0 39 15.5t16 37.5q0 21 -16.5 36.5
t-38.5 15.5t-38.5 -15.5t-16.5 -36.5q0 -22 16 -37.5t39 -15.5zM863 160q0 71 53 122t128 51t128 -51t53 -122q0 -72 -53 -122t-128 -50q-76 0 -128.5 50t-52.5 122zM461 160q0 71 53 122t128 51t128 -51t53 -122q0 -72 -53 -122t-128 -50q-76 0 -128.5 50t-52.5 122z
M989 161q0 -22 16 -37.5t39 -15.5t39 15.5t16 37.5q0 21 -16.5 36.5t-38.5 15.5t-38.5 -15.5t-16.5 -36.5zM587 161q0 -22 16 -37.5t39 -15.5t39 15.5t16 37.5q0 21 -16.5 36.5t-38.5 15.5t-38.5 -15.5t-16.5 -36.5z" />
    <glyph glyph-name="guilsinglleft" unicode="&#x2039;" horiz-adv-x="342" 
d="M156 109l-107 134q-31 39 0 78l107 135q26 32 67 32h31q35 0 44.5 -20t-12.5 -47l-110 -139l110 -138q22 -27 14.5 -47t-39.5 -20h-38q-41 0 -67 32z" />
    <glyph glyph-name="guilsinglright" unicode="&#x203a;" horiz-adv-x="342" 
d="M87 77q-35 0 -44.5 20t12.5 47l110 138l-110 139q-22 27 -14.5 47t39.5 20h38q41 0 67 -32l107 -135q32 -39 0 -78l-107 -134q-26 -32 -67 -32h-31z" />
    <glyph glyph-name="fraction" unicode="&#x2044;" horiz-adv-x="195" 
d="M8 41q-19 -41 -64 -41h-17q-26 0 -33.5 18t6.5 47l287 609q19 41 64 41h17q26 0 33.5 -18t-6.5 -47z" />
    <glyph glyph-name="zerosuperior" unicode="&#x2070;" horiz-adv-x="400" 
d="M200 413q-170 0 -170 231q0 230 170 230t170 -230q0 -231 -170 -231zM200 528q43 0 43 116q0 114 -43 114t-43 -114q0 -116 43 -116z" />
    <glyph glyph-name="foursuperior" unicode="&#x2074;" horiz-adv-x="410" 
d="M263 423q-55 0 -55 55v32h-142q-55 0 -55 42v14q0 30 20 59l128 203q23 36 66 36h52q55 0 55 -55v-192h12q46 0 46 -50v-6q0 -51 -46 -51h-12v-32q0 -55 -55 -55h-14zM130 617h78v90l4 50h-2q-9 -27 -21 -46l-59 -92v-2z" />
    <glyph glyph-name="fivesuperior" unicode="&#x2075;" horiz-adv-x="370" 
d="M174 413q-63 0 -121 33q-42 25 -12 75l3 5q23 38 70 14q24 -12 50 -12q22 0 39.5 12.5t17.5 33.5q0 22 -17.5 34.5t-43.5 12.5q-12 0 -28 -2q-47 -9 -69 1q-33 14 -29 60l11 132q5 52 58 52h158q55 0 55 -51v-4q0 -52 -55 -52h-109l-2 -28l-3 -16l2 -1q17 4 43 4
q70 0 113 -41.5t43 -101.5q0 -64 -46.5 -112t-127.5 -48z" />
    <glyph glyph-name="sixsuperior" unicode="&#x2076;" horiz-adv-x="390" 
d="M211 413q-76 0 -130 53.5t-54 154.5q0 65 23 121t74.5 94t122.5 38q27 0 54 -8q50 -17 30 -67l-2 -5q-11 -29 -19.5 -37t-27.5 -4q-2 0 -7 1.5t-11.5 2.5t-14.5 1q-59 0 -77 -52h2q18 6 41 6q70 0 111.5 -42t41.5 -103q0 -62 -42.5 -108t-114.5 -46zM209 528
q16 0 25 11.5t9 29.5q0 21 -14 38.5t-44 17.5t-30 -27q0 -23 15.5 -46.5t38.5 -23.5z" />
    <glyph glyph-name="sevensuperior" unicode="&#x2077;" horiz-adv-x="359" 
d="M91 423q-33 0 -44 18.5t6 47.5l138 242l16 24v2q-17 -2 -30 -2h-106q-55 0 -55 52v6q0 51 55 51h224q55 0 55 -42v-10q0 -33 -18 -65l-159 -286q-20 -38 -65 -38h-17z" />
    <glyph glyph-name="eightsuperior" unicode="&#x2078;" horiz-adv-x="400" 
d="M201 413q-71 0 -123 36.5t-52 102.5q0 56 64 106q-43 36 -43 88q0 61 45.5 94.5t109.5 33.5q63 0 111 -34.5t48 -94.5q0 -46 -49 -100q59 -38 59 -99q0 -62 -50.5 -97.5t-119.5 -35.5zM228 684q17 27 17 53q0 14 -13.5 22.5t-29.5 8.5q-35 0 -35 -28q0 -18 15.5 -30.5
t45.5 -25.5zM200 519q18 0 31.5 9t13.5 25q0 9 -5 17t-19 16.5t-22 12.5t-30 14q-22 -26 -22 -53q0 -19 15.5 -30t37.5 -11z" />
    <glyph glyph-name="ninesuperior" unicode="&#x2079;" horiz-adv-x="390" 
d="M89 421q-50 17 -30 67l2 5q11 29 19.5 37t27.5 4q2 0 7 -1.5t11.5 -2.5t14.5 -1q59 0 77 52h-2q-18 -6 -41 -6q-70 0 -111.5 42t-41.5 103q0 62 42.5 108t114.5 46q76 0 130 -53.5t54 -154.5q0 -65 -23 -121t-74.5 -94t-122.5 -38q-27 0 -54 8zM205 662q30 0 30 27
q0 23 -15.5 46.5t-38.5 23.5q-16 0 -25 -11.5t-9 -29.5q0 -21 14 -38.5t44 -17.5z" />
    <glyph glyph-name="zeroinferior" unicode="&#x2080;" horiz-adv-x="400" 
d="M200 -167q-170 0 -170 231q0 230 170 230t170 -230q0 -231 -170 -231zM200 -52q43 0 43 116q0 114 -43 114t-43 -114q0 -116 43 -116z" />
    <glyph glyph-name="oneinferior" unicode="&#x2081;" horiz-adv-x="340" 
d="M82 -157q-55 0 -55 51v6q0 51 45 51h44v143l3 32h-2q-3 -6 -9 -11l-7 -6q-8 -7 -20 -6t-22 11l-16 16q-36 36 7 75l55 52q30 27 68 27h14q55 0 55 -55v-278h35q55 0 55 -51v-6q0 -51 -55 -51h-195z" />
    <glyph glyph-name="twoinferior" unicode="&#x2082;" horiz-adv-x="381" 
d="M77 -157q-55 0 -55 52q0 48 20.5 85.5t50 59t58.5 38.5t49.5 33.5t20.5 33.5q0 16 -13 25t-32 9q-17 0 -34 -10q-24 -15 -38.5 -16.5t-36.5 13.5l-7 6q-44 38 -3 74q56 48 128 48q64 0 113.5 -36.5t49.5 -106.5q0 -47 -27.5 -83.5t-61 -53t-63.5 -33.5t-33 -30h136
q55 0 55 -51v-6q0 -51 -55 -51h-222z" />
    <glyph glyph-name="threeinferior" unicode="&#x2083;" horiz-adv-x="369" 
d="M167 -167q-70 0 -121 35q-41 26 -13 70l5 8q14 21 31 23.5t40 -9.5q24 -12 50 -12q25 0 39.5 12t14.5 30q0 16 -16.5 26t-38.5 10h-7q-37 0 -49 29t18 62l32 35l24 23v2q-21 -2 -34 -2h-55q-55 0 -55 52v6q0 51 55 51h184q55 0 55 -39v-7q0 -32 -26 -62l-57 -62
q97 -24 97 -126q0 -62 -46 -108.5t-127 -46.5z" />
    <glyph glyph-name="fourinferior" unicode="&#x2084;" horiz-adv-x="410" 
d="M263 -157q-55 0 -55 55v32h-142q-55 0 -55 42v14q0 30 20 59l128 203q23 36 66 36h52q55 0 55 -55v-192h12q46 0 46 -50v-6q0 -51 -46 -51h-12v-32q0 -55 -55 -55h-14zM130 37h78v90l4 50h-2q-9 -27 -21 -46l-59 -92v-2z" />
    <glyph glyph-name="fiveinferior" unicode="&#x2085;" horiz-adv-x="370" 
d="M174 -167q-63 0 -121 33q-42 25 -12 75l3 5q23 38 70 14q24 -12 50 -12q22 0 39.5 12.5t17.5 33.5q0 22 -17.5 34.5t-43.5 12.5q-12 0 -28 -2q-47 -9 -69 1q-33 14 -29 60l11 132q5 52 58 52h158q55 0 55 -51v-4q0 -52 -55 -52h-109l-2 -28l-3 -16l2 -1q17 4 43 4
q70 0 113 -41.5t43 -101.5q0 -64 -46.5 -112t-127.5 -48z" />
    <glyph glyph-name="sixinferior" unicode="&#x2086;" horiz-adv-x="390" 
d="M211 -167q-76 0 -130 53.5t-54 154.5q0 65 23 121t74.5 94t122.5 38q27 0 54 -8q50 -17 30 -67l-2 -5q-11 -29 -19.5 -37t-27.5 -4q-2 0 -7 1.5t-11.5 2.5t-14.5 1q-59 0 -77 -52h2q18 6 41 6q70 0 111.5 -42t41.5 -103q0 -62 -42.5 -108t-114.5 -46zM209 -52
q16 0 25 11.5t9 29.5q0 21 -14 38.5t-44 17.5t-30 -27q0 -23 15.5 -46.5t38.5 -23.5z" />
    <glyph glyph-name="seveninferior" unicode="&#x2087;" horiz-adv-x="359" 
d="M91 -157q-33 0 -44 18.5t6 47.5l138 242l16 24v2q-17 -2 -30 -2h-106q-55 0 -55 52v6q0 51 55 51h224q55 0 55 -42v-10q0 -33 -18 -65l-159 -286q-20 -38 -65 -38h-17z" />
    <glyph glyph-name="eightinferior" unicode="&#x2088;" horiz-adv-x="400" 
d="M201 -167q-71 0 -123 36.5t-52 102.5q0 56 64 106q-43 36 -43 88q0 61 45.5 94.5t109.5 33.5q63 0 111 -34.5t48 -94.5q0 -46 -49 -100q59 -38 59 -99q0 -62 -50.5 -97.5t-119.5 -35.5zM228 104q17 27 17 53q0 14 -13.5 22.5t-29.5 8.5q-35 0 -35 -28q0 -18 15.5 -30.5
t45.5 -25.5zM200 -61q18 0 31.5 9t13.5 25q0 9 -5 17t-19 16.5t-22 12.5t-30 14q-22 -26 -22 -53q0 -19 15.5 -30t37.5 -11z" />
    <glyph glyph-name="nineinferior" unicode="&#x2089;" horiz-adv-x="390" 
d="M89 -159q-50 17 -30 67l2 5q11 29 19.5 37t27.5 4q2 0 7 -1.5t11.5 -2.5t14.5 -1q59 0 77 52h-2q-18 -6 -41 -6q-70 0 -111.5 42t-41.5 103q0 62 42.5 108t114.5 46q76 0 130 -53.5t54 -154.5q0 -65 -23 -121t-74.5 -94t-122.5 -38q-27 0 -54 8zM205 82q30 0 30 27
q0 23 -15.5 46.5t-38.5 23.5q-16 0 -25 -11.5t-9 -29.5q0 -21 14 -38.5t44 -17.5z" />
    <glyph glyph-name="Euro" unicode="&#x20ac;" horiz-adv-x="609" 
d="M82 237q-50 0 -50 48t50 48h7q-3 26 -1 48h-5q-51 0 -51 48t51 48h22q35 111 129.5 180.5t217.5 69.5q24 0 60 -4q28 -4 39 -21.5t3 -44.5l-14 -52q-13 -48 -53 -43q-18 3 -40 3q-107 0 -154 -88h154q32 0 44.5 -11.5t7.5 -36.5q-5 -26 -18 -37t-42 -11h-169
q-3 -22 2 -48h145q32 0 44.5 -12t7.5 -36q-5 -27 -18 -37.5t-42 -10.5h-105q24 -40 64 -62t87 -22q21 0 41 3q56 8 64 -43l10 -53q11 -56 -42 -65q-37 -7 -76 -7q-127 0 -218.5 68t-126.5 181h-25z" />
    <glyph glyph-name="trademark" unicode="&#x2122;" horiz-adv-x="995" 
d="M468 325l27 337q5 53 57 53h19q47 0 64 -42l55 -133l13 -44h2q7 29 13 44l55 133q17 42 64 42h19q52 0 57 -53l25 -337q3 -57 -53 -57h-17q-53 0 -56 53l-7 121l1 32h-2l-34 -82q-17 -43 -63 -43h-6q-46 0 -63 43l-34 82h-2l1 -32l-8 -121q-5 -53 -57 -53h-17
q-56 0 -53 57zM234 268q-55 0 -55 55v283h-87q-55 0 -55 52v6q0 51 55 51h298q55 0 55 -51v-6q0 -52 -55 -52h-85v-283q0 -55 -55 -55h-16z" />
    <glyph glyph-name="minus" unicode="&#x2212;" horiz-adv-x="630" 
d="M97 222q-55 0 -55 55v20q0 55 55 55h436q55 0 55 -55v-20q0 -55 -55 -55h-436z" />
    <glyph glyph-name="infinity" unicode="&#x221e;" horiz-adv-x="503" 
d="M252 143q-85 0 -145.5 60.5t-60.5 145.5t60.5 145t145.5 60q86 0 145.5 -60t59.5 -145t-60 -145.5t-145 -60.5z" />
    <glyph glyph-name="approxequal" unicode="&#x2248;" horiz-adv-x="630" 
d="M81 370l-5 8q-29 46 11 76q64 48 127 48q50 0 107.5 -35t90.5 -35q27 0 58 17q49 29 75 -11l5 -8q29 -46 -11 -76q-64 -48 -127 -48q-50 0 -107.5 35t-90.5 35q-29 0 -58 -18q-48 -30 -75 12zM81 141l-5 8q-29 46 11 76q64 48 127 48q50 0 107.5 -35t90.5 -35q27 0 58 17
q49 29 75 -11l5 -8q29 -46 -11 -76q-64 -48 -127 -48q-50 0 -107.5 35t-90.5 35q-29 0 -58 -18q-48 -30 -75 12z" />
    <glyph glyph-name="notequal" unicode="&#x2260;" horiz-adv-x="630" 
d="M154 24q-39 23 -9 70l8 13h-33q-55 0 -55 55v20q0 55 55 55h116l64 100h-180q-55 0 -55 55v20q0 55 55 55h264l39 62q30 45 68 22q38 -24 19 -54l-19 -30h25q55 0 55 -55v-20q0 -55 -55 -55h-108l-64 -100h172q55 0 55 -55v-20q0 -55 -55 -55h-255l-39 -61
q-30 -47 -68 -22z" />
    <glyph glyph-name="lessequal" unicode="&#x2264;" horiz-adv-x="630" 
d="M93 216q-42 17 -42 64v15q0 47 42 64l398 176q29 13 46.5 1.5t17.5 -42.5v-29q0 -45 -43 -63l-287 -114v-2l287 -113q43 -18 43 -63v-29q0 -31 -17.5 -42.5t-46.5 0.5zM109 -70h391q55 0 55 -55v-20q0 -55 -55 -55h-391q-55 0 -55 55v20q0 55 55 55z" />
    <glyph glyph-name="greaterequal" unicode="&#x2265;" horiz-adv-x="630" 
d="M75 81v29q0 45 43 63l287 113v2l-287 114q-43 18 -43 63v29q0 31 17.5 42.5t46.5 -0.5l398 -177q42 -17 42 -64v-15q0 -47 -42 -64l-398 -176q-29 -13 -46.5 -1.5t-17.5 42.5zM131 -70h391q55 0 55 -55v-20q0 -55 -55 -55h-391q-55 0 -55 55v20q0 55 55 55z" />
    <glyph glyph-name="commaaccent" unicode="&#xf6c3;" horiz-adv-x="335" 
d="M113 -82q0 33 49 33h23q63 0 63 -69q0 -51 -23.5 -81.5t-54.5 -30.5h-15q-48 0 -48 30q0 10 5.5 31t5.5 36q0 9 -2.5 26t-2.5 25z" />
    <glyph glyph-name="apple" unicode="&#xf8ff;" horiz-adv-x="1130" 
d="M168 -5v152l-126 72v278l126 71v151l265 142l134 -71l132 71l265 -142v-151l124 -71v-278l-124 -72v-152l-265 -141l-132 71l-134 -71zM208 30l238 -126l121 66l118 -66l238 126v139l114 64v249l-114 66v136l-238 126l-118 -64l-121 64l-238 -126v-136l-114 -66v-249
l114 -64v-139zM242 64v121l-99 60v225l99 58v123l215 114l110 -59l107 59l214 -114v-123l100 -58v-225l-100 -60v-121l-214 -114l-107 58l-110 -58zM426 91h129v171h176v108h-176v128h85q10 0 13 -4.5t3 -16.5v-21h115v102q0 26 -10 37t-37 11h-346v-108h48v-407z" />
    <glyph glyph-name="zero.tnum" 
d="M300 -12q-74 0 -127.5 28.5t-83.5 80.5t-44 117t-14 145t14 144.5t44 116t83.5 79.5t127.5 28t127.5 -28t83.5 -79.5t44 -116t14 -144.5t-14 -145t-44 -117t-83.5 -80.5t-127.5 -28.5zM300 148q89 0 89 211q0 208 -89 208t-89 -208q0 -211 89 -211z" />
    <glyph glyph-name="one.tnum" 
d="M76 55v40q0 55 55 55h97v298l1 55h-2q-10 -22 -22 -32l-9 -8q-40 -37 -77 3l-26 28q-38 40 2 78l124 116q30 27 68 27h57q55 0 55 -55v-510h98q55 0 55 -55v-40q0 -55 -55 -55h-366q-55 0 -55 55z" />
    <glyph glyph-name="two.tnum" 
d="M46 55v22q0 62 23 115t57 87t74.5 65t74.5 52.5t57 46t23 48.5q0 35 -23 53t-54 18q-43 0 -76 -35q-43 -41 -78 -12l-39 31q-44 35 -14 74q81 107 223 107q98 0 171 -56.5t73 -162.5q0 -62 -30 -113t-73 -83.5t-86 -59t-75 -52t-34 -50.5h254q55 0 55 -55v-40
q0 -55 -55 -55h-389q-26 0 -42.5 14.5t-16.5 40.5z" />
    <glyph glyph-name="three.tnum" 
d="M71 49q-41 29 -12 76l27 44q27 44 75 14q54 -30 102 -30q47 0 74.5 20.5t27.5 50.5q0 79 -133 79h-4q-43 0 -62 38l-5 10q-18 35 13 71l65 79q15 18 30.5 35t23.5 24l8 8v2q-23 -5 -68 -5h-116q-55 0 -55 55v40q0 55 55 55h341q55 0 55 -54v-16q0 -39 -25 -68l-120 -138
q79 -17 126 -74t47 -133q0 -100 -69.5 -172t-195.5 -72q-115 0 -205 61z" />
    <glyph glyph-name="four.tnum" 
d="M57 173q-55 0 -55 55v14q0 39 20 68l233 369q23 36 66 36h116q55 0 55 -55v-342h30q55 0 55 -55v-35q0 -55 -42 -55h-43v-118q0 -55 -55 -55h-63q-55 0 -55 55v118h-262zM180 318h139v160l6 80h-2q-15 -44 -35 -74l-108 -164v-2z" />
    <glyph glyph-name="five.tnum" 
d="M79 50q-42 28 -12 75l27 44q27 44 75 14q52 -30 100 -30q39 0 69.5 23.5t30.5 64.5t-32 65t-82 24q-30 0 -59 -9q-43 -13 -74 -1l-11 4q-45 18 -41 65l21 273q5 53 57 53h292q55 0 55 -55v-40q0 -55 -55 -55h-193l-4 -66l-4 -28h2q25 7 52 7q122 0 189 -66.5t67 -168.5
q0 -111 -74 -183t-191 -72q-116 0 -205 62z" />
    <glyph glyph-name="six.tnum" 
d="M35 324q0 105 38.5 195.5t118 149t185.5 58.5q62 0 107 -13q51 -15 34 -69l-15 -47q-8 -27 -23 -34t-41 -3q-34 6 -50 6q-118 0 -157 -128h2q38 35 113 35q101 0 161.5 -69t60.5 -163q0 -99 -66.5 -176.5t-177.5 -77.5q-117 0 -203.5 88.5t-86.5 247.5zM215 280
q0 -46 33.5 -89t77.5 -43q31 0 51 23t20 60q0 42 -27.5 72t-88.5 30q-66 0 -66 -53z" />
    <glyph glyph-name="seven.tnum" 
d="M111 65l220 436q11 22 21.5 38t15.5 21l5 6v2q-6 -3 -42 -3h-228q-55 0 -55 55v40q0 55 55 55h403q55 0 55 -55v-31q0 -37 -16 -68l-264 -521q-20 -40 -65 -40h-65q-32 0 -43 18t3 47z" />
    <glyph glyph-name="eight.tnum" 
d="M32 204q0 98 103 178q-75 58 -75 141t61.5 143.5t176.5 60.5q107 0 177.5 -54t70.5 -145q0 -87 -74 -169q93 -59 93 -155q0 -87 -70.5 -151.5t-195.5 -64.5q-124 0 -195.5 64.5t-71.5 151.5zM351 419q26 41 26 86q0 72 -77 72q-69 0 -69 -58q0 -34 28 -54t92 -46z
M207 224q0 -38 26 -62t68 -24q37 0 61 19.5t24 52.5q0 29 -25.5 47t-93.5 47q-12 5 -19 8q-41 -43 -41 -88z" />
    <glyph glyph-name="nine.tnum" 
d="M82 70l15 47q8 27 23 34t41 3q34 -6 50 -6q118 0 157 128h-2q-14 -14 -46.5 -24.5t-69.5 -10.5q-97 0 -158 71.5t-61 166.5q0 99 66.5 173.5t176.5 74.5q118 0 204.5 -88.5t86.5 -247.5q0 -105 -38 -195t-117.5 -149t-186.5 -59q-62 0 -107 13q-51 15 -34 69zM319 382
q66 0 66 53q0 46 -33.5 89t-77.5 43q-31 0 -51 -23t-20 -60q0 -42 27.5 -72t88.5 -30z" />
    <glyph glyph-name="hyphen.case" horiz-adv-x="410" 
d="M103 272q-55 0 -55 55v40q0 55 55 55h204q55 0 55 -55v-40q0 -55 -55 -55h-204z" />
    <glyph glyph-name="parenleft.case" horiz-adv-x="301" 
d="M137 -32q-105 185 -105 409q0 192 101 366q21 37 66 37h25q32 0 42.5 -18t-3.5 -47q-78 -164 -78 -338q0 -192 82 -377q13 -29 2 -47t-42 -18h-28q-44 0 -62 33z" />
    <glyph glyph-name="parenright.case" horiz-adv-x="301" 
d="M35 3q80 186 80 374q0 174 -78 338q-14 29 -4.5 47t40.5 18h28q45 0 66 -37q101 -174 101 -366q0 -222 -102 -405q-21 -37 -65 -37h-27q-32 0 -42.5 18.5t3.5 49.5z" />
    <glyph glyph-name="bracketleft.case" horiz-adv-x="332" 
d="M61 -10v735q0 55 55 55h136q55 0 55 -55v-10q0 -55 -51 -55h-51v-605h47q55 0 55 -55v-10q0 -55 -55 -55h-136q-55 0 -55 55z" />
    <glyph glyph-name="bracketright.case" horiz-adv-x="332" 
d="M25 0q0 55 55 55h47v605h-47q-55 0 -55 55v10q0 55 55 55h136q55 0 55 -55v-735q0 -55 -55 -55h-136q-55 0 -55 55v10z" />
    <glyph glyph-name="braceleft.case" horiz-adv-x="371" 
d="M104 92v98q0 57 -40 83q-24 14 -34.5 26t-10.5 34v56q0 22 10 34t34 27q41 23 41 85v88q0 47 19 81t47.5 50.5t54.5 23.5t48 7h18q55 0 55 -55v-20q0 -55 -55 -55q-43 0 -43 -53v-112q0 -29 -8.5 -52.5t-21 -36.5t-25 -22.5t-21.5 -12.5l-8 -3v-2l9 -3t20.5 -11.5
t25.5 -22t20 -36.5t9 -53v-122q0 -53 43 -53q55 0 55 -55v-20q0 -55 -55 -55h-18q-22 0 -48 7t-54.5 23.5t-47.5 50.5t-19 81z" />
    <glyph glyph-name="braceright.case" horiz-adv-x="372" 
d="M25 5q0 55 55 55q43 0 43 53v122q0 29 8.5 53t21 37t25 21.5t20.5 11.5l9 3v2q-3 1 -9 3.5t-20.5 12t-25.5 22.5t-20 36.5t-9 52.5v112q0 53 -43 53q-55 0 -55 55v20q0 55 55 55h18q22 0 48 -7t54.5 -23.5t47.5 -50.5t19 -81v-88q0 -62 41 -85q24 -15 34 -27t10 -34v-56
q0 -22 -10.5 -34t-34.5 -26q-40 -26 -40 -83v-98q0 -47 -19 -81t-47.5 -50.5t-54.5 -23.5t-48 -7h-18q-55 0 -55 55v20z" />
    <glyph glyph-name="at.case" horiz-adv-x="793" 
d="M21 355q0 159 112.5 267.5t280.5 108.5q156 0 227 -66.5t71 -173.5v-198h19q55 0 55 -55v-9q0 -55 -55 -55h-228q-106 0 -166.5 54t-60.5 128q0 72 59.5 124t167.5 52h49q0 30 -41.5 47t-93.5 17q-95 0 -161 -73.5t-66 -167.5q0 -88 52.5 -153.5t146.5 -81.5
q53 -9 53 -57v-21q0 -27 -15 -41.5t-42 -11.5q-168 16 -266 118t-98 248zM447 360q0 -29 17 -48t49 -19h39v134h-37q-33 0 -50.5 -19t-17.5 -48z" />
    <glyph glyph-name="guillemotleft.case" horiz-adv-x="601" 
d="M309 303q-31 39 0 78l107 135q26 32 67 32h31q35 0 44.5 -20t-12.5 -47l-110 -139l110 -138q22 -27 14.5 -47t-39.5 -20h-38q-41 0 -67 32zM156 169l-107 134q-31 39 0 78l107 135q26 32 67 32h31q35 0 44.5 -20t-12.5 -47l-110 -139l110 -138q22 -27 14.5 -47t-39.5 -20
h-38q-41 0 -67 32z" />
    <glyph glyph-name="guillemotright.case" horiz-adv-x="601" 
d="M314 204l110 138l-110 139q-22 27 -14.5 47t39.5 20h38q41 0 67 -32l107 -135q31 -39 0 -78l-107 -134q-26 -32 -67 -32h-31q-35 0 -44.5 20t12.5 47zM86 137q-35 0 -44.5 20t12.5 47l110 138l-110 139q-22 27 -14.5 47t39.5 20h38q41 0 67 -32l107 -135q31 -39 0 -78
l-107 -134q-26 -32 -67 -32h-31z" />
    <glyph glyph-name="guilsinglleft.case" horiz-adv-x="341" 
d="M156 169l-107 134q-31 39 0 78l107 135q26 32 67 32h31q35 0 44.5 -20t-12.5 -47l-110 -139l110 -138q22 -27 14.5 -47t-39.5 -20h-38q-41 0 -67 32z" />
    <glyph glyph-name="guilsinglright.case" horiz-adv-x="341" 
d="M86 137q-35 0 -44.5 20t12.5 47l110 138l-110 139q-22 27 -14.5 47t39.5 20h38q41 0 67 -32l107 -135q31 -39 0 -78l-107 -134q-26 -32 -67 -32h-31z" />
    <glyph glyph-name="endash.case" horiz-adv-x="691" 
d="M102 282q-55 0 -55 55v20q0 55 55 55h486q55 0 55 -55v-20q0 -55 -55 -55h-486z" />
    <glyph glyph-name="emdash.case" horiz-adv-x="891" 
d="M102 282q-55 0 -55 55v20q0 55 55 55h686q55 0 55 -55v-20q0 -55 -55 -55h-686z" />
    <glyph glyph-name="periodcentered.case" horiz-adv-x="255" 
d="M103 263q-55 0 -55 55v54q0 55 55 55h48q55 0 55 -55v-54q0 -55 -55 -55h-48z" />
    <glyph glyph-name="questiondown.case" horiz-adv-x="442" 
d="M293 494q55 0 55 -55v-10q0 -36 -24.5 -69.5t-54 -55t-54 -49.5t-24.5 -54q0 -25 21 -42t50 -17q24 0 52 14q54 26 81 -13l24 -36q32 -47 -9 -73q-75 -49 -166 -49q-92 0 -162.5 52.5t-70.5 143.5q0 42 15.5 77.5t39 59.5t47.5 44t43.5 41.5t24.5 42.5l3 12q5 20 17 28
t35 8h57zM344 660v-40q0 -55 -55 -55h-48q-55 0 -55 55v40q0 55 55 55h48q55 0 55 -55z" />
    <glyph glyph-name="exclamdown.case" horiz-adv-x="286" 
d="M163 494q54 0 56 -54l12 -384q2 -56 -54 -56h-68q-56 0 -54 56l12 384q2 54 56 54h40zM222 660v-40q0 -55 -55 -55h-48q-55 0 -55 55v40q0 55 55 55h48q55 0 55 -55z" />
    <glyph glyph-name="bullet.case" horiz-adv-x="450" 
d="M225 170q-77 0 -131.5 54.5t-54.5 131.5t54.5 131.5t131.5 54.5t131.5 -54.5t54.5 -131.5t-54.5 -131.5t-131.5 -54.5z" />
    <glyph glyph-name="zero.p_osf" horiz-adv-x="607" 
d="M48 278q0 56 14.5 106t44 92t80.5 66.5t117 24.5q87 0 146.5 -43.5t84 -107t24.5 -140.5q0 -122 -63.5 -205t-191.5 -83q-66 0 -117 24.5t-80.5 66.5t-44 92t-14.5 107zM222 278q0 -146 82 -146t82 144q0 147 -82 147t-82 -145z" />
    <glyph glyph-name="one.p_osf" horiz-adv-x="509" 
d="M47 55v35q0 55 55 55h88v162l1 74h-2q-15 -18 -38 -32l-9 -5q-46 -26 -75 18l-19 27q-31 47 17 76l114 71q30 19 68 19h55q55 0 55 -55v-355h79q55 0 55 -55v-35q0 -55 -55 -55h-334q-55 0 -55 55z" />
    <glyph glyph-name="two.p_osf" horiz-adv-x="565" 
d="M46 55v17q0 42 37 65q232 147 232 225q0 29 -20 43t-46 14q-42 0 -92 -34q-45 -33 -76 7l-21 27q-36 44 6 77q92 71 207 71q86 0 151.5 -46t65.5 -135q0 -140 -197 -244v-2q23 5 68 5h100q55 0 55 -55v-35q0 -55 -55 -55h-360q-55 0 -55 55z" />
    <glyph glyph-name="three.p_osf" horiz-adv-x="538" 
d="M49 32q26 43 76 15q50 -31 101 -31q48 0 75.5 20t27.5 52q0 43 -39.5 64t-88.5 21h-14q-46 0 -63 40q-19 39 10 74l50 62q15 18 30.5 33.5t23.5 22.5l8 7v1q-23 -4 -68 -4h-83q-55 0 -55 55v36q0 55 55 55h321q55 0 55 -49v-10q0 -39 -26 -68l-123 -137
q78 -14 129.5 -66.5t51.5 -123.5q0 -96 -70.5 -162.5t-198.5 -66.5q-109 0 -190 55q-43 28 -13 76z" />
    <glyph glyph-name="four.p_osf" horiz-adv-x="611" 
d="M18 78v19q0 33 19 63l216 358q21 37 65 37h125q55 0 55 -55v-332h30q55 0 55 -55v-35q0 -55 -42 -55h-43v-84q0 -55 -55 -55h-63q-55 0 -55 55v84h-252q-55 0 -55 55zM196 168h129v156l6 80h-2q-16 -43 -35 -74z" />
    <glyph glyph-name="five.p_osf" horiz-adv-x="547" 
d="M45 2l17 29q26 44 75 15q52 -30 100 -30q41 0 74 22t33 62q0 43 -32 68t-80 25q-33 0 -64 -9q-43 -11 -74 1l-10 4q-41 17 -37 63l21 250q5 53 57 53h277q55 0 55 -55v-36q0 -55 -55 -55h-183l-4 -64l-4 -27h2q25 7 52 7q120 0 186.5 -62.5t66.5 -153.5
q0 -107 -74.5 -172t-192.5 -65q-106 0 -192 55q-44 27 -14 75z" />
    <glyph glyph-name="six.p_osf" horiz-adv-x="601" 
d="M42 301q0 73 21.5 140.5t61 122t104 87t144.5 32.5q60 0 105 -12q52 -14 34 -69l-11 -33q-15 -44 -65 -36q-45 6 -49 6q-63 0 -101 -36t-55 -89h2q14 12 47.5 21.5t69.5 9.5q95 0 155 -66t60 -155q0 -93 -65 -164.5t-176 -71.5q-116 0 -199 81t-83 232zM218 261
q0 -44 31.5 -86.5t75.5 -42.5q32 0 50 23t18 59q0 42 -26 70t-85 28q-31 0 -47.5 -11t-16.5 -40z" />
    <glyph glyph-name="seven.p_osf" horiz-adv-x="536" 
d="M86 -51l205 401q11 21 20.5 36t13.5 20l4 5v2q-19 -3 -41 -3h-214q-55 0 -55 55v35q0 55 55 55h392q55 0 55 -55v-24q0 -35 -17 -68l-250 -484q-20 -40 -65 -40h-63q-32 0 -43 18t3 47z" />
    <glyph glyph-name="eight.p_osf" horiz-adv-x="603" 
d="M40 197q0 79 104 162q-72 50 -72 129q0 80 59.5 137t173.5 57q101 0 169 -52t68 -143q0 -13 -3 -27t-7 -26.5t-10.5 -25.5t-12 -22.5t-12.5 -19.5t-11.5 -15.5t-9.5 -11.5l-4 -6q88 -51 88 -140q0 -83 -69 -144t-192 -61q-121 0 -190 61.5t-69 147.5zM352 392
q25 43 25 83q0 29 -20 46.5t-54 17.5q-33 0 -49.5 -15.5t-16.5 -38.5q0 -30 29 -50t86 -43zM211 211q0 -33 25.5 -56.5t62.5 -23.5q41 0 64 18.5t23 51.5q0 6 -2 12t-7 12t-9.5 10.5t-13.5 10t-15.5 9t-19 9.5t-20 9.5t-22.5 10t-23 9.5q-43 -41 -43 -82z" />
    <glyph glyph-name="nine.p_osf" horiz-adv-x="604" 
d="M100 -14q15 44 65 36q45 -6 49 -6q63 0 101 36t55 89h-2q-14 -12 -47.5 -21.5t-69.5 -9.5q-95 0 -155 66t-60 155q0 93 65 164.5t176 71.5q116 0 199 -81t83 -232q0 -73 -21.5 -140.5t-61 -122t-104 -87t-144.5 -32.5q-60 0 -105 12q-52 14 -34 69zM319 243q31 0 47.5 11
t16.5 40q0 44 -31.5 86.5t-75.5 42.5q-32 0 -50 -23t-18 -59q0 -42 26 -70t85 -28z" />
    <glyph glyph-name="zero.t_osf" 
d="M44 278q0 56 14.5 106t44 92t80.5 66.5t117 24.5q87 0 146.5 -43.5t84 -107t24.5 -140.5q0 -122 -63.5 -205t-191.5 -83q-66 0 -117 24.5t-80.5 66.5t-44 92t-14.5 107zM218 278q0 -146 82 -146t82 144q0 147 -82 147t-82 -145z" />
    <glyph glyph-name="one.t_osf" 
d="M91 55v35q0 55 55 55h88v162l1 74h-2q-15 -18 -38 -32l-9 -5q-46 -26 -75 18l-19 27q-31 47 17 76l114 71q30 19 68 19h55q55 0 55 -55v-355h79q55 0 55 -55v-35q0 -55 -55 -55h-334q-55 0 -55 55z" />
    <glyph glyph-name="two.t_osf" 
d="M62 55v17q0 42 37 65q232 147 232 225q0 29 -20 43t-46 14q-42 0 -92 -34q-45 -33 -76 7l-21 27q-36 44 6 77q92 71 207 71q86 0 151.5 -46t65.5 -135q0 -140 -197 -244v-2q23 5 68 5h100q55 0 55 -55v-35q0 -55 -55 -55h-360q-55 0 -55 55z" />
    <glyph glyph-name="three.t_osf" 
d="M79 34q26 43 76 15q50 -31 101 -31q48 0 75.5 20t27.5 52q0 43 -39.5 64t-88.5 21h-14q-46 0 -63 40q-19 39 10 74l50 62q15 18 30.5 33.5t23.5 22.5l8 7v1q-23 -4 -68 -4h-83q-55 0 -55 55v36q0 55 55 55h321q55 0 55 -49v-10q0 -39 -26 -68l-123 -137
q78 -14 129.5 -66.5t51.5 -123.5q0 -96 -70.5 -162.5t-198.5 -66.5q-109 0 -190 55q-43 28 -13 76z" />
    <glyph glyph-name="four.t_osf" 
d="M12 78v19q0 33 19 63l216 358q21 37 65 37h125q55 0 55 -55v-332h30q55 0 55 -55v-35q0 -55 -42 -55h-43v-84q0 -55 -55 -55h-63q-55 0 -55 55v84h-252q-55 0 -55 55zM190 168h129v156l6 80h-2q-16 -43 -35 -74z" />
    <glyph glyph-name="five.t_osf" 
d="M71 2l17 29q26 44 75 15q52 -30 100 -30q41 0 74 22t33 62q0 43 -32 68t-80 25q-33 0 -64 -9q-43 -11 -74 1l-10 4q-41 17 -37 63l21 250q5 53 57 53h277q55 0 55 -55v-36q0 -55 -55 -55h-183l-4 -64l-4 -27h2q25 7 52 7q120 0 186.5 -62.5t66.5 -153.5
q0 -107 -74.5 -172t-192.5 -65q-106 0 -192 55q-44 27 -14 75z" />
    <glyph glyph-name="six.t_osf" 
d="M43 301q0 73 21.5 140.5t61 122t104 87t144.5 32.5q60 0 105 -12q52 -14 34 -69l-11 -33q-15 -44 -65 -36q-45 6 -49 6q-63 0 -101 -36t-55 -89h2q14 12 47.5 21.5t69.5 9.5q95 0 155 -66t60 -155q0 -93 -65 -164.5t-176 -71.5q-116 0 -199 81t-83 232zM219 261
q0 -44 31.5 -86.5t75.5 -42.5q32 0 50 23t18 59q0 42 -26 70t-85 28q-31 0 -47.5 -11t-16.5 -40z" />
    <glyph glyph-name="seven.t_osf" 
d="M117 -51l205 401q11 21 20.5 36t13.5 20l4 5v2q-19 -3 -41 -3h-214q-55 0 -55 55v35q0 55 55 55h392q55 0 55 -55v-24q0 -35 -17 -68l-250 -484q-20 -40 -65 -40h-63q-32 0 -43 18t3 47z" />
    <glyph glyph-name="eight.t_osf" 
d="M38 197q0 79 104 162q-72 50 -72 129q0 80 59.5 137t173.5 57q101 0 169 -52t68 -143q0 -13 -3 -27t-7 -26.5t-10.5 -25.5t-12 -22.5t-12.5 -19.5t-11.5 -15.5t-9.5 -11.5l-4 -6q88 -51 88 -140q0 -83 -69 -144t-192 -61q-121 0 -190 61.5t-69 147.5zM350 392
q25 43 25 83q0 29 -20 46.5t-54 17.5q-33 0 -49.5 -15.5t-16.5 -38.5q0 -30 29 -50t86 -43zM209 211q0 -33 25.5 -56.5t62.5 -23.5q41 0 64 18.5t23 51.5q0 6 -2 12t-7 12t-9.5 10.5t-13.5 10t-15.5 9t-19 9.5t-20 9.5t-22.5 10t-23 9.5q-43 -41 -43 -82z" />
    <glyph glyph-name="nine.t_osf" 
d="M95 -14q15 44 65 36q45 -6 49 -6q63 0 101 36t55 89h-2q-14 -12 -47.5 -21.5t-69.5 -9.5q-95 0 -155 66t-60 155q0 93 65 164.5t176 71.5q116 0 199 -81t83 -232q0 -73 -21.5 -140.5t-61 -122t-104 -87t-144.5 -32.5q-60 0 -105 12q-52 14 -34 69zM314 243q31 0 47.5 11
t16.5 40q0 44 -31.5 86.5t-75.5 42.5q-32 0 -50 -23t-18 -59q0 -42 26 -70t85 -28z" />
    <glyph glyph-name="dollar.osf" horiz-adv-x="528" 
d="M63 50q-41 29 -13 76l22 36q27 45 75 14q56 -36 101 -36q67 0 67 34q0 14 -28.5 28t-69 30t-81 37.5t-69 60.5t-28.5 90q0 66 47.5 111t125.5 60v38q0 55 52 55h6q51 0 51 -45v-45q65 -7 120 -36q42 -23 21 -74l-17 -38q-21 -49 -73 -22q-44 21 -84 21q-69 0 -69 -36
q0 -13 28.5 -25t69 -26.5t81 -35.5t69 -59.5t28.5 -90.5q0 -65 -46.5 -114t-127.5 -64v-39q0 -55 -51 -55h-6q-52 0 -52 45v46q-79 11 -149 59z" />
    <glyph glyph-name="cent.osf" horiz-adv-x="538" 
d="M231 25v29q-93 22 -145 90.5t-52 155.5t52 155t145 91v28q0 55 55 55h4q55 0 55 -38v-38q67 -8 127 -46q43 -29 12 -76l-20 -32q-26 -42 -75 -14q-31 18 -63 18q-58 0 -89 -30.5t-31 -70.5q0 -43 30.5 -74t89.5 -31q32 0 63 18q49 28 75 -14l20 -32q31 -47 -12 -76
q-59 -39 -127 -46v-22q0 -55 -55 -55h-4q-55 0 -55 55z" />
    <glyph glyph-name="sterling.osf" horiz-adv-x="603" 
d="M49 55v35q0 26 13.5 40.5t36.5 14.5h5v86h-5q-45 0 -45 51v6q0 51 45 51h5v42q0 95 73.5 155.5t180.5 60.5q78 0 148 -33q50 -23 21 -74l-20 -34q-23 -41 -73 -24q-39 13 -71 13q-33 0 -58.5 -18t-25.5 -46v-42h125q55 0 55 -51v-6q0 -51 -55 -51h-125v-86h234
q55 0 55 -55v-35q0 -55 -55 -55h-409q-55 0 -55 55z" />
    <glyph glyph-name="yen.osf" horiz-adv-x="628" 
d="M118 118q-55 0 -55 45v6q0 45 55 45h106v7l-41 71h-65q-55 0 -55 45v6q0 45 55 45h10l-75 131q-16 29 -5 47.5t44 18.5h78q45 0 64 -41l34 -77l43 -110h2q21 61 43 110l34 77q19 41 64 41h78q33 0 44 -18.5t-6 -47.5l-75 -131h19q55 0 55 -45v-6q0 -45 -55 -45h-74
l-41 -71v-7h115q55 0 55 -45v-6q0 -45 -55 -45h-115v-63q0 -55 -55 -55h-65q-55 0 -55 55v63h-106z" />
    <glyph glyph-name="florin.osf" horiz-adv-x="447" 
d="M32 21q5 0 12 -0.5t9 -0.5q87 0 93 64l16 182h-9q-55 0 -55 55v25q0 55 55 55h20l9 90q5 48 24.5 84.5t45.5 56.5t61 32t62.5 15.5t57.5 3.5q10 0 36 -2q52 -4 52 -58v-36q0 -57 -38 -54q-23 3 -38 3q-88 0 -94 -64l-7 -71h41q55 0 55 -55v-25q0 -55 -55 -55h-53
l-17 -201q-4 -48 -24 -84.5t-46 -56.5t-61 -32t-62.5 -15.5t-56.5 -3.5q-9 0 -31 2q-51 5 -51 58v36q0 28 13 41t36 11z" />
    <glyph glyph-name="Euro.osf" horiz-adv-x="569" 
d="M89 184q-55 0 -55 38v10q0 38 55 38h9q-1 8 -1 45h-8q-55 0 -55 38v10q0 38 55 38h24q31 87 110.5 141.5t199.5 54.5q4 0 46 -3q27 -3 38 -20.5t4 -44.5l-8 -29q-13 -48 -49 -43q-20 2 -35 2q-80 0 -123 -58h122q29 0 42.5 -11t9.5 -31l-1 -5q-8 -39 -57 -39h-141
q-3 -20 2 -45h121q30 0 43.5 -11t9.5 -31l-1 -5q-8 -39 -57 -39h-82q43 -55 119 -55q13 0 33 2q56 8 64 -43l5 -30q10 -56 -42 -65q-28 -5 -63 -5q-117 0 -196 54.5t-112 141.5h-26z" />
    <glyph glyph-name="zero.numerator" horiz-adv-x="400" 
d="M200 264q-170 0 -170 231q0 230 170 230t170 -230q0 -231 -170 -231zM200 379q43 0 43 116q0 114 -43 114t-43 -114q0 -116 43 -116z" />
    <glyph glyph-name="one.numerator" horiz-adv-x="341" 
d="M82 274q-55 0 -55 51v6q0 51 45 51h44v143l3 32h-2q-3 -6 -9 -11l-7 -6q-8 -7 -20 -6t-22 11l-16 16q-36 36 7 75l55 52q30 27 68 27h14q55 0 55 -55v-278h35q55 0 55 -51v-6q0 -51 -55 -51h-195z" />
    <glyph glyph-name="two.numerator" horiz-adv-x="382" 
d="M78 274q-55 0 -55 52q0 48 20.5 85.5t49.5 59t58.5 38.5t50 33.5t20.5 33.5q0 16 -13 25t-32 9q-17 0 -34 -10q-24 -15 -38.5 -16.5t-36.5 13.5l-7 6q-44 38 -3 74q56 48 128 48q64 0 113.5 -36.5t49.5 -106.5q0 -47 -27.5 -83.5t-61 -53t-63.5 -33.5t-33 -30h136
q55 0 55 -51v-6q0 -51 -55 -51h-222z" />
    <glyph glyph-name="three.numerator" horiz-adv-x="369" 
d="M167 264q-70 0 -121 35q-41 26 -13 70l5 8q14 21 31 23.5t40 -9.5q24 -12 50 -12q25 0 39.5 12t14.5 30q0 16 -16.5 26t-38.5 10h-7q-37 0 -49 29t18 62l32 35l24 23v2q-21 -2 -34 -2h-55q-55 0 -55 52v6q0 51 55 51h184q55 0 55 -39v-7q0 -32 -26 -62l-57 -62
q97 -24 97 -126q0 -62 -46 -108.5t-127 -46.5z" />
    <glyph glyph-name="four.numerator" horiz-adv-x="411" 
d="M263 274q-55 0 -55 55v32h-142q-55 0 -55 42v14q0 30 20 59l128 203q23 36 66 36h52q55 0 55 -55v-192h12q46 0 46 -50v-6q0 -51 -46 -51h-12v-32q0 -55 -55 -55h-14zM130 468h78v90l4 50h-2q-9 -27 -21 -46l-59 -92v-2z" />
    <glyph glyph-name="five.numerator" horiz-adv-x="371" 
d="M175 264q-63 0 -121 33q-42 25 -12 75l3 5q23 38 70 14q24 -12 50 -12q22 0 39.5 12.5t17.5 33.5q0 22 -17.5 34.5t-43.5 12.5q-12 0 -28 -2q-47 -9 -69 1q-33 14 -29 60l11 132q5 52 58 52h158q55 0 55 -51v-4q0 -52 -55 -52h-109l-2 -28l-3 -16l2 -1q17 4 43 4
q70 0 113 -41.5t43 -101.5q0 -64 -46.5 -112t-127.5 -48z" />
    <glyph glyph-name="six.numerator" horiz-adv-x="388" 
d="M210 264q-76 0 -130 53.5t-54 154.5q0 65 23 121t74.5 94t122.5 38q27 0 54 -8q50 -17 30 -67l-2 -5q-12 -29 -20 -37t-27 -4q-2 0 -7 1.5t-11.5 2.5t-14.5 1q-59 0 -77 -52h2q18 6 41 6q70 0 111.5 -42t41.5 -103q0 -62 -42.5 -108t-114.5 -46zM208 379q16 0 25 11.5
t9 29.5q0 21 -14 38.5t-44 17.5t-30 -27q0 -23 15.5 -46.5t38.5 -23.5z" />
    <glyph glyph-name="seven.numerator" horiz-adv-x="360" 
d="M92 274q-33 0 -44 19t6 47l138 242l16 24v2q-17 -2 -30 -2h-106q-55 0 -55 52v6q0 51 55 51h224q55 0 55 -42v-10q0 -33 -18 -65l-159 -286q-20 -38 -65 -38h-17z" />
    <glyph glyph-name="eight.numerator" horiz-adv-x="400" 
d="M201 264q-71 0 -123 36.5t-52 102.5q0 56 64 106q-43 36 -43 88q0 61 45.5 94.5t109.5 33.5q63 0 111 -34.5t48 -94.5q0 -46 -49 -100q59 -38 59 -99q0 -62 -50.5 -97.5t-119.5 -35.5zM228 535q17 27 17 53q0 14 -13.5 22.5t-29.5 8.5q-35 0 -35 -28q0 -18 15.5 -30.5
t45.5 -25.5zM200 370q18 0 31.5 9t13.5 25q0 9 -5 17t-19 16.5t-22 12.5t-30 14q-22 -26 -22 -53q0 -19 15.5 -30t37.5 -11z" />
    <glyph glyph-name="nine.numerator" horiz-adv-x="388" 
d="M88 272q-50 17 -30 67l2 5q12 29 20 37t27 4q2 0 7 -1.5t11.5 -2.5t14.5 -1q59 0 77 52h-2q-18 -6 -41 -6q-70 0 -111.5 42t-41.5 103q0 62 42.5 108t114.5 46q76 0 130 -53.5t54 -154.5q0 -65 -23 -121t-74.5 -94t-122.5 -38q-27 0 -54 8zM204 513q30 0 30 27
q0 23 -15.5 46.5t-38.5 23.5q-16 0 -25 -11.5t-9 -29.5q0 -21 14 -38.5t44 -17.5z" />
    <glyph glyph-name="zero.denominator" horiz-adv-x="400" 
d="M200 -10q-170 0 -170 231q0 230 170 230t170 -230q0 -231 -170 -231zM200 105q43 0 43 116q0 114 -43 114t-43 -114q0 -116 43 -116z" />
    <glyph glyph-name="one.denominator" horiz-adv-x="340" 
d="M82 0q-55 0 -55 51v6q0 51 45 51h44v143l3 32h-2q-3 -6 -9 -11l-7 -6q-8 -7 -20 -6t-22 11l-16 16q-36 36 7 75l55 52q30 27 68 27h14q55 0 55 -55v-278h35q55 0 55 -51v-6q0 -51 -55 -51h-195z" />
    <glyph glyph-name="two.denominator" horiz-adv-x="381" 
d="M77 0q-55 0 -55 52q0 48 20.5 85.5t50 59t58.5 38.5t49.5 33.5t20.5 33.5q0 16 -13 25t-32 9q-17 0 -34 -10q-24 -15 -38.5 -16.5t-36.5 13.5l-7 6q-44 38 -3 74q56 48 128 48q64 0 113.5 -36.5t49.5 -106.5q0 -47 -27.5 -83.5t-61 -53t-63.5 -33.5t-33 -30h136
q55 0 55 -51v-6q0 -51 -55 -51h-222z" />
    <glyph glyph-name="three.denominator" horiz-adv-x="369" 
d="M167 -10q-70 0 -121 35q-41 26 -13 70l5 8q14 21 31 23.5t40 -9.5q24 -12 50 -12q25 0 39.5 12t14.5 30q0 16 -16.5 26t-38.5 10h-7q-37 0 -49 29t18 62l32 35l24 23v2q-21 -2 -34 -2h-55q-55 0 -55 52v6q0 51 55 51h184q55 0 55 -39v-7q0 -32 -26 -62l-57 -62
q97 -24 97 -126q0 -62 -46 -108.5t-127 -46.5z" />
    <glyph glyph-name="four.denominator" horiz-adv-x="410" 
d="M263 0q-55 0 -55 55v32h-142q-55 0 -55 42v14q0 30 20 59l128 203q23 36 66 36h52q55 0 55 -55v-192h12q46 0 46 -50v-6q0 -51 -46 -51h-12v-32q0 -55 -55 -55h-14zM130 194h78v90l4 50h-2q-9 -27 -21 -46l-59 -92v-2z" />
    <glyph glyph-name="five.denominator" horiz-adv-x="370" 
d="M174 -10q-63 0 -121 33q-42 25 -12 75l3 5q23 38 70 14q24 -12 50 -12q22 0 39.5 12.5t17.5 33.5q0 22 -17.5 34.5t-43.5 12.5q-12 0 -28 -2q-47 -9 -69 1q-33 14 -29 60l11 132q5 52 58 52h158q55 0 55 -51v-4q0 -52 -55 -52h-109l-2 -28l-3 -16l2 -1q17 4 43 4
q70 0 113 -41.5t43 -101.5q0 -64 -46.5 -112t-127.5 -48z" />
    <glyph glyph-name="six.denominator" horiz-adv-x="390" 
d="M211 -10q-76 0 -130 53.5t-54 154.5q0 65 23 121t74.5 94t122.5 38q27 0 54 -8q50 -17 30 -67l-2 -5q-11 -29 -19.5 -37t-27.5 -4q-2 0 -7 1.5t-11.5 2.5t-14.5 1q-59 0 -77 -52h2q18 6 41 6q70 0 111.5 -42t41.5 -103q0 -62 -42.5 -108t-114.5 -46zM209 105
q16 0 25 11.5t9 29.5q0 21 -14 38.5t-44 17.5t-30 -27q0 -23 15.5 -46.5t38.5 -23.5z" />
    <glyph glyph-name="seven.denominator" horiz-adv-x="359" 
d="M91 0q-33 0 -44 19t6 47l138 242l16 24v2q-17 -2 -30 -2h-106q-55 0 -55 52v6q0 51 55 51h224q55 0 55 -42v-10q0 -33 -18 -65l-159 -286q-20 -38 -65 -38h-17z" />
    <glyph glyph-name="eight.denominator" horiz-adv-x="400" 
d="M201 -10q-71 0 -123 36.5t-52 102.5q0 56 64 106q-43 36 -43 88q0 61 45.5 94.5t109.5 33.5q63 0 111 -34.5t48 -94.5q0 -46 -49 -100q59 -38 59 -99q0 -62 -50.5 -97.5t-119.5 -35.5zM228 261q17 27 17 53q0 14 -13.5 22.5t-29.5 8.5q-35 0 -35 -28q0 -18 15.5 -30.5
t45.5 -25.5zM200 96q18 0 31.5 9t13.5 25q0 9 -5 17t-19 16.5t-22 12.5t-30 14q-22 -26 -22 -53q0 -19 15.5 -30t37.5 -11z" />
    <glyph glyph-name="nine.denominator" horiz-adv-x="390" 
d="M89 -2q-50 17 -30 67l2 5q11 29 19.5 37t27.5 4q2 0 7 -1.5t11.5 -2.5t14.5 -1q59 0 77 52h-2q-18 -6 -41 -6q-70 0 -111.5 42t-41.5 103q0 62 42.5 108t114.5 46q76 0 130 -53.5t54 -154.5q0 -65 -23 -121t-74.5 -94t-122.5 -38q-27 0 -54 8zM205 239q30 0 30 27
q0 23 -15.5 46.5t-38.5 23.5q-16 0 -25 -11.5t-9 -29.5q0 -21 14 -38.5t44 -17.5z" />
    </font>
</defs>
</svg>
